<svg x="0px" y="0px" width="180px" height="180px" viewBox="0 0 180 180" enable-background="new 0 0 180 180" fill="none" xmlns="http://www.w3.org/2000/svg">
<path d="M136.811 7.33351C136.417 7.19302 136.108 6.94015 135.826 6.57488C135.573 6.20961 135.404 5.76005 135.32 5.2262C135.235 4.69234 135.235 4.21468 135.376 3.79322C135.488 3.37176 135.714 3.03459 136.051 2.75361C136.361 2.47264 136.783 2.30405 137.262 2.21976C137.599 2.16356 137.937 2.16356 138.247 2.21976C138.556 2.27595 138.838 2.38834 139.091 2.55693L138.95 3.03459C138.669 2.866 138.416 2.75361 138.162 2.69742C137.909 2.64122 137.656 2.64122 137.346 2.69742C136.783 2.78171 136.389 3.03459 136.136 3.45605C135.882 3.87751 135.826 4.41137 135.939 5.05761C136.051 5.73195 136.305 6.20961 136.671 6.51868C137.036 6.82776 137.487 6.94015 138.05 6.85585C138.331 6.79966 138.584 6.71537 138.81 6.57488C139.035 6.43439 139.232 6.26581 139.457 6.01293L139.766 6.43439C139.598 6.68727 139.344 6.88395 139.091 7.05254C138.838 7.22112 138.5 7.30541 138.162 7.38971C137.627 7.5021 137.177 7.474 136.811 7.33351Z" fill="black"/>
<path d="M142.497 6.71526L141.849 1.6015L142.44 1.51721L143.031 6.12521L145.593 5.78804L145.649 6.2938L142.497 6.71526Z" fill="black"/>
<path d="M148.126 6.04104L147.619 0.927289L148.21 0.871094L148.717 5.98485L148.126 6.04104Z" fill="black"/>
<path d="M154.937 0.33718L155.5 0.309082L155.837 5.45093L155.387 5.47903L152.01 1.54537L152.291 5.67571L151.728 5.70381L151.362 0.56196L151.813 0.533862L155.19 4.46752L154.937 0.33718Z" fill="black"/>
<path d="M158.82 5.31045L158.652 0.1686L159.243 0.140503L159.412 5.28235L158.82 5.31045Z" fill="black"/>
<path d="M163.352 4.97327C162.986 4.77658 162.705 4.46751 162.508 4.07414C162.311 3.68078 162.198 3.20312 162.198 2.66927C162.198 2.13541 162.282 1.65776 162.451 1.26439C162.648 0.871024 162.902 0.561951 163.268 0.337171C163.633 0.11239 164.056 0 164.534 0C164.9 0 165.21 0.0561951 165.519 0.140488C165.829 0.252878 166.082 0.393366 166.307 0.618146L166.082 1.0958C165.829 0.899122 165.575 0.730536 165.35 0.646244C165.125 0.561951 164.844 0.505756 164.562 0.533853C163.999 0.533853 163.549 0.730536 163.268 1.0958C162.986 1.46107 162.817 1.99493 162.817 2.66927C162.817 3.34361 162.986 3.87746 163.296 4.21463C163.605 4.5799 164.056 4.74849 164.618 4.74849C164.9 4.74849 165.181 4.69229 165.407 4.608C165.632 4.52371 165.885 4.35512 166.138 4.13034L166.363 4.5799C166.138 4.80468 165.885 4.97327 165.604 5.08566C165.322 5.19805 164.984 5.25424 164.618 5.25424C164.14 5.28234 163.718 5.16995 163.352 4.97327Z" fill="black"/>
<path d="M168.728 4.66419L168.981 4.21463C169.234 4.43941 169.487 4.60799 169.741 4.69228C169.994 4.77658 170.304 4.86087 170.67 4.86087C171.092 4.88897 171.401 4.80468 171.626 4.66419C171.852 4.5237 171.964 4.29892 171.992 3.98985C171.992 3.82126 171.964 3.68077 171.852 3.56838C171.739 3.45599 171.598 3.3717 171.429 3.28741C171.261 3.23121 171.035 3.14692 170.726 3.06263C170.332 2.95024 169.994 2.83785 169.741 2.72546C169.487 2.61307 169.29 2.47258 169.15 2.2759C169.009 2.07921 168.925 1.82634 168.953 1.51726C168.953 1.23629 169.037 0.955311 169.206 0.758628C169.375 0.533848 169.6 0.365263 169.881 0.252873C170.163 0.140482 170.501 0.0842873 170.867 0.112385C171.232 0.112385 171.542 0.196677 171.852 0.309068C172.161 0.421458 172.414 0.590043 172.611 0.814824L172.358 1.26438C172.133 1.0396 171.88 0.871019 171.626 0.786726C171.373 0.702433 171.12 0.618141 170.81 0.618141C170.416 0.590043 170.107 0.674336 169.853 0.842921C169.628 1.01151 169.487 1.23629 169.487 1.54536C169.487 1.79824 169.572 1.99492 169.769 2.13541C169.966 2.2759 170.275 2.38829 170.67 2.50068C171.12 2.61307 171.458 2.72546 171.711 2.83785C171.964 2.95024 172.161 3.09072 172.33 3.25931C172.499 3.45599 172.555 3.68077 172.555 3.98985C172.555 4.27082 172.471 4.5237 172.302 4.74848C172.133 4.97326 171.908 5.11375 171.626 5.22614C171.345 5.33853 171.007 5.39472 170.613 5.36663C169.825 5.36663 169.178 5.11375 168.728 4.66419Z" fill="black"/>
<path d="M176.158 5.36668C175.82 5.11381 175.567 4.80473 175.398 4.38327C175.229 3.96181 175.173 3.48415 175.229 2.95029C175.285 2.41644 175.398 1.96688 175.623 1.57351C175.848 1.20825 176.158 0.92727 176.524 0.730588C176.89 0.533905 177.34 0.47771 177.818 0.505807C178.184 0.533905 178.494 0.618197 178.775 0.758685C179.057 0.899173 179.31 1.06776 179.507 1.29254L179.254 1.7421C179.029 1.51732 178.804 1.34873 178.55 1.23634C178.325 1.12395 178.072 1.06776 177.762 1.03966C177.199 0.983466 176.749 1.15205 176.411 1.48922C176.073 1.82639 175.876 2.33215 175.82 3.00649C175.764 3.68083 175.876 4.21468 176.158 4.60805C176.439 5.00142 176.862 5.2262 177.424 5.25429C177.706 5.28239 177.987 5.25429 178.213 5.17C178.466 5.08571 178.719 4.97332 178.972 4.77663L179.169 5.25429C178.944 5.45098 178.663 5.59146 178.353 5.67576C178.044 5.76005 177.706 5.78815 177.368 5.76005C176.918 5.76005 176.496 5.61956 176.158 5.36668Z" fill="black"/>
<path d="M181.843 6.15343L182.434 1.03967L183.025 1.09587L182.49 5.70387L185.051 6.01294L184.995 6.5187L181.843 6.15343Z" fill="black"/>
<path d="M187.472 6.85567L188.232 1.77002L188.823 1.85431L188.063 6.93997L187.472 6.85567Z" fill="black"/>
<path d="M195.437 2.97827L196 3.09067L195.071 8.14822L194.621 8.06393L192.313 3.42784L191.581 7.50198L191.018 7.38959L191.947 2.33203L192.397 2.41632L194.705 7.05242L195.437 2.97827Z" fill="black"/>
<path d="M197.998 8.7664L199.095 3.73694L199.686 3.87743L198.589 8.90689L197.998 8.7664Z" fill="black"/>
<path d="M202.473 9.52509C202.163 9.24411 201.966 8.87885 201.882 8.42929C201.797 8.00782 201.825 7.53016 201.938 6.99631C202.079 6.46246 202.276 6.04099 202.557 5.70382C202.839 5.36665 203.176 5.14187 203.598 5.02948C203.992 4.91709 204.443 4.91709 204.921 5.02948C205.259 5.11378 205.568 5.25426 205.822 5.42285C206.075 5.59143 206.3 5.81621 206.469 6.06909L206.131 6.46246C205.934 6.20958 205.737 5.9848 205.54 5.84431C205.343 5.70382 205.09 5.59143 204.809 5.50714C204.246 5.36665 203.795 5.45095 203.401 5.73192C203.007 6.0129 202.726 6.49056 202.557 7.1368C202.388 7.78304 202.416 8.34499 202.613 8.76646C202.81 9.18792 203.204 9.49699 203.739 9.60938C204.021 9.66558 204.274 9.69368 204.527 9.66558C204.78 9.63748 205.062 9.55319 205.343 9.4127L205.456 9.91845C205.203 10.0589 204.893 10.1713 204.583 10.1994C204.274 10.2275 203.936 10.1994 203.598 10.1151C203.148 10.0027 202.782 9.80607 202.473 9.52509Z" fill="black"/>
<path d="M207.764 10.5366L208.13 10.1713C208.299 10.4523 208.524 10.6771 208.749 10.8457C208.974 11.0142 209.256 11.1266 209.593 11.239C209.987 11.3514 210.325 11.3795 210.578 11.2671C210.832 11.1828 211 10.9861 211.085 10.7052C211.141 10.5366 211.113 10.3961 211.057 10.2556C210.972 10.1151 210.86 10.0027 210.719 9.89034C210.578 9.77795 210.353 9.63746 210.1 9.49697C209.734 9.30029 209.453 9.10361 209.227 8.93502C209.002 8.76644 208.862 8.56976 208.749 8.34498C208.665 8.1202 208.636 7.86732 208.721 7.55824C208.805 7.27727 208.946 7.05249 209.171 6.8839C209.396 6.71532 209.65 6.60293 209.959 6.57483C210.269 6.54673 210.606 6.57483 210.972 6.68722C211.31 6.79961 211.62 6.9401 211.873 7.13678C212.126 7.33346 212.351 7.55824 212.492 7.81112L212.154 8.17639C211.986 7.89542 211.789 7.69873 211.563 7.53015C211.338 7.36156 211.113 7.24917 210.832 7.16488C210.438 7.05249 210.128 7.05249 209.847 7.13678C209.593 7.22107 209.396 7.41776 209.312 7.72683C209.227 7.97971 209.284 8.17639 209.424 8.37307C209.565 8.54166 209.847 8.73834 210.212 8.96312C210.606 9.1879 210.916 9.38458 211.141 9.55317C211.366 9.72175 211.535 9.89034 211.648 10.1151C211.76 10.3399 211.76 10.5928 211.676 10.8738C211.592 11.1547 211.451 11.3795 211.226 11.5481C211.029 11.7167 210.747 11.8291 210.438 11.8572C210.128 11.8853 209.79 11.8572 209.424 11.7448C208.665 11.4919 208.102 11.0985 207.764 10.5366Z" fill="black"/>
<path d="M214.8 13.0654C214.519 12.7563 214.35 12.3629 214.294 11.9415C214.237 11.52 214.294 11.0423 214.462 10.5085C214.631 10.0027 214.885 9.58126 215.194 9.27219C215.504 8.96311 215.87 8.76643 216.264 8.68214C216.686 8.59784 217.108 8.62594 217.558 8.79453C217.896 8.90692 218.177 9.0755 218.431 9.27219C218.684 9.46887 218.881 9.69365 219.022 9.97462L218.656 10.3399C218.487 10.0589 218.318 9.83414 218.121 9.66555C217.924 9.49697 217.699 9.38458 217.417 9.27219C216.883 9.1036 216.404 9.1317 216.01 9.38458C215.588 9.63745 215.279 10.087 215.082 10.7052C214.856 11.3514 214.856 11.8853 215.025 12.3348C215.194 12.7844 215.56 13.0935 216.095 13.2901C216.376 13.3744 216.629 13.4306 216.883 13.4025C217.136 13.3744 217.417 13.3182 217.727 13.2058L217.783 13.7116C217.502 13.8521 217.22 13.9083 216.883 13.9364C216.573 13.9364 216.235 13.8802 215.898 13.7678C215.419 13.5992 215.053 13.3744 214.8 13.0654Z" fill="black"/>
<path d="M220.119 15.2008L221.977 10.3961L222.54 10.6209L220.879 14.9479L223.3 15.8751L223.103 16.3528L220.119 15.2008Z" fill="black"/>
<path d="M225.383 17.28L227.381 12.5315L227.944 12.7563L225.946 17.5048L225.383 17.28Z" fill="black"/>
<path d="M234.079 15.4817L234.586 15.7065L232.447 20.3988L232.025 20.2021L230.927 15.1446L229.21 18.9096L228.704 18.6848L230.843 13.9926L231.265 14.1892L232.362 19.2468L234.079 15.4817Z" fill="black"/>
<path d="M235.121 21.7193L237.429 17.1113L237.964 17.3923L235.656 22.0003L235.121 21.7193Z" fill="black"/>
<path d="M239.286 23.5456C239.061 23.1804 238.977 22.787 238.977 22.3374C239.005 21.8879 239.145 21.4383 239.399 20.9607C239.652 20.483 239.962 20.1177 240.328 19.8649C240.693 19.612 241.059 19.4715 241.481 19.4715C241.904 19.4434 242.326 19.5558 242.748 19.8087C243.058 19.9773 243.311 20.1739 243.536 20.4268C243.761 20.6797 243.902 20.9326 243.986 21.2135L243.564 21.5226C243.452 21.2135 243.311 20.9607 243.142 20.764C242.973 20.5673 242.776 20.3987 242.523 20.2582C242.016 19.9773 241.566 19.9492 241.116 20.1177C240.665 20.2863 240.271 20.6797 239.962 21.2697C239.652 21.8598 239.539 22.3936 239.624 22.8713C239.708 23.349 240.018 23.7142 240.525 23.9671C240.778 24.1076 241.031 24.1919 241.284 24.22C241.538 24.2481 241.819 24.2481 242.157 24.1638L242.129 24.6695C241.847 24.7538 241.538 24.7819 241.228 24.7257C240.919 24.6695 240.609 24.5852 240.299 24.4167C239.821 24.1919 239.483 23.9109 239.286 23.5456Z" fill="black"/>
<path d="M244.155 25.8498L244.605 25.5688C244.718 25.8779 244.858 26.1589 245.027 26.3556C245.196 26.5523 245.45 26.777 245.759 26.9456C246.125 27.1704 246.435 27.2547 246.716 27.2266C246.997 27.1985 247.194 27.058 247.363 26.8051C247.448 26.6646 247.476 26.5242 247.448 26.3556C247.42 26.2151 247.335 26.0746 247.223 25.906C247.11 25.7655 246.941 25.5969 246.716 25.3722C246.406 25.0912 246.181 24.8383 246.012 24.6135C245.844 24.3887 245.731 24.164 245.703 23.9111C245.675 23.6582 245.731 23.4053 245.872 23.1524C246.012 22.8996 246.209 22.731 246.463 22.5905C246.716 22.4781 246.997 22.4219 247.307 22.4781C247.617 22.5343 247.926 22.6186 248.264 22.8153C248.574 22.9839 248.827 23.2086 249.024 23.4615C249.221 23.7144 249.39 23.9954 249.446 24.2763L249.024 24.5573C248.911 24.2482 248.799 23.9954 248.63 23.7987C248.461 23.602 248.264 23.4053 248.011 23.2648C247.673 23.0682 247.363 22.9839 247.082 23.012C246.8 23.0401 246.575 23.1805 246.435 23.4334C246.294 23.6582 246.294 23.883 246.406 24.0797C246.519 24.3044 246.716 24.5573 247.026 24.8383C247.363 25.1474 247.589 25.4283 247.786 25.625C247.954 25.8217 248.067 26.0465 248.123 26.2994C248.18 26.5523 248.123 26.777 247.983 27.058C247.842 27.3109 247.645 27.4795 247.391 27.5919C247.138 27.7043 246.885 27.7323 246.575 27.7043C246.266 27.6481 245.956 27.5357 245.618 27.339C244.774 26.9737 244.352 26.468 244.155 25.8498Z" fill="black"/>
<path d="M250.347 30.0083C250.15 29.643 250.094 29.2216 250.15 28.8001C250.206 28.3505 250.375 27.9291 250.685 27.4514C250.966 27.0019 251.304 26.6647 251.698 26.4399C252.064 26.2151 252.486 26.1027 252.88 26.1308C253.274 26.1589 253.724 26.2994 254.118 26.5523C254.428 26.749 254.653 26.9738 254.85 27.2266C255.047 27.4795 255.16 27.7605 255.244 28.0696L254.794 28.3224C254.709 28.0134 254.569 27.7605 254.428 27.5357C254.287 27.339 254.09 27.1423 253.837 27.0019C253.358 26.6928 252.908 26.6085 252.43 26.749C251.979 26.8895 251.557 27.2547 251.191 27.8167C250.825 28.3786 250.656 28.9125 250.713 29.3902C250.769 29.8678 251.05 30.2612 251.501 30.5703C251.754 30.7388 251.979 30.8231 252.233 30.8793C252.486 30.9355 252.767 30.9355 253.105 30.9074L253.049 31.4132C252.739 31.4694 252.43 31.4694 252.12 31.4132C251.81 31.357 251.501 31.2165 251.219 31.0198C250.825 30.7107 250.516 30.3736 250.347 30.0083Z" fill="black"/>
<path d="M254.963 33.4079L257.946 29.1932L258.425 29.5304L255.751 33.3236L257.862 34.8127L257.58 35.2342L254.963 33.4079Z" fill="black"/>
<path d="M259.579 36.6954L262.675 32.5651L263.153 32.9303L260.057 37.0607L259.579 36.6954Z" fill="black"/>
<path d="M268.444 37.0888L268.894 37.4541L265.658 41.4721L265.292 41.1911L265.461 36.0211L262.871 39.2523L262.421 38.8871L265.658 34.8691L266.024 35.1501L265.855 40.3201L268.444 37.0888Z" fill="black"/>
<path d="M267.937 43.3826L271.286 39.4771L271.737 39.8704L268.387 43.776L267.937 43.3826Z" fill="black"/>
<path d="M271.512 46.1924C271.4 45.7991 271.4 45.3776 271.512 44.9561C271.625 44.5347 271.878 44.1132 272.244 43.7199C272.61 43.3265 273.004 43.0455 273.398 42.8769C273.82 42.7083 274.214 42.6802 274.636 42.7645C275.058 42.8488 275.424 43.0736 275.79 43.3827C276.043 43.6356 276.268 43.8884 276.409 44.1694C276.55 44.4504 276.634 44.7314 276.662 45.0404L276.184 45.2371C276.156 44.9281 276.071 44.6471 275.959 44.4223C275.846 44.1975 275.677 43.9727 275.48 43.776C275.058 43.3827 274.608 43.2422 274.13 43.2984C273.651 43.3546 273.173 43.6356 272.722 44.1413C272.272 44.6471 272.019 45.1247 271.991 45.6024C271.962 46.0801 272.159 46.5015 272.582 46.8949C272.807 47.0916 273.032 47.2321 273.257 47.3163C273.482 47.4006 273.792 47.4568 274.101 47.4849L273.961 47.9907C273.651 47.9907 273.342 47.9345 273.06 47.8221C272.779 47.7097 272.497 47.513 272.216 47.2883C271.878 46.9511 271.625 46.5858 271.512 46.1924Z" fill="black"/>
<path d="M275.649 49.5922L276.128 49.4236C276.156 49.7608 276.24 50.0418 276.353 50.2946C276.465 50.5475 276.662 50.8004 276.916 51.0533C277.197 51.3343 277.507 51.5028 277.76 51.559C278.041 51.6152 278.267 51.5309 278.492 51.3062C278.604 51.1938 278.661 51.0533 278.661 50.8847C278.661 50.7442 278.633 50.5756 278.548 50.407C278.464 50.2385 278.351 50.0137 278.182 49.7608C277.957 49.4236 277.788 49.1145 277.704 48.8617C277.619 48.6088 277.563 48.3559 277.563 48.103C277.591 47.8502 277.704 47.6254 277.929 47.4006C278.126 47.2039 278.379 47.0634 278.633 47.0072C278.914 46.951 279.167 46.9791 279.477 47.0915C279.758 47.2039 280.04 47.4006 280.321 47.6535C280.575 47.9063 280.772 48.1873 280.912 48.4683C281.053 48.7774 281.137 49.0584 281.137 49.3674L280.659 49.536C280.631 49.2269 280.575 48.946 280.462 48.6931C280.349 48.4402 280.18 48.2154 279.983 48.0187C279.702 47.7378 279.421 47.5692 279.139 47.5411C278.858 47.513 278.604 47.5973 278.407 47.794C278.239 47.9906 278.154 48.1873 278.21 48.4121C278.267 48.6369 278.407 48.946 278.604 49.2831C278.858 49.6765 279.027 49.9856 279.139 50.2385C279.252 50.4913 279.308 50.7161 279.308 50.969C279.308 51.2219 279.195 51.4466 278.97 51.6714C278.773 51.8681 278.52 52.0086 278.267 52.0648C278.013 52.121 277.732 52.0648 277.45 51.9524C277.169 51.84 276.888 51.6433 276.606 51.3624C275.987 50.8566 275.705 50.2385 275.649 49.5922Z" fill="black"/>
<path d="M280.631 55.1555C280.546 54.734 280.575 54.3407 280.743 53.9192C280.912 53.4977 281.194 53.1325 281.588 52.7391C281.982 52.3738 282.404 52.121 282.826 52.0086C283.248 51.8681 283.67 51.8681 284.064 52.0086C284.459 52.121 284.824 52.3738 285.162 52.711C285.415 52.9639 285.584 53.2449 285.697 53.5539C285.809 53.863 285.866 54.144 285.866 54.4531L285.387 54.5935C285.359 54.2564 285.303 53.9754 285.218 53.7506C285.134 53.5258 284.965 53.3011 284.768 53.0763C284.374 52.6548 283.952 52.4581 283.473 52.4862C282.995 52.5143 282.517 52.7391 282.01 53.2168C281.503 53.6663 281.222 54.144 281.166 54.6216C281.109 55.0993 281.278 55.5489 281.644 55.9703C281.841 56.167 282.066 56.3356 282.291 56.448C282.517 56.5604 282.798 56.6447 283.136 56.6728L282.939 57.1504C282.629 57.1223 282.348 57.0661 282.066 56.9257C281.785 56.7852 281.531 56.5885 281.278 56.3075C280.94 55.9422 280.743 55.5489 280.631 55.1555Z" fill="black"/>
<path d="M284.317 59.5668L288.23 56.1951L288.624 56.6446L285.105 59.6792L286.794 61.646L286.4 61.9832L284.317 59.5668Z" fill="black"/>
<path d="M287.948 63.8938L291.945 60.6626L292.311 61.1403L288.314 64.3715L287.948 63.8938Z" fill="black"/>
<path d="M296.476 66.4226L296.814 66.8721L292.705 69.991L292.423 69.6257L293.858 64.6524L290.537 67.1531L290.2 66.7035L294.309 63.5847L294.59 63.95L293.155 68.9233L296.476 66.4226Z" fill="black"/>
<path d="M294.45 72.4074L298.671 69.4291L299.009 69.9067L294.787 72.8851L294.45 72.4074Z" fill="black"/>
<path d="M297.208 75.9757C297.179 75.5543 297.292 75.1609 297.517 74.7676C297.742 74.3742 298.08 74.037 298.53 73.756C298.981 73.447 299.431 73.2784 299.853 73.2222C300.275 73.166 300.698 73.2222 301.063 73.4189C301.429 73.6156 301.767 73.8965 302.02 74.318C302.217 74.6271 302.358 74.908 302.414 75.2171C302.499 75.5262 302.499 75.8353 302.442 76.1443L301.936 76.2005C301.964 75.8915 301.964 75.5824 301.908 75.3295C301.851 75.0766 301.739 74.8237 301.598 74.599C301.289 74.1213 300.895 73.8684 300.416 73.8122C299.938 73.756 299.431 73.9246 298.868 74.2899C298.305 74.6552 297.939 75.0766 297.799 75.5262C297.658 75.9757 297.742 76.4534 298.052 76.931C298.221 77.1839 298.39 77.3525 298.615 77.5211C298.84 77.6897 299.093 77.8021 299.403 77.8864L299.15 78.3359C298.84 78.2797 298.559 78.1392 298.305 77.9426C298.052 77.7459 297.827 77.5211 297.63 77.212C297.376 76.8187 297.236 76.3972 297.208 75.9757Z" fill="black"/>
<path d="M300.416 80.3027L300.923 80.2746C300.866 80.6118 300.866 80.8927 300.923 81.1737C300.979 81.4547 301.092 81.7357 301.289 82.0447C301.514 82.41 301.739 82.6348 301.992 82.7472C302.245 82.8596 302.499 82.8315 302.752 82.691C302.893 82.6067 302.977 82.4943 303.034 82.3257C303.062 82.1852 303.062 82.0167 303.034 81.82C303.005 81.6233 302.921 81.3985 302.837 81.1175C302.696 80.7242 302.611 80.387 302.583 80.1341C302.527 79.8531 302.555 79.6003 302.64 79.3755C302.724 79.1507 302.893 78.954 303.146 78.7854C303.399 78.6449 303.653 78.5607 303.934 78.5888C304.216 78.6169 304.469 78.7011 304.722 78.8697C304.976 79.0383 305.201 79.2912 305.398 79.6284C305.595 79.9374 305.707 80.2465 305.764 80.5556C305.82 80.8647 305.82 81.1737 305.764 81.4828L305.257 81.539C305.313 81.2299 305.313 80.9209 305.257 80.668C305.201 80.4151 305.116 80.1341 304.947 79.9093C304.75 79.5722 304.497 79.3474 304.244 79.235C303.99 79.1226 303.709 79.1507 303.456 79.3193C303.231 79.4598 303.118 79.6284 303.118 79.8812C303.118 80.106 303.174 80.4432 303.287 80.8366C303.428 81.258 303.512 81.6233 303.568 81.8762C303.625 82.129 303.625 82.3819 303.54 82.6348C303.484 82.8596 303.315 83.0563 303.062 83.2248C302.808 83.3653 302.555 83.4496 302.274 83.4215C301.992 83.3934 301.739 83.3091 301.486 83.1125C301.232 82.9158 301.007 82.6629 300.81 82.3538C300.444 81.6233 300.275 80.9489 300.416 80.3027Z" fill="black"/>
<path d="M303.878 86.9056C303.878 86.4842 304.019 86.0908 304.272 85.7255C304.525 85.3603 304.891 85.0512 305.37 84.7983C305.848 84.5454 306.298 84.4049 306.749 84.3768C307.199 84.3487 307.593 84.4611 307.959 84.6578C308.325 84.8826 308.606 85.1917 308.86 85.6131C309.028 85.9222 309.141 86.2313 309.197 86.5404C309.254 86.8494 309.225 87.1585 309.141 87.4395L308.634 87.4676C308.691 87.1585 308.719 86.8494 308.691 86.5965C308.663 86.3437 308.578 86.0908 308.437 85.8379C308.156 85.3322 307.79 85.0512 307.312 84.9669C306.833 84.8826 306.298 84.995 305.707 85.3041C305.116 85.6412 304.722 86.0065 304.553 86.4561C304.385 86.9056 304.441 87.3833 304.694 87.8609C304.835 88.1138 305.004 88.3105 305.201 88.4791C305.398 88.6477 305.651 88.7882 305.961 88.9005L305.679 89.322C305.398 89.2377 305.116 89.0972 304.891 88.8725C304.638 88.6758 304.441 88.3948 304.272 88.0857C303.99 87.7485 303.878 87.3271 303.878 86.9056Z" fill="black"/>
<path d="M306.355 92.0756L310.971 89.7716L311.252 90.3055L307.087 92.3847L308.24 94.6887L307.79 94.9135L306.355 92.0756Z" fill="black"/>
<path d="M308.832 97.1613L313.504 94.9978L313.757 95.5317L309.085 97.6952L308.832 97.1613Z" fill="black"/>
<path d="M316.487 101.713L316.712 102.219L311.955 104.214L311.786 103.792L314.404 99.3248L310.576 100.926L310.351 100.421L315.108 98.4257L315.276 98.8471L312.659 103.315L316.487 101.713Z" fill="black"/>
<path d="M313.025 107.024L317.838 105.169L318.063 105.731L313.25 107.585L313.025 107.024Z" fill="black"/>
<path d="M314.855 111.154C314.939 110.732 315.136 110.395 315.446 110.058C315.755 109.749 316.178 109.496 316.684 109.328C317.191 109.159 317.669 109.075 318.119 109.131C318.542 109.187 318.936 109.356 319.245 109.609C319.555 109.89 319.808 110.255 319.949 110.704C320.061 111.042 320.118 111.379 320.118 111.688C320.118 111.997 320.033 112.306 319.921 112.587L319.414 112.531C319.527 112.222 319.583 111.941 319.611 111.688C319.639 111.435 319.583 111.182 319.47 110.901C319.273 110.367 318.964 110.002 318.514 109.833C318.063 109.665 317.528 109.693 316.881 109.918C316.234 110.142 315.783 110.451 315.558 110.873C315.305 111.294 315.277 111.772 315.474 112.306C315.558 112.587 315.699 112.812 315.868 113.008C316.037 113.205 316.262 113.374 316.543 113.542L316.177 113.907C315.896 113.767 315.671 113.57 315.474 113.346C315.277 113.093 315.108 112.812 314.995 112.474C314.798 111.997 314.77 111.575 314.855 111.154Z" fill="black"/>
<path d="M316.881 116.155L317.387 116.239C317.247 116.549 317.19 116.83 317.162 117.11C317.162 117.391 317.19 117.701 317.303 118.038C317.415 118.431 317.584 118.712 317.81 118.881C318.035 119.049 318.288 119.077 318.569 118.993C318.738 118.937 318.851 118.853 318.935 118.712C319.02 118.572 319.048 118.431 319.048 118.234C319.048 118.038 319.048 117.813 319.02 117.504C318.992 117.082 318.992 116.745 319.02 116.492C319.048 116.211 319.132 115.987 319.273 115.762C319.414 115.537 319.611 115.397 319.92 115.312C320.202 115.228 320.483 115.228 320.737 115.312C320.99 115.397 321.243 115.565 321.44 115.79C321.637 116.015 321.806 116.324 321.919 116.689C322.031 117.026 322.059 117.363 322.059 117.701C322.059 118.038 321.975 118.319 321.834 118.6L321.328 118.515C321.468 118.234 321.525 117.953 321.553 117.672C321.581 117.391 321.525 117.139 321.44 116.858C321.328 116.464 321.159 116.211 320.934 116.043C320.708 115.874 320.455 115.846 320.145 115.93C319.892 116.015 319.751 116.155 319.667 116.38C319.611 116.605 319.583 116.942 319.611 117.335C319.639 117.785 319.639 118.15 319.639 118.431C319.639 118.712 319.554 118.937 319.442 119.162C319.329 119.386 319.104 119.527 318.823 119.611C318.541 119.695 318.288 119.695 318.035 119.611C317.781 119.527 317.556 119.358 317.359 119.134C317.162 118.881 316.993 118.6 316.909 118.206C316.571 117.42 316.599 116.717 316.881 116.155Z" fill="black"/>
<path d="M318.626 123.376C318.739 122.983 318.964 122.618 319.302 122.337C319.639 122.056 320.062 121.831 320.596 121.719C321.131 121.606 321.61 121.55 322.032 121.634C322.454 121.719 322.82 121.915 323.129 122.196C323.439 122.477 323.636 122.871 323.749 123.348C323.833 123.685 323.861 124.023 323.833 124.332C323.805 124.641 323.72 124.95 323.552 125.203L323.045 125.09C323.186 124.809 323.27 124.528 323.298 124.275C323.326 124.023 323.298 123.742 323.242 123.489C323.101 122.955 322.82 122.561 322.37 122.365C321.947 122.168 321.384 122.14 320.737 122.309C320.09 122.477 319.611 122.758 319.33 123.151C319.048 123.545 318.992 124.023 319.133 124.556C319.217 124.837 319.302 125.09 319.471 125.287C319.639 125.484 319.836 125.68 320.09 125.877L319.696 126.214C319.442 126.046 319.217 125.849 319.02 125.596C318.851 125.343 318.711 125.034 318.626 124.697C318.514 124.219 318.514 123.798 318.626 123.376Z" fill="black"/>
<path d="M319.724 129.024L324.762 127.928L324.902 128.518L320.371 129.502L320.906 132.03L320.399 132.143L319.724 129.024Z" fill="black"/>
<path d="M320.877 134.559L325.943 133.604L326.056 134.194L320.99 135.149L320.877 134.559Z" fill="black"/>
<path d="M327.154 140.825L327.238 141.387L322.144 142.146L322.088 141.696L325.719 138.015L321.609 138.633L321.525 138.071L326.619 137.313L326.675 137.762L323.045 141.443L327.154 140.825Z" fill="black"/>
<path d="M322.51 145.124L327.632 144.534L327.689 145.124L322.566 145.714L322.51 145.124Z" fill="black"/>
<path d="M323.242 149.591C323.41 149.226 323.692 148.917 324.086 148.692C324.48 148.467 324.93 148.327 325.465 148.299C326 148.271 326.478 148.299 326.901 148.467C327.323 148.636 327.632 148.889 327.886 149.226C328.139 149.563 328.28 149.985 328.308 150.462C328.336 150.828 328.308 151.137 328.224 151.446C328.139 151.755 327.998 152.036 327.801 152.261L327.323 152.064C327.52 151.811 327.632 151.53 327.717 151.305C327.801 151.052 327.801 150.799 327.801 150.518C327.745 149.957 327.52 149.535 327.126 149.254C326.732 148.973 326.197 148.861 325.521 148.917C324.846 148.973 324.339 149.17 324.002 149.507C323.664 149.844 323.523 150.294 323.551 150.856C323.579 151.137 323.636 151.389 323.748 151.642C323.861 151.867 324.03 152.092 324.255 152.345L323.804 152.598C323.579 152.401 323.382 152.148 323.242 151.867C323.101 151.586 323.016 151.249 322.988 150.912C322.988 150.378 323.045 149.957 323.242 149.591Z" fill="black"/>
<path d="M323.973 154.902L324.452 155.127C324.255 155.38 324.114 155.661 324.03 155.913C323.945 156.194 323.917 156.503 323.945 156.841C323.973 157.262 324.058 157.571 324.227 157.796C324.396 158.021 324.621 158.105 324.93 158.105C325.099 158.105 325.24 158.049 325.353 157.936C325.465 157.824 325.521 157.684 325.578 157.515C325.634 157.346 325.69 157.093 325.747 156.784C325.831 156.391 325.915 156.054 326 155.801C326.084 155.548 326.225 155.323 326.422 155.155C326.619 154.986 326.844 154.902 327.154 154.874C327.435 154.874 327.717 154.93 327.942 155.07C328.167 155.211 328.364 155.436 328.505 155.717C328.646 155.998 328.73 156.335 328.73 156.7C328.758 157.065 328.702 157.403 328.617 157.712C328.533 158.021 328.364 158.302 328.167 158.526L327.689 158.33C327.886 158.077 328.026 157.824 328.111 157.571C328.195 157.318 328.223 157.037 328.223 156.756C328.195 156.363 328.111 156.054 327.942 155.829C327.773 155.604 327.52 155.52 327.21 155.52C326.957 155.52 326.76 155.632 326.647 155.857C326.535 156.054 326.422 156.363 326.366 156.784C326.281 157.234 326.197 157.571 326.112 157.852C326.028 158.105 325.915 158.33 325.747 158.498C325.578 158.667 325.324 158.779 325.043 158.779C324.761 158.779 324.48 158.723 324.255 158.583C324.03 158.442 323.861 158.217 323.72 157.936C323.579 157.655 323.523 157.318 323.495 156.925C323.382 156.054 323.551 155.408 323.973 154.902Z" fill="black"/>
<path d="M323.861 162.376C324.058 162.01 324.367 161.729 324.761 161.533C325.155 161.336 325.634 161.224 326.168 161.224C326.703 161.224 327.182 161.308 327.576 161.477C327.97 161.673 328.279 161.926 328.504 162.291C328.73 162.657 328.842 163.078 328.842 163.556C328.842 163.921 328.786 164.23 328.701 164.539C328.589 164.848 328.448 165.101 328.223 165.326L327.744 165.101C327.941 164.848 328.11 164.595 328.195 164.371C328.279 164.146 328.336 163.865 328.307 163.584C328.307 163.022 328.11 162.572 327.744 162.291C327.379 161.982 326.844 161.842 326.168 161.842C325.493 161.842 324.958 162.01 324.62 162.319C324.255 162.629 324.086 163.078 324.086 163.64C324.086 163.921 324.142 164.202 324.226 164.427C324.311 164.652 324.48 164.904 324.705 165.157L324.255 165.382C324.029 165.157 323.861 164.904 323.748 164.623C323.635 164.342 323.579 164.005 323.579 163.64C323.579 163.162 323.664 162.741 323.861 162.376Z" fill="black"/>
<path d="M323.58 168.08L328.73 168.248L328.702 168.838L324.058 168.698L323.974 171.283L323.467 171.255L323.58 168.08Z" fill="black"/>
<path d="M323.355 173.755L328.505 174.064L328.477 174.654L323.326 174.345L323.355 173.755Z" fill="black"/>
<path d="M327.913 181.37L327.857 181.932L322.735 181.454L322.791 181.005L327.21 178.307L323.073 177.914L323.129 177.352L328.251 177.829L328.195 178.279L323.776 180.976L327.913 181.37Z" fill="black"/>
<path d="M322.341 184.404L327.463 185.05L327.379 185.64L322.256 184.994L322.341 184.404Z" fill="black"/>
<path d="M321.975 188.9C322.228 188.591 322.594 188.366 323.016 188.225C323.439 188.085 323.917 188.085 324.452 188.169C324.986 188.253 325.437 188.422 325.803 188.675C326.169 188.928 326.422 189.237 326.563 189.63C326.703 190.024 326.76 190.445 326.675 190.923C326.619 191.26 326.506 191.597 326.366 191.85C326.197 192.131 326 192.356 325.774 192.524L325.352 192.215C325.606 191.99 325.774 191.794 325.915 191.569C326.056 191.344 326.14 191.091 326.169 190.81C326.253 190.248 326.14 189.799 325.831 189.433C325.521 189.068 325.015 188.843 324.367 188.731C323.692 188.619 323.157 188.703 322.735 188.928C322.313 189.181 322.059 189.574 321.975 190.136C321.919 190.417 321.919 190.698 321.975 190.951C322.031 191.204 322.144 191.457 322.313 191.738L321.834 191.878C321.665 191.625 321.525 191.344 321.468 191.035C321.412 190.726 321.412 190.389 321.468 190.052C321.553 189.63 321.722 189.209 321.975 188.9Z" fill="black"/>
<path d="M321.384 194.238L321.778 194.547C321.525 194.744 321.328 194.969 321.159 195.222C321.018 195.475 320.905 195.756 320.849 196.093C320.765 196.486 320.793 196.823 320.906 197.076C321.018 197.329 321.215 197.47 321.497 197.554C321.665 197.582 321.806 197.554 321.947 197.47C322.059 197.385 322.172 197.273 322.285 197.104C322.369 196.936 322.482 196.739 322.622 196.458C322.791 196.093 322.96 195.784 323.101 195.559C323.242 195.334 323.439 195.166 323.664 195.025C323.889 194.913 324.142 194.885 324.452 194.941C324.733 194.997 324.987 195.137 325.184 195.334C325.381 195.531 325.493 195.784 325.578 196.093C325.634 196.402 325.634 196.739 325.55 197.104C325.465 197.441 325.353 197.779 325.184 198.06C325.015 198.341 324.79 198.565 324.564 198.734L324.17 198.425C324.424 198.228 324.621 198.003 324.761 197.779C324.902 197.554 325.015 197.301 325.071 197.02C325.155 196.627 325.127 196.318 325.015 196.037C324.902 195.784 324.677 195.615 324.396 195.559C324.142 195.503 323.917 195.559 323.776 195.727C323.608 195.896 323.439 196.177 323.27 196.542C323.073 196.964 322.904 197.273 322.763 197.498C322.622 197.722 322.454 197.919 322.228 198.031C322.031 198.172 321.778 198.2 321.468 198.144C321.187 198.088 320.934 197.947 320.765 197.779C320.568 197.582 320.455 197.329 320.399 197.02C320.343 196.711 320.343 196.374 320.427 196.008C320.54 195.222 320.877 194.632 321.384 194.238Z" fill="black"/>
<path d="M319.499 201.459C319.78 201.15 320.146 200.954 320.596 200.869C321.018 200.785 321.497 200.785 322.032 200.925C322.566 201.066 322.989 201.263 323.326 201.544C323.664 201.825 323.889 202.162 324.002 202.555C324.114 202.949 324.114 203.398 324.002 203.876C323.917 204.213 323.777 204.522 323.608 204.775C323.439 205.028 323.214 205.252 322.96 205.421L322.566 205.084C322.82 204.887 323.045 204.691 323.186 204.494C323.326 204.297 323.439 204.044 323.523 203.763C323.664 203.201 323.58 202.752 323.298 202.358C323.017 201.965 322.538 201.684 321.891 201.544C321.244 201.375 320.681 201.403 320.259 201.628C319.836 201.853 319.555 202.218 319.414 202.78C319.358 203.061 319.33 203.314 319.358 203.567C319.386 203.82 319.47 204.1 319.611 204.381L319.105 204.494C318.936 204.241 318.851 203.932 318.823 203.623C318.795 203.314 318.823 202.977 318.908 202.639C318.992 202.134 319.189 201.768 319.499 201.459Z" fill="black"/>
<path d="M317.81 206.938L322.763 208.371L322.594 208.933L318.119 207.641L317.415 210.114L316.937 209.973L317.81 206.938Z" fill="black"/>
<path d="M316.177 212.361L321.103 213.935L320.906 214.497L315.98 212.923L316.177 212.361Z" fill="black"/>
<path d="M318.711 220.847L318.514 221.381L313.645 219.639L313.813 219.217L318.767 217.7L314.855 216.295L315.052 215.761L319.921 217.503L319.752 217.925L314.798 219.442L318.711 220.847Z" fill="black"/>
<path d="M312.603 222.42L317.388 224.33L317.163 224.892L312.378 222.982L312.603 222.42Z" fill="black"/>
<path d="M311.111 226.691C311.449 226.438 311.843 226.326 312.293 226.298C312.744 226.27 313.194 226.382 313.701 226.607C314.207 226.832 314.601 227.084 314.883 227.422C315.164 227.759 315.333 228.124 315.389 228.545C315.446 228.967 315.361 229.388 315.164 229.838C315.024 230.175 314.855 230.428 314.63 230.681C314.404 230.906 314.151 231.074 313.87 231.187L313.532 230.793C313.813 230.653 314.067 230.484 314.235 230.316C314.404 230.147 314.573 229.922 314.686 229.641C314.911 229.136 314.911 228.658 314.714 228.208C314.517 227.759 314.095 227.422 313.476 227.169C312.856 226.888 312.322 226.832 311.843 226.972C311.365 227.113 311.027 227.45 310.802 227.955C310.689 228.208 310.633 228.489 310.605 228.742C310.577 228.995 310.633 229.276 310.717 229.585L310.211 229.613C310.098 229.332 310.042 229.023 310.07 228.714C310.098 228.405 310.154 228.068 310.323 227.759C310.52 227.309 310.774 226.944 311.111 226.691Z" fill="black"/>
<path d="M309.226 231.749L309.535 232.17C309.226 232.31 308.972 232.479 308.775 232.676C308.578 232.872 308.409 233.125 308.24 233.434C308.072 233.8 307.987 234.137 308.043 234.39C308.1 234.671 308.24 234.867 308.522 234.98C308.663 235.064 308.831 235.064 308.972 235.008C309.113 234.952 309.254 234.867 309.394 234.727C309.535 234.586 309.704 234.418 309.873 234.165C310.126 233.856 310.351 233.603 310.577 233.406C310.802 233.21 310.999 233.097 311.252 233.041C311.505 232.985 311.759 233.013 312.04 233.153C312.293 233.294 312.49 233.462 312.631 233.687C312.772 233.912 312.828 234.193 312.828 234.502C312.828 234.811 312.716 235.148 312.575 235.485C312.406 235.794 312.237 236.075 311.984 236.3C311.73 236.525 311.477 236.694 311.196 236.806L310.886 236.413C311.168 236.272 311.421 236.132 311.618 235.935C311.815 235.738 311.984 235.514 312.096 235.261C312.265 234.895 312.322 234.586 312.265 234.305C312.209 234.024 312.04 233.828 311.787 233.687C311.562 233.575 311.336 233.575 311.139 233.715C310.942 233.828 310.689 234.052 310.436 234.39C310.154 234.755 309.901 235.008 309.704 235.204C309.507 235.401 309.31 235.514 309.057 235.598C308.803 235.682 308.578 235.654 308.297 235.514C308.043 235.373 307.846 235.204 307.706 234.98C307.565 234.755 307.509 234.474 307.537 234.165C307.565 233.856 307.649 233.519 307.818 233.181C308.156 232.479 308.635 232.001 309.226 231.749Z" fill="black"/>
<path d="M305.595 238.267C305.961 238.043 306.355 237.958 306.805 237.958C307.255 237.986 307.706 238.099 308.184 238.38C308.663 238.661 309.029 238.942 309.282 239.307C309.535 239.672 309.676 240.038 309.704 240.459C309.732 240.88 309.62 241.302 309.394 241.723C309.226 242.032 309.029 242.285 308.775 242.51C308.55 242.707 308.269 242.875 307.987 242.96L307.678 242.538C307.987 242.426 308.24 242.285 308.409 242.117C308.606 241.948 308.775 241.751 308.916 241.499C309.169 240.993 309.226 240.515 309.057 240.094C308.888 239.644 308.494 239.279 307.903 238.942C307.312 238.633 306.777 238.52 306.298 238.605C305.82 238.717 305.454 238.998 305.201 239.504C305.06 239.757 304.976 240.009 304.947 240.262C304.919 240.515 304.948 240.796 305.004 241.133L304.497 241.105C304.413 240.824 304.385 240.515 304.441 240.206C304.497 239.897 304.582 239.588 304.75 239.279C304.947 238.801 305.257 238.492 305.595 238.267Z" fill="black"/>
<path d="M302.612 243.156L307.058 245.769L306.749 246.275L302.752 243.943L301.458 246.163L301.007 245.91L302.612 243.156Z" fill="black"/>
<path d="M299.685 248.017L304.047 250.743L303.737 251.248L299.375 248.523L299.685 248.017Z" fill="black"/>
<path d="M300.079 256.868L299.769 257.345L295.491 254.479L295.744 254.086L300.923 253.833L297.489 251.529L297.799 251.052L302.077 253.917L301.824 254.311L296.645 254.564L300.079 256.868Z" fill="black"/>
<path d="M293.746 256.896L297.939 259.902L297.602 260.38L293.408 257.373L293.746 256.896Z" fill="black"/>
<path d="M291.27 260.661C291.664 260.492 292.058 260.464 292.508 260.576C292.93 260.661 293.381 260.886 293.803 261.195C294.225 261.532 294.535 261.897 294.732 262.29C294.929 262.684 294.985 263.077 294.957 263.499C294.9 263.92 294.732 264.313 294.422 264.707C294.197 264.988 293.972 265.212 293.69 265.381C293.409 265.55 293.127 265.662 292.818 265.69L292.592 265.241C292.902 265.184 293.183 265.072 293.409 264.932C293.634 264.791 293.831 264.622 294 264.398C294.337 263.948 294.478 263.499 294.366 263.021C294.253 262.543 293.943 262.122 293.409 261.7C292.874 261.279 292.367 261.082 291.889 261.11C291.41 261.138 290.988 261.363 290.65 261.813C290.482 262.038 290.341 262.29 290.285 262.515C290.2 262.768 290.172 263.049 290.2 263.358L289.693 263.246C289.665 262.937 289.693 262.628 289.778 262.347C289.862 262.066 290.031 261.757 290.256 261.476C290.538 261.11 290.876 260.829 291.27 260.661Z" fill="black"/>
<path d="M288.202 265.1L288.399 265.578C288.061 265.634 287.78 265.747 287.555 265.887C287.301 266.028 287.076 266.224 286.851 266.505C286.598 266.814 286.429 267.123 286.429 267.404C286.401 267.685 286.513 267.91 286.738 268.107C286.879 268.219 287.02 268.275 287.161 268.247C287.301 268.247 287.47 268.191 287.639 268.079C287.808 267.994 288.005 267.854 288.258 267.657C288.596 267.404 288.877 267.236 289.103 267.095C289.356 266.955 289.581 266.899 289.834 266.899C290.088 266.899 290.313 267.011 290.566 267.208C290.791 267.404 290.932 267.629 291.016 267.882C291.101 268.135 291.073 268.416 290.988 268.725C290.904 269.034 290.735 269.315 290.482 269.596C290.256 269.877 290.003 270.074 289.722 270.242C289.44 270.411 289.159 270.495 288.849 270.523L288.652 270.045C288.962 269.989 289.243 269.905 289.468 269.764C289.693 269.624 289.919 269.455 290.116 269.231C290.369 268.922 290.51 268.641 290.538 268.36C290.566 268.079 290.453 267.854 290.228 267.657C290.031 267.489 289.806 267.432 289.581 267.517C289.356 267.601 289.074 267.741 288.737 267.994C288.371 268.275 288.061 268.472 287.836 268.612C287.611 268.753 287.358 268.837 287.104 268.837C286.851 268.837 286.626 268.753 286.401 268.556C286.176 268.36 286.035 268.135 285.95 267.882C285.894 267.629 285.894 267.348 285.979 267.039C286.063 266.73 286.232 266.449 286.485 266.14C286.964 265.55 287.555 265.185 288.202 265.1Z" fill="black"/>
<path d="M283.08 270.523C283.474 270.411 283.896 270.411 284.318 270.523C284.74 270.636 285.162 270.889 285.556 271.254C285.95 271.619 286.232 272.012 286.401 272.406C286.57 272.799 286.598 273.221 286.513 273.642C286.429 274.063 286.232 274.429 285.894 274.794C285.641 275.047 285.387 275.272 285.106 275.412C284.825 275.553 284.543 275.637 284.234 275.665L284.037 275.187C284.346 275.131 284.628 275.075 284.853 274.963C285.078 274.85 285.303 274.682 285.5 274.485C285.894 274.063 286.035 273.614 285.979 273.136C285.922 272.659 285.641 272.209 285.134 271.731C284.628 271.282 284.149 271.029 283.671 271.029C283.192 271.001 282.77 271.198 282.376 271.619C282.179 271.844 282.038 272.069 281.954 272.293C281.869 272.518 281.813 272.827 281.785 273.136L281.278 272.996C281.278 272.687 281.335 272.378 281.447 272.097C281.56 271.816 281.757 271.535 281.982 271.254C282.32 270.889 282.686 270.664 283.08 270.523Z" fill="black"/>
<path d="M278.97 274.541L282.657 278.138L282.235 278.559L278.914 275.3L277.113 277.126L276.747 276.761L278.97 274.541Z" fill="black"/>
<path d="M274.973 278.559L278.548 282.268L278.126 282.689L274.551 278.981L274.973 278.559Z" fill="black"/>
<path d="M273.144 287.241L272.722 287.607L269.26 283.785L269.598 283.476L274.692 284.488L271.906 281.397L272.328 281.032L275.79 284.853L275.452 285.162L270.358 284.151L273.144 287.241Z" fill="black"/>
<path d="M267.008 285.696L270.329 289.63L269.879 290.023L266.558 286.089L267.008 285.696Z" fill="black"/>
<path d="M263.688 288.787C264.11 288.73 264.504 288.787 264.898 288.983C265.292 289.18 265.658 289.489 265.996 289.91C266.333 290.332 266.53 290.753 266.643 291.203C266.727 291.624 266.699 292.046 266.559 292.439C266.418 292.832 266.136 293.17 265.742 293.479C265.461 293.703 265.18 293.844 264.87 293.956C264.56 294.041 264.251 294.097 263.969 294.041L263.857 293.535C264.194 293.535 264.476 293.507 264.701 293.451C264.954 293.366 265.179 293.254 265.405 293.085C265.855 292.748 266.08 292.327 266.108 291.849C266.136 291.371 265.911 290.866 265.517 290.332C265.095 289.798 264.645 289.489 264.194 289.377C263.716 289.292 263.266 289.405 262.815 289.742C262.59 289.91 262.421 290.107 262.281 290.332C262.14 290.557 262.055 290.809 261.999 291.147L261.549 290.922C261.577 290.613 261.69 290.332 261.858 290.051C262.027 289.77 262.252 289.545 262.534 289.32C262.872 289.011 263.266 288.843 263.688 288.787Z" fill="black"/>
<path d="M259.634 292.327L259.719 292.833C259.381 292.805 259.1 292.833 258.818 292.917C258.537 293.001 258.284 293.142 257.974 293.339C257.636 293.592 257.439 293.844 257.327 294.097C257.242 294.35 257.27 294.603 257.467 294.856C257.58 294.996 257.692 295.081 257.833 295.109C257.974 295.137 258.143 295.109 258.34 295.081C258.509 295.024 258.762 294.94 259.043 294.828C259.409 294.659 259.747 294.547 260 294.491C260.282 294.434 260.535 294.434 260.76 294.491C261.014 294.547 261.211 294.715 261.38 294.968C261.548 295.193 261.633 295.474 261.661 295.727C261.661 296.008 261.605 296.261 261.436 296.542C261.267 296.823 261.042 297.048 260.732 297.272C260.451 297.469 260.141 297.638 259.832 297.722C259.522 297.806 259.212 297.834 258.903 297.778L258.818 297.272C259.128 297.3 259.438 297.272 259.691 297.216C259.944 297.16 260.197 297.019 260.423 296.851C260.76 296.626 260.957 296.373 261.042 296.092C261.126 295.811 261.07 295.558 260.901 295.334C260.76 295.137 260.563 295.024 260.31 295.024C260.057 295.024 259.747 295.109 259.381 295.277C258.959 295.446 258.621 295.586 258.368 295.643C258.115 295.727 257.861 295.727 257.608 295.699C257.355 295.643 257.158 295.502 256.989 295.249C256.82 295.024 256.736 294.772 256.736 294.491C256.736 294.21 256.82 293.957 256.961 293.704C257.13 293.451 257.355 293.198 257.664 292.973C258.34 292.44 258.987 292.243 259.634 292.327Z" fill="black"/>
<path d="M253.33 296.345C253.752 296.317 254.146 296.429 254.54 296.654C254.934 296.879 255.272 297.216 255.554 297.665C255.863 298.115 256.032 298.565 256.088 298.986C256.145 299.407 256.088 299.829 255.891 300.194C255.694 300.559 255.413 300.897 255.019 301.15C254.709 301.346 254.428 301.487 254.118 301.543C253.809 301.627 253.499 301.627 253.189 301.571L253.133 301.065C253.443 301.093 253.752 301.093 254.006 301.037C254.259 300.981 254.512 300.869 254.737 300.728C255.216 300.419 255.469 300.026 255.526 299.548C255.582 299.07 255.413 298.565 255.047 298.003C254.681 297.441 254.259 297.103 253.781 296.963C253.33 296.822 252.852 296.907 252.373 297.216C252.12 297.384 251.951 297.553 251.782 297.778C251.642 297.975 251.529 298.255 251.416 298.565L250.966 298.312C251.022 298.003 251.163 297.722 251.332 297.469C251.501 297.216 251.754 296.991 252.064 296.794C252.514 296.513 252.908 296.373 253.33 296.345Z" fill="black"/>
<path d="M248.377 299.239L251.051 303.622L250.544 303.931L248.124 299.969L245.929 301.318L245.675 300.868L248.377 299.239Z" fill="black"/>
<path d="M243.508 302.133L246.069 306.6L245.534 306.909L242.973 302.442L243.508 302.133Z" fill="black"/>
<path d="M239.624 310.112L239.117 310.365L236.725 305.813L237.119 305.589L241.791 307.808L239.849 304.156L240.355 303.903L242.748 308.455L242.354 308.679L237.654 306.46L239.624 310.112Z" fill="black"/>
<path d="M234.051 307.134L236.303 311.77L235.768 312.023L233.516 307.387L234.051 307.134Z" fill="black"/>
<path d="M230.054 309.298C230.476 309.354 230.842 309.522 231.18 309.803C231.518 310.084 231.799 310.478 232.024 310.983C232.25 311.489 232.334 311.939 232.334 312.388C232.306 312.838 232.193 313.203 231.94 313.568C231.687 313.934 231.349 314.187 230.899 314.383C230.561 314.524 230.251 314.608 229.942 314.636C229.632 314.664 229.323 314.608 229.041 314.496L229.069 313.99C229.379 314.074 229.66 314.13 229.914 314.102C230.167 314.102 230.42 314.018 230.702 313.906C231.208 313.681 231.546 313.344 231.687 312.866C231.827 312.416 231.743 311.855 231.462 311.264C231.18 310.646 230.842 310.225 230.392 310.028C229.942 309.831 229.491 309.831 228.957 310.056C228.703 310.169 228.478 310.309 228.281 310.506C228.112 310.674 227.943 310.927 227.803 311.208L227.409 310.871C227.521 310.59 227.69 310.337 227.915 310.112C228.14 309.888 228.422 309.719 228.732 309.55C229.21 309.326 229.66 309.241 230.054 309.298Z" fill="black"/>
<path d="M225.27 311.742L225.214 312.248C224.904 312.136 224.595 312.108 224.313 312.108C224.032 312.108 223.722 312.192 223.412 312.332C223.018 312.473 222.765 312.67 222.624 312.922C222.484 313.147 222.455 313.4 222.568 313.681C222.624 313.85 222.737 313.962 222.878 314.018C223.018 314.074 223.187 314.103 223.356 314.103C223.525 314.103 223.778 314.074 224.088 314.018C224.482 313.962 224.848 313.934 225.101 313.934C225.383 313.934 225.636 313.99 225.833 314.103C226.058 314.215 226.227 314.412 226.34 314.721C226.452 315.002 226.48 315.255 226.424 315.536C226.368 315.816 226.227 316.041 226.002 316.266C225.777 316.491 225.495 316.659 225.157 316.8C224.82 316.94 224.51 316.997 224.172 317.025C223.835 317.025 223.553 316.968 223.272 316.856L223.3 316.35C223.609 316.463 223.891 316.491 224.172 316.491C224.454 316.491 224.707 316.435 224.989 316.322C225.354 316.182 225.608 315.985 225.777 315.732C225.917 315.479 225.946 315.226 225.833 314.945C225.749 314.693 225.58 314.552 225.326 314.524C225.101 314.468 224.763 314.496 224.369 314.552C223.919 314.608 223.553 314.664 223.3 314.664C223.018 314.664 222.793 314.636 222.568 314.524C222.343 314.412 222.174 314.215 222.061 313.934C221.949 313.653 221.921 313.4 222.005 313.147C222.061 312.894 222.202 312.641 222.427 312.445C222.653 312.22 222.934 312.051 223.3 311.911C223.975 311.546 224.651 311.518 225.27 311.742Z" fill="black"/>
<path d="M218.178 314.102C218.6 314.186 218.938 314.383 219.275 314.692C219.613 315.001 219.838 315.423 220.007 315.929C220.176 316.434 220.261 316.912 220.204 317.333C220.148 317.755 219.979 318.148 219.726 318.457C219.444 318.766 219.078 319.019 218.628 319.188C218.29 319.3 217.953 319.357 217.643 319.357C217.333 319.357 217.024 319.272 216.742 319.16L216.799 318.654C217.108 318.766 217.39 318.823 217.643 318.851C217.896 318.851 218.15 318.823 218.431 318.71C218.966 318.514 219.304 318.204 219.501 317.755C219.67 317.305 219.641 316.771 219.416 316.125C219.191 315.479 218.881 315.058 218.459 314.805C218.037 314.552 217.559 314.524 217.024 314.72C216.742 314.805 216.517 314.945 216.32 315.114C216.123 315.282 215.954 315.507 215.786 315.788L215.42 315.423C215.56 315.142 215.757 314.917 215.983 314.72C216.236 314.524 216.517 314.355 216.855 314.243C217.333 314.046 217.784 314.018 218.178 314.102Z" fill="black"/>
<path d="M212.661 315.676L214.181 320.593L213.618 320.761L212.239 316.322L209.762 317.081L209.622 316.603L212.661 315.676Z" fill="black"/>
<path d="M207.229 317.278L208.608 322.251L208.017 322.419L206.638 317.446L207.229 317.278Z" fill="black"/>
<path d="M201.488 324.077L200.953 324.218L199.743 319.216L200.193 319.104L204.189 322.419L203.233 318.401L203.767 318.261L204.978 323.262L204.527 323.375L200.531 320.059L201.488 324.077Z" fill="black"/>
<path d="M196.816 319.806L197.857 324.864L197.266 324.976L196.225 319.919L196.816 319.806Z" fill="black"/>
<path d="M192.425 320.93C192.819 321.071 193.129 321.324 193.41 321.689C193.664 322.054 193.833 322.504 193.945 323.037C194.03 323.571 194.03 324.049 193.889 324.47C193.776 324.892 193.551 325.229 193.213 325.51C192.904 325.791 192.482 325.96 192.003 326.044C191.665 326.1 191.328 326.1 191.018 326.044C190.709 325.988 190.427 325.875 190.174 325.707L190.314 325.201C190.596 325.37 190.849 325.482 191.103 325.51C191.356 325.566 191.609 325.566 191.919 325.51C192.482 325.426 192.876 325.173 193.129 324.751C193.382 324.33 193.439 323.796 193.326 323.122C193.213 322.447 192.96 321.97 192.594 321.661C192.228 321.352 191.778 321.239 191.215 321.352C190.934 321.408 190.68 321.492 190.455 321.633C190.23 321.773 190.033 321.942 189.808 322.195L189.498 321.773C189.667 321.52 189.892 321.324 190.174 321.155C190.455 320.986 190.765 320.874 191.103 320.818C191.609 320.733 192.031 320.762 192.425 320.93Z" fill="black"/>
<path d="M187.162 322.111L186.993 322.588C186.712 322.42 186.43 322.279 186.149 322.223C185.868 322.167 185.558 322.167 185.22 322.195C184.798 322.251 184.517 322.363 184.291 322.56C184.094 322.757 184.01 322.982 184.038 323.291C184.066 323.459 184.123 323.6 184.263 323.684C184.376 323.768 184.545 323.853 184.714 323.881C184.882 323.909 185.136 323.965 185.445 323.993C185.868 324.021 186.205 324.077 186.459 324.162C186.712 324.218 186.937 324.358 187.134 324.527C187.303 324.695 187.416 324.92 187.472 325.229C187.5 325.51 187.472 325.791 187.331 326.044C187.219 326.297 187.022 326.494 186.74 326.662C186.487 326.831 186.149 326.915 185.783 326.971C185.417 327.028 185.079 326.999 184.77 326.943C184.46 326.859 184.179 326.747 183.926 326.578L184.094 326.1C184.376 326.269 184.629 326.409 184.882 326.466C185.136 326.522 185.417 326.55 185.699 326.494C186.093 326.438 186.402 326.325 186.599 326.128C186.796 325.932 186.881 325.679 186.853 325.398C186.824 325.145 186.684 324.948 186.487 324.864C186.262 324.752 185.952 324.696 185.53 324.639C185.079 324.583 184.714 324.527 184.46 324.471C184.207 324.415 183.982 324.302 183.785 324.162C183.588 323.993 183.475 323.768 183.447 323.487C183.419 323.206 183.447 322.925 183.588 322.701C183.7 322.476 183.897 322.279 184.179 322.111C184.46 321.942 184.77 321.858 185.164 321.801C185.98 321.605 186.627 321.745 187.162 322.111Z" fill="black"/>
<path d="M179.732 322.644C180.098 322.813 180.407 323.094 180.633 323.487C180.858 323.852 180.998 324.33 181.055 324.864C181.111 325.398 181.055 325.875 180.886 326.297C180.717 326.718 180.492 327.027 180.126 327.28C179.788 327.533 179.366 327.674 178.888 327.702C178.522 327.73 178.212 327.702 177.902 327.618C177.593 327.533 177.311 327.393 177.086 327.196L177.283 326.718C177.537 326.915 177.818 327.027 178.043 327.112C178.297 327.196 178.55 327.196 178.831 327.168C179.394 327.112 179.816 326.887 180.098 326.494C180.379 326.1 180.492 325.566 180.407 324.892C180.351 324.218 180.154 323.712 179.816 323.375C179.479 323.038 179.028 322.897 178.465 322.953C178.184 322.981 177.931 323.038 177.677 323.15C177.452 323.262 177.227 323.431 177.002 323.656L176.749 323.206C176.946 322.981 177.199 322.785 177.48 322.644C177.762 322.504 178.1 322.419 178.437 322.391C178.916 322.391 179.338 322.448 179.732 322.644Z" fill="black"/>
<path d="M173.991 322.813L174.244 327.955L173.653 327.983L173.428 323.347L170.839 323.487L170.811 322.982L173.991 322.813Z" fill="black"/>
<path d="M168.333 323.065L168.446 328.207H167.855L167.742 323.065H168.333Z" fill="black"/>
<path d="M161.1 328.207H160.538L160.622 323.065H161.072L164.112 327.252L164.168 323.122H164.731L164.647 328.263H164.196L161.157 324.077L161.1 328.207Z" fill="black"/>
<path d="M157.61 322.953L157.385 328.095L156.794 328.067L157.019 322.925L157.61 322.953Z" fill="black"/>
<path d="M153.079 322.981C153.417 323.206 153.67 323.543 153.839 323.964C154.008 324.386 154.064 324.864 154.008 325.397C153.979 325.931 153.839 326.409 153.614 326.774C153.388 327.139 153.079 327.42 152.713 327.617C152.347 327.814 151.897 327.87 151.418 327.842C151.052 327.814 150.743 327.73 150.461 327.617C150.18 327.505 149.927 327.308 149.729 327.083L149.983 326.634C150.208 326.858 150.433 327.027 150.686 327.139C150.94 327.252 151.165 327.308 151.474 327.336C152.037 327.392 152.488 327.224 152.825 326.887C153.163 326.549 153.36 326.044 153.417 325.369C153.473 324.695 153.36 324.161 153.079 323.768C152.797 323.374 152.375 323.15 151.812 323.122C151.531 323.093 151.249 323.122 151.024 323.206C150.771 323.29 150.518 323.402 150.264 323.599L150.067 323.122C150.292 322.925 150.574 322.784 150.883 322.7C151.193 322.616 151.531 322.588 151.869 322.616C152.319 322.588 152.741 322.728 153.079 322.981Z" fill="black"/>
<path d="M147.704 322.841L147.422 323.262C147.197 323.009 146.944 322.841 146.691 322.728C146.437 322.616 146.128 322.532 145.79 322.475C145.368 322.419 145.058 322.475 144.805 322.616C144.552 322.756 144.439 322.953 144.383 323.262C144.354 323.431 144.411 323.571 144.495 323.684C144.58 323.796 144.72 323.908 144.889 323.993C145.058 324.077 145.283 324.161 145.565 324.274C145.959 324.414 146.268 324.555 146.522 324.667C146.775 324.779 146.944 324.976 147.085 325.173C147.225 325.369 147.282 325.622 147.225 325.931C147.197 326.212 147.085 326.465 146.916 326.69C146.747 326.887 146.494 327.055 146.212 327.14C145.903 327.224 145.593 327.252 145.199 327.224C144.833 327.196 144.523 327.083 144.214 326.943C143.932 326.802 143.679 326.606 143.482 326.381L143.763 325.959C143.989 326.184 144.214 326.381 144.439 326.493C144.664 326.606 144.946 326.69 145.227 326.718C145.621 326.774 145.959 326.718 146.184 326.578C146.409 326.437 146.578 326.212 146.606 325.903C146.634 325.65 146.55 325.454 146.381 325.285C146.184 325.145 145.903 324.976 145.508 324.836C145.086 324.667 144.749 324.526 144.495 324.414C144.242 324.302 144.073 324.133 143.904 323.936C143.763 323.74 143.707 323.487 143.735 323.178C143.763 322.897 143.876 322.644 144.045 322.447C144.214 322.251 144.467 322.11 144.749 322.026C145.058 321.942 145.396 321.913 145.762 321.97C146.662 322.054 147.282 322.363 147.704 322.841Z" fill="black"/>
<path d="M140.329 321.548C140.667 321.801 140.892 322.166 141.005 322.588C141.146 323.009 141.146 323.487 141.061 324.021C140.977 324.555 140.808 325.004 140.555 325.37C140.301 325.735 139.992 325.988 139.598 326.128C139.204 326.269 138.782 326.325 138.303 326.241C137.965 326.184 137.628 326.072 137.346 325.931C137.065 325.791 136.84 325.566 136.643 325.341L136.952 324.92C137.177 325.173 137.374 325.341 137.599 325.482C137.825 325.622 138.078 325.707 138.359 325.735C138.922 325.819 139.373 325.707 139.738 325.398C140.104 325.089 140.329 324.583 140.442 323.937C140.555 323.262 140.47 322.728 140.217 322.307C139.964 321.886 139.57 321.633 139.007 321.548C138.725 321.492 138.444 321.52 138.19 321.576C137.937 321.633 137.684 321.745 137.402 321.914L137.262 321.436C137.515 321.267 137.796 321.127 138.106 321.071C138.416 321.015 138.753 321.015 139.091 321.071C139.626 321.127 140.02 321.296 140.329 321.548Z" fill="black"/>
<path d="M134.729 320.34L133.744 325.398L133.153 325.285L134.053 320.734L131.52 320.228L131.633 319.722L134.729 320.34Z" fill="black"/>
<path d="M129.185 319.188L128.031 324.218L127.439 324.077L128.594 319.048L129.185 319.188Z" fill="black"/>
<path d="M120.91 322.448L120.375 322.307L121.698 317.334L122.148 317.446L124.09 322.251L125.16 318.233L125.695 318.374L124.372 323.347L123.921 323.234L121.979 318.43L120.91 322.448Z" fill="black"/>
<path d="M118.827 316.491L117.335 321.436L116.773 321.267L118.264 316.322L118.827 316.491Z" fill="black"/>
<path d="M114.408 315.395C114.69 315.704 114.858 316.097 114.915 316.519C114.971 316.968 114.915 317.418 114.746 317.952C114.577 318.486 114.324 318.879 114.014 319.188C113.704 319.497 113.339 319.694 112.944 319.778C112.522 319.862 112.1 319.834 111.65 319.666C111.312 319.553 111.031 319.385 110.777 319.188C110.524 318.991 110.327 318.767 110.186 318.486L110.552 318.12C110.721 318.401 110.918 318.626 111.115 318.795C111.312 318.963 111.537 319.076 111.819 319.188C112.353 319.357 112.832 319.329 113.226 319.076C113.62 318.823 113.958 318.373 114.155 317.755C114.38 317.109 114.38 316.575 114.211 316.125C114.042 315.676 113.676 315.367 113.142 315.198C112.86 315.114 112.607 315.058 112.353 315.086C112.1 315.114 111.819 315.17 111.509 315.283L111.453 314.777C111.734 314.636 112.016 314.58 112.353 314.552C112.663 314.552 113.001 314.608 113.339 314.721C113.789 314.833 114.155 315.058 114.408 315.395Z" fill="black"/>
<path d="M109.23 313.934L108.836 314.271C108.667 313.99 108.498 313.737 108.273 313.569C108.048 313.4 107.794 313.231 107.457 313.119C107.063 312.979 106.753 312.922 106.471 313.007C106.218 313.063 106.021 313.26 105.909 313.512C105.852 313.681 105.852 313.822 105.909 313.962C105.965 314.102 106.077 314.243 106.218 314.355C106.359 314.468 106.556 314.636 106.809 314.805C107.147 315.03 107.428 315.254 107.625 315.423C107.822 315.62 107.963 315.816 108.048 316.041C108.132 316.266 108.104 316.547 107.991 316.828C107.879 317.109 107.71 317.306 107.485 317.474C107.26 317.643 107.006 317.727 106.668 317.727C106.359 317.755 106.021 317.671 105.683 317.558C105.346 317.418 105.064 317.249 104.811 317.053C104.558 316.828 104.361 316.603 104.248 316.322L104.614 315.985C104.755 316.266 104.952 316.491 105.149 316.687C105.346 316.856 105.599 316.997 105.852 317.109C106.218 317.249 106.556 317.277 106.809 317.221C107.091 317.137 107.26 316.968 107.372 316.687C107.457 316.435 107.428 316.238 107.288 316.041C107.147 315.845 106.894 315.648 106.556 315.395C106.19 315.142 105.88 314.917 105.683 314.749C105.486 314.58 105.318 314.383 105.233 314.159C105.149 313.934 105.149 313.681 105.261 313.4C105.374 313.119 105.543 312.922 105.74 312.754C105.965 312.613 106.218 312.529 106.528 312.529C106.837 312.529 107.175 312.585 107.541 312.726C108.413 312.922 108.948 313.372 109.23 313.934Z" fill="black"/>
<path d="M102.419 310.9C102.672 311.237 102.813 311.63 102.813 312.08C102.813 312.529 102.728 312.979 102.531 313.484C102.306 313.99 102.053 314.384 101.715 314.665C101.377 314.946 101.012 315.114 100.589 315.17C100.167 315.227 99.745 315.142 99.2946 314.974C98.9569 314.833 98.6754 314.665 98.4503 314.44C98.2251 314.215 98.0563 313.962 97.9155 313.681L98.3095 313.344C98.4503 313.625 98.6192 313.878 98.8162 314.046C99.0132 314.215 99.2102 314.384 99.4917 314.496C99.9983 314.721 100.477 314.721 100.927 314.496C101.377 314.271 101.715 313.85 101.968 313.232C102.25 312.613 102.306 312.08 102.166 311.602C102.025 311.152 101.687 310.787 101.18 310.59C100.927 310.478 100.646 310.422 100.392 310.394C100.139 310.394 99.8576 310.422 99.548 310.534L99.5198 310.029C99.8013 309.916 100.111 309.86 100.42 309.888C100.73 309.916 101.068 309.972 101.377 310.113C101.828 310.281 102.166 310.562 102.419 310.9Z" fill="black"/>
<path d="M97.2963 308.343L95.0727 313.007L94.538 312.754L96.5364 308.567L94.2002 307.472L94.4254 307.022L97.2963 308.343Z" fill="black"/>
<path d="M92.1738 305.842L89.8097 310.422L89.2749 310.141L91.6391 305.561L92.1738 305.842Z" fill="black"/>
<path d="M83.3926 306.966L82.886 306.685L85.3909 302.189L85.7849 302.414L86.4885 307.556L88.5149 303.931L89.0215 304.212L86.5166 308.708L86.1226 308.483L85.419 303.341L83.3926 306.966Z" fill="black"/>
<path d="M82.8297 300.672L80.1841 305.083L79.6775 304.774L82.3231 300.363L82.8297 300.672Z" fill="black"/>
<path d="M78.8331 298.508C79.0301 298.873 79.0864 299.295 79.0301 299.716C78.9738 300.166 78.805 300.587 78.4954 301.065C78.1858 301.543 77.8762 301.852 77.4822 302.076C77.0882 302.301 76.7223 302.414 76.3002 302.385C75.878 302.357 75.4558 302.217 75.0618 301.964C74.7522 301.767 74.5271 301.543 74.3301 301.29C74.1331 301.037 74.0205 300.756 73.936 300.475L74.3863 300.222C74.4708 300.531 74.6115 300.784 74.7522 301.009C74.8929 301.233 75.0899 301.402 75.3432 301.542C75.8217 301.852 76.3001 301.936 76.7505 301.795C77.2008 301.655 77.6229 301.29 77.9888 300.728C78.3547 300.166 78.5235 299.632 78.4391 299.154C78.3828 298.677 78.1014 298.283 77.6229 297.974C77.3696 297.806 77.1445 297.721 76.8912 297.665C76.6379 297.609 76.3564 297.609 76.0187 297.637L76.075 297.131C76.3846 297.075 76.6942 297.075 77.0038 297.131C77.3133 297.187 77.6229 297.328 77.9044 297.525C78.3547 297.834 78.6361 298.143 78.8331 298.508Z" fill="black"/>
<path d="M74.1613 295.839L73.711 296.092C73.6266 295.783 73.514 295.502 73.3451 295.277C73.1762 295.052 72.9511 294.828 72.6696 294.631C72.3319 294.406 72.0223 294.266 71.7409 294.266C71.4594 294.266 71.2342 294.378 71.0654 294.631C70.9809 294.771 70.9246 294.912 70.9528 295.052C70.9809 295.193 71.0372 295.361 71.1498 295.502C71.2624 295.642 71.4031 295.839 71.6283 296.064C71.9097 296.373 72.1067 296.626 72.2756 296.879C72.4163 297.104 72.5008 297.356 72.5289 297.581C72.557 297.834 72.4726 298.087 72.3038 298.34C72.1349 298.593 71.9097 298.733 71.6564 298.846C71.4031 298.93 71.1217 298.958 70.8121 298.902C70.5025 298.846 70.1929 298.705 69.8833 298.48C69.6018 298.284 69.3485 298.031 69.1515 297.778C68.9545 297.497 68.8419 297.216 68.7856 296.935L69.236 296.682C69.3204 296.991 69.433 297.272 69.5737 297.469C69.7144 297.694 69.9114 297.89 70.1647 298.059C70.5025 298.284 70.7839 298.396 71.0654 298.396C71.3468 298.396 71.572 298.256 71.7409 298.003C71.8816 297.778 71.9097 297.581 71.8253 297.356C71.7408 297.132 71.5438 296.879 71.2905 296.57C70.9809 296.232 70.7558 295.952 70.6151 295.727C70.4462 295.502 70.3618 295.277 70.3336 295.024C70.3055 294.771 70.3617 294.547 70.5306 294.294C70.6995 294.041 70.8965 293.9 71.1498 293.788C71.4031 293.704 71.6845 293.676 71.9941 293.76C72.3037 293.816 72.6133 293.985 72.9229 294.181C73.5984 294.659 74.0206 295.221 74.1613 295.839Z" fill="black"/>
<path d="M68.307 291.203C68.4759 291.596 68.504 291.99 68.4196 292.439C68.3352 292.861 68.11 293.31 67.8004 293.732C67.4627 294.153 67.0968 294.462 66.7309 294.659C66.3369 294.855 65.9429 294.94 65.5207 294.884C65.0985 294.827 64.7045 294.659 64.3105 294.35C64.0291 294.125 63.8039 293.9 63.635 293.619C63.4662 293.338 63.3536 293.057 63.3254 292.776L63.7757 292.551C63.832 292.861 63.9446 293.142 64.0853 293.366C64.2261 293.591 64.3949 293.788 64.6201 293.956C65.0704 294.293 65.5207 294.406 65.9992 294.322C66.4776 294.209 66.8998 293.9 67.322 293.366C67.7441 292.832 67.9411 292.327 67.913 291.849C67.8848 291.371 67.6597 290.95 67.2094 290.613C66.9842 290.444 66.7309 290.304 66.5058 290.248C66.2525 290.163 65.971 290.135 65.6614 290.163L65.774 289.658C66.0836 289.629 66.3932 289.657 66.6746 289.742C66.9842 289.826 67.2657 289.995 67.5471 290.219C67.8849 290.472 68.1381 290.809 68.307 291.203Z" fill="black"/>
<path d="M63.9451 287.466L60.652 291.427L60.2017 291.034L63.157 287.466L61.1586 285.808L61.4964 285.415L63.9451 287.466Z" fill="black"/>
<path d="M59.6102 283.813L56.2049 287.691L55.7546 287.297L59.1599 283.42L59.6102 283.813Z" fill="black"/>
<path d="M50.8013 282.746L50.3792 282.352L53.8971 278.587L54.2348 278.896L53.672 284.038L56.5145 281.032L56.9366 281.425L53.3905 285.19L53.0528 284.881L53.6157 279.739L50.8013 282.746Z" fill="black"/>
<path d="M51.8141 276.508L48.1551 280.132L47.7329 279.711L51.3919 276.086L51.8141 276.508Z" fill="black"/>
<path d="M48.4651 273.446C48.5495 273.867 48.5213 274.26 48.3525 274.682C48.1836 275.103 47.9021 275.497 47.5081 275.862C47.1141 276.227 46.6919 276.48 46.2979 276.621C45.9038 276.761 45.4535 276.761 45.0594 276.649C44.6654 276.536 44.2995 276.283 43.9618 275.946C43.7084 275.693 43.5396 275.412 43.3988 275.131C43.2863 274.85 43.23 274.541 43.23 274.232L43.7084 274.092C43.7366 274.429 43.7929 274.71 43.8773 274.935C43.9618 275.16 44.1306 275.384 44.3277 275.609C44.7217 276.031 45.1439 276.227 45.6224 276.199C46.1008 276.171 46.5793 275.918 47.0859 275.469C47.5925 275.019 47.8459 274.541 47.9022 274.064C47.9584 273.586 47.7896 273.136 47.3956 272.715C47.1985 272.518 46.9734 272.35 46.7482 272.237C46.523 272.125 46.2416 272.041 45.9038 272.013L46.0727 271.535C46.3823 271.535 46.6637 271.619 46.9452 271.76C47.2266 271.9 47.48 272.097 47.7333 272.35C48.1555 272.659 48.3806 273.052 48.4651 273.446Z" fill="black"/>
<path d="M44.581 269.708L44.0744 269.821C44.0744 269.484 44.0181 269.203 43.9055 268.922C43.7929 268.669 43.6241 268.388 43.3989 268.135C43.1175 267.826 42.8642 267.629 42.5828 267.573C42.3013 267.517 42.0762 267.573 41.8511 267.77C41.7103 267.882 41.6541 268.023 41.6541 268.163C41.6541 268.304 41.6822 268.472 41.7385 268.641C41.7948 268.809 41.9074 269.034 42.0481 269.315C42.2451 269.68 42.3858 269.989 42.4702 270.242C42.5547 270.495 42.5828 270.748 42.5546 271.001C42.5265 271.254 42.3858 271.479 42.1325 271.675C41.9073 271.872 41.6541 271.984 41.4008 272.012C41.1475 272.04 40.866 271.984 40.5846 271.872C40.3032 271.731 40.0499 271.535 39.7966 271.254C39.5715 270.973 39.4026 270.692 39.2619 270.383C39.1493 270.074 39.093 269.765 39.1212 269.484L39.6277 269.343C39.6277 269.652 39.684 269.961 39.7685 270.214C39.8529 270.467 39.9936 270.692 40.1906 270.917C40.4439 271.226 40.7253 271.394 41.0068 271.45C41.2882 271.507 41.5415 271.45 41.7666 271.254C41.9636 271.085 42.048 270.889 42.0199 270.636C41.9918 270.411 41.8792 270.102 41.6822 269.737C41.4852 269.343 41.3163 269.006 41.2319 268.753C41.1475 268.5 41.0912 268.247 41.1193 268.023C41.1475 267.77 41.2601 267.545 41.5133 267.348C41.7385 267.152 41.9918 267.039 42.2451 267.011C42.4984 266.983 42.7798 267.039 43.0612 267.18C43.3427 267.32 43.5959 267.545 43.8492 267.826C44.3558 268.444 44.6091 269.062 44.581 269.708Z" fill="black"/>
<path d="M40.05 263.808C40.1063 264.229 40.05 264.623 39.853 265.016C39.656 265.409 39.3464 265.775 38.9242 266.112C38.502 266.449 38.0799 266.674 37.6577 266.758C37.2356 266.842 36.8134 266.814 36.4194 266.674C36.0254 266.533 35.6876 266.252 35.378 265.887C35.1529 265.606 34.984 265.325 34.8996 265.016C34.787 264.707 34.7589 264.426 34.787 264.117L35.2936 264.004C35.2936 264.342 35.3217 264.623 35.4062 264.847C35.4906 265.072 35.6032 265.325 35.8002 265.55C36.1379 265.999 36.5601 266.224 37.0386 266.224C37.517 266.224 38.0236 266.027 38.5584 265.606C39.0931 265.185 39.4027 264.735 39.4871 264.257C39.5715 263.78 39.459 263.33 39.0931 262.881C38.9242 262.656 38.7272 262.487 38.502 262.347C38.2769 262.206 38.0236 262.122 37.6859 262.066L37.911 261.616C38.2206 261.644 38.502 261.757 38.7835 261.925C39.0649 262.094 39.2901 262.319 39.5153 262.6C39.7967 262.993 39.9937 263.386 40.05 263.808Z" fill="black"/>
<path d="M36.7291 259.116L32.5636 262.15L32.1978 261.673L35.941 258.919L34.4212 256.84L34.8433 256.531L36.7291 259.116Z" fill="black"/>
<path d="M33.4362 254.536L29.1861 257.458L28.8484 256.952L33.0984 254.03L33.4362 254.536Z" fill="black"/>
<path d="M25.1331 251.333L24.8235 250.855L29.1578 248.073L29.4111 248.467L27.6098 253.328L31.0998 251.08L31.4094 251.558L27.0751 254.339L26.8218 253.946L28.623 249.085L25.1331 251.333Z" fill="black"/>
<path d="M27.6385 245.544L23.1912 248.185L22.8816 247.68L27.3288 245.039L27.6385 245.544Z" fill="black"/>
<path d="M25.1335 241.751C25.1335 242.173 24.9928 242.566 24.7395 242.931C24.4861 243.296 24.1202 243.606 23.6418 243.858C23.1633 244.111 22.713 244.252 22.2626 244.28C21.8123 244.308 21.4182 244.196 21.0523 243.999C20.6864 243.774 20.405 243.465 20.1517 243.044C19.9828 242.735 19.8702 242.425 19.814 242.116C19.7577 241.807 19.7858 241.498 19.8702 241.217L20.3769 241.189C20.3206 241.498 20.2924 241.807 20.3206 242.06C20.3487 242.313 20.4331 242.566 20.5739 242.819C20.8553 243.325 21.2212 243.606 21.6997 243.69C22.1782 243.774 22.7129 243.662 23.304 243.353C23.8951 243.015 24.2891 242.65 24.458 242.201C24.6269 241.751 24.5706 241.273 24.3173 240.796C24.1765 240.543 24.0077 240.346 23.8106 240.178C23.6136 240.009 23.3603 239.869 23.0507 239.756L23.3322 239.335C23.6136 239.419 23.8951 239.56 24.1202 239.784C24.3454 240.009 24.5706 240.262 24.7395 240.571C25.0491 240.908 25.1616 241.33 25.1335 241.751Z" fill="black"/>
<path d="M22.2906 237.171H21.784C21.8685 236.862 21.8966 236.553 21.8403 236.272C21.8122 235.991 21.6996 235.71 21.5589 235.373C21.3619 235.008 21.1648 234.755 20.9115 234.615C20.6582 234.474 20.4049 234.474 20.1516 234.615C20.0109 234.699 19.8983 234.811 19.842 234.952C19.7858 235.092 19.7858 235.261 19.8139 235.458C19.8421 235.654 19.8702 235.879 19.9546 236.188C20.0391 236.581 20.1235 236.919 20.1235 237.2C20.1516 237.481 20.0953 237.733 20.0109 237.958C19.8983 238.183 19.7295 238.38 19.448 238.492C19.1947 238.633 18.9132 238.661 18.6599 238.633C18.3785 238.604 18.1252 238.492 17.9 238.267C17.6749 238.071 17.4497 237.79 17.2809 237.452C17.112 237.143 17.0275 236.806 16.9712 236.497C16.9431 236.16 16.9713 235.851 17.0557 235.57H17.5623C17.4779 235.879 17.4497 236.16 17.4779 236.441C17.506 236.694 17.5905 236.975 17.703 237.228C17.8719 237.593 18.097 237.818 18.3504 237.958C18.6037 238.099 18.857 238.071 19.1384 237.958C19.3636 237.846 19.5043 237.677 19.5325 237.424C19.5606 237.2 19.5324 236.862 19.4199 236.469C19.3073 236.019 19.251 235.682 19.2228 235.401C19.1947 235.148 19.2228 234.896 19.3073 234.643C19.3917 234.418 19.5606 234.221 19.842 234.081C20.0953 233.94 20.3768 233.912 20.6301 233.94C20.8834 233.968 21.1367 234.109 21.39 234.305C21.6152 234.502 21.8403 234.783 22.0092 235.12C22.3751 235.879 22.4595 236.553 22.2906 237.171Z" fill="black"/>
<path d="M19.3356 230.344C19.2793 230.765 19.1386 231.13 18.829 231.468C18.5475 231.805 18.1535 232.086 17.675 232.31C17.1684 232.535 16.718 232.648 16.2677 232.62C15.8174 232.62 15.4515 232.479 15.0856 232.226C14.7479 231.973 14.4664 231.636 14.2694 231.187C14.1287 230.849 14.0443 230.54 14.0161 230.231C13.988 229.922 14.0443 229.613 14.1287 229.332L14.6353 229.36C14.5509 229.669 14.4946 229.95 14.5227 230.203C14.5227 230.456 14.6072 230.709 14.7197 230.99C14.9449 231.496 15.3108 231.833 15.7611 231.945C16.2115 232.058 16.7743 232.001 17.3654 231.72C17.9846 231.439 18.4068 231.074 18.6038 230.653C18.8008 230.231 18.8008 229.754 18.5757 229.22C18.4631 228.967 18.2942 228.742 18.1253 228.545C17.9565 228.377 17.7032 228.208 17.4217 228.068L17.7594 227.674C18.0409 227.787 18.2942 227.955 18.5193 228.18C18.7445 228.405 18.9134 228.686 19.0822 228.995C19.3074 229.501 19.3919 229.922 19.3356 230.344Z" fill="black"/>
<path d="M17.2808 225.005L12.4962 226.944L12.271 226.382L16.5771 224.64L15.6202 222.252L16.0987 222.055L17.2808 225.005Z" fill="black"/>
<path d="M15.1981 219.723L10.3572 221.521L10.1602 220.959L15.001 219.161L15.1981 219.723Z" fill="black"/>
<path d="M7.96476 214.609L7.7959 214.075L12.6931 212.446L12.8338 212.895L9.87861 217.138L13.8189 215.817L13.9877 216.351L9.09055 217.981L8.94982 217.531L11.905 213.288L7.96476 214.609Z" fill="black"/>
<path d="M11.7929 209.58L6.83928 211.041L6.67041 210.479L11.624 209.018L11.7929 209.58Z" fill="black"/>
<path d="M10.3289 205.309C10.2163 205.702 9.99112 206.067 9.65339 206.348C9.31566 206.629 8.89349 206.854 8.35875 206.995C7.824 207.135 7.34555 207.163 6.92338 207.079C6.50121 206.995 6.13533 206.798 5.82574 206.517C5.51615 206.208 5.31915 205.843 5.20657 205.365C5.12214 205.028 5.09398 204.691 5.12212 204.382C5.15027 204.073 5.2347 203.763 5.40357 203.511L5.91019 203.623C5.76946 203.904 5.68502 204.185 5.65688 204.438C5.62873 204.691 5.65686 204.972 5.71315 205.225C5.85388 205.758 6.13535 206.152 6.58566 206.348C7.00783 206.545 7.5707 206.573 8.21802 206.405C8.86535 206.236 9.34381 205.955 9.62525 205.562C9.9067 205.168 9.96301 204.691 9.82229 204.157C9.73785 203.876 9.62525 203.623 9.48453 203.426C9.34381 203.23 9.11866 203.033 8.86536 202.836L9.25939 202.499C9.51269 202.668 9.73782 202.864 9.93484 203.117C10.1037 203.37 10.2444 203.679 10.3289 204.016C10.4414 204.466 10.4414 204.915 10.3289 205.309Z" fill="black"/>
<path d="M8.69677 200.167L8.19015 200.026C8.35902 199.745 8.44345 199.436 8.4716 199.155C8.49974 198.874 8.47161 198.565 8.41532 198.228C8.33089 197.835 8.19014 197.526 7.96498 197.357C7.76797 197.16 7.51467 197.104 7.23323 197.16C7.06436 197.188 6.9518 197.273 6.86737 197.413C6.78293 197.554 6.72662 197.694 6.69847 197.891C6.67033 198.088 6.67033 198.312 6.67033 198.621C6.67033 199.043 6.64221 199.38 6.58592 199.633C6.52963 199.914 6.44517 200.139 6.2763 200.335C6.13558 200.532 5.91045 200.673 5.60086 200.729C5.31941 200.785 5.03795 200.785 4.78465 200.673C4.53135 200.56 4.30618 200.392 4.13731 200.139C3.96844 199.886 3.82771 199.577 3.74328 199.211C3.65884 198.874 3.65886 198.537 3.687 198.2C3.74329 197.863 3.82772 197.582 3.99659 197.329L4.50321 197.441C4.36248 197.722 4.2499 198.003 4.22176 198.256C4.19361 198.509 4.19361 198.79 4.2499 199.071C4.33433 199.464 4.47505 199.745 4.7002 199.942C4.92536 200.139 5.17869 200.195 5.46013 200.111C5.71343 200.054 5.88228 199.914 5.96672 199.689C6.05115 199.464 6.10744 199.155 6.10744 198.734C6.10744 198.284 6.1356 197.919 6.16375 197.638C6.19189 197.385 6.2763 197.132 6.41702 196.936C6.55775 196.739 6.78292 196.598 7.06437 196.542C7.34581 196.486 7.62727 196.514 7.85243 196.598C8.10573 196.711 8.30272 196.879 8.49974 197.132C8.69675 197.385 8.80934 197.694 8.89377 198.088C9.09078 198.931 9.00636 199.605 8.69677 200.167Z" fill="black"/>
<path d="M7.51428 192.833C7.37355 193.227 7.12026 193.564 6.75437 193.817C6.38848 194.07 5.93814 194.238 5.40337 194.351C4.86861 194.435 4.39015 194.435 3.96796 194.323C3.54578 194.21 3.20805 193.985 2.9266 193.676C2.64514 193.367 2.47626 192.946 2.39183 192.468C2.33554 192.131 2.33554 191.794 2.39183 191.485C2.44812 191.176 2.56069 190.895 2.72956 190.642L3.23619 190.782C3.06732 191.063 2.95474 191.316 2.9266 191.569C2.87031 191.822 2.87031 192.075 2.9266 192.384C3.01103 192.946 3.29247 193.339 3.68651 193.592C4.08055 193.845 4.64347 193.901 5.31896 193.789C5.99445 193.676 6.47291 193.423 6.78251 193.058C7.09211 192.693 7.20468 192.215 7.0921 191.681C7.03581 191.4 6.95137 191.147 6.81064 190.923C6.66992 190.698 6.4729 190.501 6.24774 190.276L6.66992 189.967C6.92323 190.136 7.12027 190.361 7.28914 190.642C7.45801 190.923 7.57058 191.232 7.62687 191.569C7.71131 191.99 7.68315 192.44 7.51428 192.833Z" fill="black"/>
<path d="M6.86737 187.13L1.74482 187.832L1.6604 187.242L6.27628 186.624L5.93855 184.067L6.44518 184.011L6.86737 187.13Z" fill="black"/>
<path d="M6.13583 181.51L1.01331 182.044L0.957031 181.454L6.07956 180.92L6.13583 181.51Z" fill="black"/>
<path d="M0.394139 174.767L0.365967 174.205L5.51641 173.84L5.54455 174.289L1.63247 177.689L5.76971 177.38L5.79785 177.942L0.647411 178.307L0.619273 177.858L4.53135 174.458L0.394139 174.767Z" fill="black"/>
<path d="M5.34732 170.861L0.196839 171.058L0.168701 170.468L5.31918 170.271L5.34732 170.861Z" fill="black"/>
<path d="M4.98161 166.337C4.7846 166.703 4.47502 166.984 4.08099 167.18C3.68697 167.377 3.20851 167.489 2.67375 167.489C2.139 167.489 1.66054 167.405 1.26652 167.236C0.872488 167.04 0.562882 166.787 0.337724 166.422C0.112565 166.056 0 165.635 0 165.157C0 164.792 0.0562896 164.483 0.140724 164.174C0.253303 163.865 0.394013 163.612 0.619172 163.387L1.09765 163.612C0.90064 163.865 0.731744 164.118 0.64731 164.342C0.562875 164.567 0.506613 164.848 0.534758 165.129C0.534758 165.691 0.731771 166.141 1.09765 166.422C1.46354 166.731 1.99828 166.871 2.67375 166.871C3.34923 166.871 3.88398 166.703 4.22172 166.393C4.5876 166.084 4.75648 165.635 4.75648 165.073C4.75648 164.792 4.70019 164.511 4.61575 164.286C4.53132 164.061 4.36243 163.808 4.13727 163.556L4.58758 163.331C4.81274 163.556 4.98162 163.808 5.0942 164.089C5.20678 164.399 5.26306 164.708 5.26306 165.073C5.26306 165.551 5.17863 165.972 4.98161 166.337Z" fill="black"/>
<path d="M4.64371 160.971L4.19341 160.718C4.41856 160.465 4.58741 160.212 4.67185 159.959C4.78442 159.706 4.84071 159.397 4.84071 159.032C4.84071 158.61 4.78444 158.301 4.61557 158.077C4.47485 157.852 4.24969 157.739 3.9401 157.711C3.77123 157.711 3.63051 157.768 3.51793 157.852C3.40535 157.964 3.32092 158.105 3.23649 158.273C3.1802 158.442 3.09575 158.695 3.01132 158.976C2.89874 159.369 2.78617 159.706 2.70174 159.959C2.58916 160.212 2.44844 160.409 2.25143 160.577C2.05442 160.718 1.8011 160.802 1.49151 160.802C1.21007 160.802 0.928637 160.718 0.731626 160.549C0.50647 160.381 0.33759 160.156 0.225012 159.875C0.112434 159.594 0.0561523 159.257 0.0561523 158.891C0.0561523 158.526 0.140606 158.217 0.253184 157.908C0.365762 157.599 0.534608 157.346 0.759763 157.149L1.21007 157.402C0.984912 157.627 0.844203 157.88 0.731626 158.133C0.619048 158.386 0.562766 158.639 0.562766 158.948C0.562766 159.341 0.619034 159.65 0.787901 159.903C0.956767 160.156 1.18192 160.268 1.49151 160.268C1.74481 160.268 1.94185 160.184 2.08257 159.987C2.22329 159.791 2.33585 159.482 2.44843 159.088C2.56101 158.639 2.67361 158.301 2.78618 158.049C2.87062 157.796 3.03948 157.599 3.20835 157.43C3.37722 157.262 3.63051 157.206 3.9401 157.206C4.22154 157.206 4.47483 157.29 4.69998 157.458C4.92514 157.627 5.06588 157.852 5.17846 158.133C5.29104 158.414 5.34733 158.751 5.31918 159.144C5.31918 159.875 5.09402 160.493 4.64371 160.971Z" fill="black"/>
<path d="M5.29109 153.553C5.06594 153.89 4.7282 154.143 4.30603 154.312C3.88386 154.48 3.43355 154.537 2.87066 154.509C2.33591 154.48 1.85744 154.34 1.49156 154.115C1.09753 153.89 0.816085 153.609 0.647217 153.216C0.450204 152.851 0.393935 152.401 0.42208 151.924C0.450224 151.558 0.534638 151.249 0.647217 150.968C0.78794 150.687 0.956815 150.434 1.18197 150.238L1.63228 150.491C1.40712 150.715 1.23828 150.968 1.1257 151.193C1.01312 151.418 0.956809 151.671 0.928664 151.98C0.900519 152.542 1.04127 152.991 1.37901 153.328C1.71674 153.666 2.22332 153.862 2.89879 153.89C3.57427 153.947 4.10904 153.834 4.50306 153.553C4.89709 153.272 5.09408 152.851 5.15037 152.289C5.17852 152.008 5.15039 151.727 5.06596 151.502C4.98152 151.249 4.86894 150.996 4.67192 150.744L5.15037 150.547C5.34738 150.772 5.48811 151.053 5.57254 151.362C5.65698 151.671 5.68513 152.008 5.65699 152.345C5.65699 152.795 5.5444 153.216 5.29109 153.553Z" fill="black"/>
<path d="M6.02299 147.849L0.900635 147.287L0.956945 146.697L5.57265 147.203L5.8541 144.646L6.36072 144.702L6.02299 147.849Z" fill="black"/>
<path d="M6.6983 142.23L1.57617 141.527L1.66062 140.937L6.78275 141.64L6.6983 142.23Z" fill="black"/>
<path d="M2.75807 134.306L2.84251 133.744L7.93655 134.615L7.85214 135.065L3.23654 137.425L7.3174 138.128L7.23296 138.69L2.13892 137.819L2.22336 137.369L6.83893 135.009L2.75807 134.306Z" fill="black"/>
<path d="M8.52804 131.721L3.49023 130.654L3.60278 130.063L8.64062 131.131L8.52804 131.721Z" fill="black"/>
<path d="M9.25944 127.254C8.97799 127.563 8.6121 127.759 8.16179 127.844C7.73962 127.928 7.26117 127.928 6.72643 127.788C6.19168 127.647 5.76948 127.45 5.43175 127.169C5.09402 126.888 4.86889 126.551 4.75631 126.158C4.64373 125.765 4.64373 125.315 4.75631 124.837C4.84074 124.5 4.98144 124.191 5.1503 123.938C5.31917 123.685 5.54434 123.46 5.79764 123.292L6.19167 123.629C5.93837 123.826 5.7132 124.022 5.57247 124.219C5.43175 124.416 5.31918 124.669 5.26289 124.95C5.12217 125.512 5.20661 125.961 5.48806 126.355C5.76951 126.748 6.24796 127.029 6.89529 127.169C7.54261 127.338 8.10548 127.31 8.52765 127.085C8.94982 126.86 9.23126 126.495 9.37199 125.933C9.42828 125.652 9.45644 125.399 9.4283 125.146C9.40015 124.893 9.31572 124.612 9.14685 124.332L9.65343 124.219C9.8223 124.472 9.90673 124.781 9.93488 125.09C9.96302 125.399 9.9349 125.736 9.85046 126.074C9.73789 126.551 9.54088 126.945 9.25944 127.254Z" fill="black"/>
<path d="M10.2448 121.971L9.87885 121.606C10.1603 121.409 10.3855 121.213 10.5262 120.988C10.6951 120.763 10.8076 120.482 10.9202 120.145C11.0328 119.752 11.0328 119.414 10.9484 119.162C10.864 118.909 10.6669 118.74 10.3855 118.656C10.2166 118.6 10.0759 118.628 9.93513 118.684C9.7944 118.768 9.68184 118.881 9.56926 119.021C9.45667 119.162 9.34408 119.386 9.17521 119.639C8.97819 120.005 8.78117 120.286 8.6123 120.51C8.44342 120.735 8.24641 120.876 8.02125 120.988C7.79608 121.1 7.54276 121.1 7.23316 121.016C6.9517 120.932 6.72653 120.791 6.55766 120.566C6.38878 120.37 6.27621 120.089 6.21992 119.78C6.16363 119.471 6.21994 119.134 6.30437 118.768C6.38881 118.431 6.55768 118.122 6.7547 117.869C6.95171 117.616 7.17689 117.391 7.4302 117.251L7.82421 117.588C7.54275 117.757 7.34575 117.953 7.17688 118.178C7.00801 118.403 6.89541 118.628 6.81097 118.909C6.69839 119.302 6.6984 119.611 6.78283 119.892C6.89542 120.145 7.06428 120.342 7.37389 120.426C7.6272 120.51 7.82423 120.454 8.02125 120.286C8.19012 120.117 8.38714 119.864 8.58416 119.499C8.80932 119.105 9.00634 118.796 9.14707 118.572C9.31595 118.347 9.48482 118.178 9.70998 118.066C9.93515 117.953 10.1884 117.953 10.4699 118.01C10.7514 118.094 10.9765 118.234 11.1454 118.431C11.3143 118.628 11.4269 118.909 11.455 119.218C11.4831 119.527 11.455 119.864 11.3424 120.229C11.2017 121.044 10.8077 121.606 10.2448 121.971Z" fill="black"/>
<path d="M12.7214 114.919C12.4118 115.2 12.0178 115.369 11.5956 115.425C11.1453 115.481 10.695 115.425 10.1603 115.256C9.65369 115.088 9.23153 114.835 8.92195 114.554C8.61237 114.245 8.41537 113.879 8.33094 113.486C8.2465 113.065 8.27466 112.643 8.41538 112.165C8.52796 111.828 8.66866 111.547 8.89381 111.294C9.09082 111.042 9.31597 110.845 9.59741 110.704L9.96329 111.07C9.68185 111.238 9.45669 111.435 9.31597 111.632C9.14711 111.828 9.03452 112.053 8.92195 112.334C8.75309 112.868 8.78124 113.346 9.03453 113.739C9.28782 114.132 9.73814 114.469 10.3854 114.666C11.0328 114.891 11.5675 114.891 12.0178 114.722C12.4681 114.554 12.7777 114.188 12.9465 113.655C13.031 113.374 13.0873 113.121 13.0591 112.868C13.0591 112.615 12.9747 112.334 12.8621 112.025L13.3687 111.969C13.5094 112.25 13.5657 112.531 13.5938 112.868C13.5938 113.177 13.5657 113.514 13.4531 113.851C13.2561 114.273 13.0309 114.638 12.7214 114.919Z" fill="black"/>
<path d="M14.8321 109.58L9.99121 107.782L10.1882 107.22L14.5506 108.85L15.4513 106.433L15.9297 106.602L14.8321 109.58Z" fill="black"/>
<path d="M16.8866 104.326L12.1021 102.387L12.3272 101.825L17.1118 103.764L16.8866 104.326Z" fill="black"/>
<path d="M15.0009 95.6442L15.2261 95.1384L19.9263 97.2457L19.7293 97.6672L14.6632 98.7911L18.4346 100.477L18.2094 100.983L13.5093 98.8754L13.7063 98.4539L18.7723 97.33L15.0009 95.6442Z" fill="black"/>
<path d="M21.2489 94.5483L16.6052 92.2724L16.8585 91.7385L21.5022 94.0144L21.2489 94.5483Z" fill="black"/>
<path d="M23.0506 90.3899C22.6848 90.6147 22.2907 90.6989 21.8404 90.6989C21.3901 90.6708 20.9398 90.5585 20.4613 90.3056C19.9829 90.0527 19.617 89.7436 19.3637 89.4065C19.1104 89.0412 18.9696 88.6759 18.9415 88.2545C18.9134 87.833 19.026 87.4115 19.2511 86.9901C19.42 86.681 19.617 86.4 19.8703 86.2033C20.0954 85.9786 20.3769 85.8381 20.6583 85.7538L20.9679 86.1752C20.6583 86.2876 20.405 86.4281 20.2362 86.5967C20.0392 86.7653 19.8703 86.962 19.7296 87.2149C19.4763 87.7206 19.42 88.1983 19.5888 88.6197C19.7577 89.0412 20.1517 89.4346 20.7428 89.7717C21.3338 90.0808 21.8686 90.1932 22.347 90.1089C22.8255 90.0246 23.1913 89.7155 23.4446 89.2098C23.5853 88.9569 23.6698 88.704 23.6979 88.4511C23.7261 88.1983 23.6979 87.9173 23.6417 87.5801L24.1482 87.6082C24.2327 87.8892 24.2608 88.1983 24.2045 88.5073C24.1483 88.8164 24.0638 89.1255 23.895 89.4627C23.698 89.856 23.4165 90.1932 23.0506 90.3899Z" fill="black"/>
<path d="M25.3303 85.5289L25.0488 85.1075C25.3584 84.9951 25.6399 84.8546 25.8369 84.6579C26.062 84.4612 26.2591 84.2365 26.4279 83.9274C26.625 83.5621 26.7375 83.253 26.7094 82.9721C26.6813 82.6911 26.5405 82.4944 26.2872 82.3258C26.1465 82.2415 26.0057 82.2134 25.8369 82.2415C25.6962 82.2696 25.5554 82.3539 25.4147 82.4663C25.274 82.5787 25.1051 82.7473 24.88 82.9721C24.5985 83.2811 24.3452 83.5059 24.1201 83.6745C23.8949 83.8431 23.6697 83.9555 23.4164 83.9836C23.1631 84.0117 22.9098 83.9555 22.6565 83.815C22.4032 83.6745 22.2062 83.4778 22.0937 83.2249C21.9811 82.9721 21.9248 82.6911 21.9811 82.382C22.0092 82.0729 22.1218 81.7639 22.3188 81.4267C22.4877 81.1176 22.7128 80.8647 22.9661 80.64C23.2194 80.4152 23.5009 80.2747 23.7823 80.2185L24.0638 80.64C23.7542 80.7524 23.5009 80.8928 23.3039 81.0614C23.1068 81.23 22.9099 81.4267 22.7691 81.6796C22.5721 82.0168 22.4877 82.3258 22.5158 82.6068C22.544 82.8878 22.6847 83.1125 22.9661 83.253C23.1913 83.3935 23.4165 83.3935 23.6135 83.2811C23.8386 83.1687 24.0638 82.9721 24.3734 82.663C24.683 82.3258 24.9644 82.0729 25.1614 81.9044C25.3584 81.7358 25.5836 81.6234 25.8369 81.5672C26.0902 81.511 26.3154 81.5672 26.5968 81.7077C26.8501 81.8482 27.019 82.0448 27.1316 82.2977C27.2441 82.5506 27.2723 82.8035 27.2441 83.1125C27.216 83.4216 27.0753 83.7307 26.8783 84.0679C26.4561 84.8827 25.9495 85.3323 25.3303 85.5289Z" fill="black"/>
<path d="M29.4674 79.3194C29.1016 79.516 28.6794 79.5722 28.2573 79.516C27.807 79.4598 27.3848 79.2913 26.9064 79.0103C26.428 78.7293 26.1184 78.3921 25.8651 77.9988C25.64 77.6335 25.5274 77.2401 25.5555 76.8187C25.5837 76.3972 25.6962 75.9758 25.9777 75.5824C26.1747 75.2733 26.3998 75.0485 26.6531 74.8519C26.9064 74.6552 27.1878 74.5428 27.4693 74.4585L27.7226 74.9081C27.413 74.9923 27.1597 75.1328 26.9345 75.2733C26.7375 75.4138 26.5405 75.6105 26.3998 75.8634C26.0902 76.341 26.0058 76.8187 26.1466 77.2682C26.2873 77.7178 26.6531 78.1393 27.216 78.5045C27.7788 78.8698 28.3136 79.0103 28.792 78.9541C29.2704 78.8979 29.6644 78.6169 29.974 78.1393C30.1429 77.8864 30.2273 77.6616 30.2836 77.4087C30.3399 77.1559 30.3399 76.8749 30.2836 76.5377L30.7902 76.5939C30.8465 76.903 30.8465 77.212 30.7902 77.5211C30.7339 77.8302 30.5932 78.1393 30.3962 78.4202C30.1429 78.8136 29.8333 79.1227 29.4674 79.3194Z" fill="black"/>
<path d="M32.8168 74.6833L28.5669 71.733L28.9046 71.2273L32.7323 73.8684L34.1959 71.7611L34.618 72.0421L32.8168 74.6833Z" fill="black"/>
<path d="M36.1094 70.0473L31.9722 66.9846L32.3381 66.507L36.4753 69.5696L36.1094 70.0473Z" fill="black"/>
<path d="M36.4192 61.1965L36.7569 60.7469L40.8097 63.9501L40.5283 64.3153L35.3497 64.1749L38.6144 66.7598L38.2767 67.2094L34.2239 64.0063L34.5053 63.641L39.6839 63.7815L36.4192 61.1965Z" fill="black"/>
<path d="M42.724 61.6459L38.7837 58.3023L39.1777 57.8528L43.118 61.1964L42.724 61.6459Z" fill="black"/>
<path d="M45.51 58.0775C45.116 58.1899 44.6938 58.1899 44.2717 58.0775C43.8495 57.9651 43.4273 57.7123 43.0333 57.347C42.6393 56.9817 42.3578 56.5884 42.189 56.195C42.0201 55.7735 41.9919 55.3802 42.0764 54.9587C42.1608 54.5372 42.3578 54.172 42.6955 53.8067C42.9207 53.5538 43.2022 53.329 43.4836 53.1886C43.7651 53.0481 44.0465 52.9638 44.3561 52.9357L44.5531 53.4133C44.2435 53.4695 43.9621 53.5257 43.7369 53.6381C43.5118 53.7505 43.2866 53.9191 43.1177 54.1439C42.7518 54.5653 42.583 55.0149 42.6393 55.4926C42.6956 55.9702 42.977 56.4198 43.4836 56.8693C43.9902 57.3189 44.4687 57.5718 44.9471 57.5718C45.4256 57.5999 45.8478 57.3751 46.2418 56.9817C46.4388 56.7569 46.5795 56.5322 46.664 56.3074C46.7484 56.0545 46.8047 55.7735 46.8047 55.4645L47.3113 55.6049C47.3113 55.914 47.2832 56.2231 47.1424 56.5041C47.0299 56.785 46.8328 57.066 46.6077 57.347C46.27 57.7123 45.9041 57.9651 45.51 58.0775Z" fill="black"/>
<path d="M48.9153 53.9192L48.7465 53.4415C49.0842 53.4134 49.3657 53.3291 49.619 53.2167C49.8723 53.1043 50.1256 52.9077 50.3789 52.6548C50.6604 52.3457 50.8292 52.0647 50.8855 51.8118C50.9418 51.559 50.8574 51.3061 50.6322 51.1094C50.5196 50.997 50.3789 50.9408 50.21 50.9408C50.0693 50.9408 49.9004 50.997 49.7316 51.0532C49.5627 51.1375 49.3375 51.2499 49.0842 51.4185C48.7465 51.6433 48.4369 51.8118 48.1836 51.9242C47.9303 52.0366 47.677 52.0928 47.4237 52.0647C47.1704 52.0366 46.9452 51.9242 46.72 51.6995C46.523 51.5028 46.3823 51.2499 46.326 50.997C46.2697 50.716 46.2979 50.4632 46.4104 50.1541C46.523 49.8731 46.72 49.5921 46.9733 49.3112C47.2267 49.0583 47.5081 48.8616 47.7895 48.7211C48.0991 48.5806 48.3806 48.4963 48.6902 48.4963L48.8591 48.974C48.5495 49.0021 48.268 49.0583 48.0147 49.1707C47.7614 49.2831 47.5362 49.4517 47.3392 49.6483C47.0578 49.9293 46.8889 50.2103 46.8608 50.4913C46.8326 50.7722 46.9171 51.0251 47.1141 51.2218C47.3111 51.3904 47.5081 51.4747 47.7333 51.4185C47.9584 51.3623 48.268 51.2218 48.6057 50.997C48.9998 50.7441 49.3094 50.5756 49.5627 50.4632C49.816 50.3508 50.0412 50.2946 50.2945 50.2946C50.5478 50.2946 50.7729 50.407 50.9981 50.6317C51.1951 50.8284 51.3358 51.0813 51.3921 51.3342C51.4484 51.5871 51.4203 51.868 51.2795 52.149C51.167 52.43 50.97 52.711 50.6885 52.9919C50.1537 53.5539 49.5627 53.863 48.9153 53.9192Z" fill="black"/>
<path d="M54.4318 48.8899C54.0096 48.9742 53.6156 48.9461 53.1934 48.8056C52.7712 48.6651 52.3772 48.3841 52.0113 47.9908C51.6454 47.5974 51.3922 47.204 51.2514 46.7826C51.1107 46.3611 51.1107 45.9396 51.2233 45.5463C51.3359 45.1529 51.5892 44.7876 51.9269 44.4505C52.1802 44.1976 52.4617 44.029 52.7431 43.8885C53.0246 43.7761 53.3341 43.6918 53.6437 43.7199L53.7844 44.1976C53.4467 44.2257 53.1653 44.2819 52.9401 44.3662C52.715 44.4505 52.4898 44.619 52.2646 44.8157C51.8425 45.2091 51.6736 45.6306 51.6736 46.1082C51.7018 46.5859 51.955 47.0635 52.4054 47.5693C52.8838 48.075 53.3341 48.3279 53.8126 48.3841C54.291 48.4403 54.7414 48.2717 55.1354 47.8784C55.3324 47.6817 55.5013 47.4569 55.6138 47.2321C55.7264 47.0073 55.8109 46.7264 55.839 46.3892L56.3174 46.5578C56.3174 46.8669 56.233 47.1478 56.0923 47.4288C55.9516 47.7098 55.7545 47.9627 55.5012 48.2155C55.2198 48.5808 54.8258 48.7775 54.4318 48.8899Z" fill="black"/>
<path d="M58.8222 45.2089L55.4448 41.3315L55.8951 40.9381L58.9629 44.4222L60.9049 42.7364L61.2426 43.1297L58.8222 45.2089Z" fill="black"/>
<path d="M63.1285 41.5282L59.8638 37.5384L60.3141 37.145L63.5789 41.1349L63.1285 41.5282Z" fill="black"/>
<path d="M65.605 33.0145L66.0553 32.6774L69.2076 36.7515L68.8417 37.0325L63.86 35.6276L66.3931 38.915L65.9427 39.2522L62.7905 35.178L63.1564 34.8971L68.138 36.3019L65.605 33.0145Z" fill="black"/>
<path d="M71.6284 35.0095L68.6169 30.823L69.0954 30.4858L72.1069 34.6724L71.6284 35.0095Z" fill="black"/>
<path d="M75.1744 32.1998C74.7522 32.2279 74.3582 32.1155 73.9641 31.8907C73.5701 31.6659 73.2324 31.3288 72.9509 30.8792C72.6414 30.4296 72.4725 29.9801 72.4162 29.5586C72.3599 29.1371 72.4162 28.7157 72.6132 28.3504C72.7821 27.9851 73.0917 27.648 73.4857 27.367C73.7953 27.1703 74.0767 27.0298 74.3863 26.9736C74.6959 26.8893 75.0055 26.8893 75.3151 26.9455L75.3713 27.4513C75.0618 27.4232 74.7522 27.4232 74.4989 27.4794C74.2456 27.5356 73.9923 27.648 73.7671 27.7885C73.2887 28.0975 73.0354 28.4909 72.9791 28.9686C72.9228 29.4462 73.0917 29.952 73.4576 30.5139C73.8234 31.0759 74.2456 31.4131 74.724 31.5535C75.1744 31.694 75.6528 31.6097 76.1313 31.2726C76.3564 31.104 76.5534 30.9354 76.7223 30.7106C76.863 30.5139 76.9756 30.233 77.0882 29.9239L77.5385 30.1768C77.4822 30.4858 77.3415 30.7668 77.1726 31.0197C76.9756 31.2726 76.7504 31.4973 76.4408 31.694C75.9905 32.0312 75.5965 32.1717 75.1744 32.1998Z" fill="black"/>
<path d="M79.4805 28.9686L79.4524 28.4628C79.7901 28.519 80.0715 28.519 80.353 28.4628C80.6344 28.4066 80.9159 28.2942 81.2255 28.0975C81.5913 27.8728 81.8165 27.648 81.9291 27.3951C82.0416 27.1422 82.0135 26.8894 81.8728 26.6365C81.7884 26.496 81.6758 26.4117 81.5069 26.3555C81.3662 26.3274 81.1973 26.3274 81.0003 26.3555C80.8314 26.3836 80.5781 26.4679 80.2967 26.5522C79.9027 26.6927 79.5649 26.777 79.3116 26.8051C79.0302 26.8613 78.7769 26.8332 78.5517 26.7489C78.3266 26.6646 78.1296 26.496 77.9607 26.2431C77.82 25.9902 77.7355 25.7374 77.7637 25.4564C77.7918 25.1754 77.8763 24.9225 78.0451 24.6696C78.214 24.4168 78.4673 24.192 78.8051 23.9953C79.1146 23.7986 79.4242 23.6862 79.7338 23.63C80.0434 23.5738 80.353 23.5738 80.6626 23.63L80.7188 24.1358C80.4093 24.0796 80.0997 24.0796 79.8464 24.1358C79.5931 24.192 79.3398 24.2763 79.0865 24.4449C78.7488 24.6415 78.5236 24.8944 78.411 25.1473C78.2984 25.4002 78.3266 25.6812 78.4955 25.934C78.6362 26.1588 78.8051 26.2712 79.0584 26.2712C79.2835 26.2712 79.6212 26.215 80.0152 26.0745C80.4374 25.934 80.8033 25.8497 81.0566 25.7935C81.3099 25.7374 81.5632 25.7374 81.8165 25.8216C82.0416 25.8778 82.2386 26.0464 82.4075 26.2993C82.5482 26.5522 82.6327 26.8051 82.6045 27.086C82.5764 27.367 82.492 27.6199 82.295 27.8728C82.0979 28.1256 81.8446 28.3504 81.535 28.5471C80.8033 28.9405 80.1278 29.1091 79.4805 28.9686Z" fill="black"/>
<path d="M86.0665 25.4564C85.6443 25.4564 85.2503 25.3159 84.8844 25.063C84.5186 24.8101 84.209 24.4449 83.9557 23.9672C83.7024 23.4895 83.5617 23.04 83.5335 22.5904C83.5054 22.1409 83.5898 21.7475 83.815 21.3822C84.0401 21.017 84.3497 20.736 84.7719 20.4831C85.0814 20.3145 85.391 20.2021 85.7006 20.1459C86.0102 20.0897 86.3198 20.1178 86.6012 20.2021L86.6293 20.7079C86.3197 20.6517 86.0102 20.6236 85.7569 20.6798C85.5036 20.7079 85.2503 20.7922 84.997 20.9327C84.4904 21.2136 84.209 21.5789 84.1246 22.0566C84.0402 22.5342 84.1527 23.0681 84.4904 23.6581C84.8281 24.2482 85.2222 24.6415 85.6725 24.8101C86.1228 24.9787 86.6012 24.9225 87.0796 24.6415C87.3329 24.5011 87.5299 24.3325 87.6988 24.1358C87.8676 23.9391 88.0084 23.6862 88.1209 23.3772L88.5431 23.6581C88.4587 23.9391 88.318 24.2201 88.0928 24.473C87.8958 24.7258 87.6144 24.9225 87.3048 25.0911C86.9108 25.344 86.4886 25.4564 86.0665 25.4564Z" fill="black"/>
<path d="M91.2453 22.9556L88.9092 18.3757L89.4439 18.0947L91.5549 22.2251L93.8628 21.045L94.088 21.4945L91.2453 22.9556Z" fill="black"/>
<path d="M96.3113 20.4549L94.116 15.7907L94.6507 15.5378L96.8461 20.202L96.3113 20.4549Z" fill="black"/>
<path d="M100.814 12.7845L101.321 12.5597L103.376 17.2801L102.953 17.4487L98.4502 14.8637L100.083 18.6569L99.576 18.8816L97.5215 14.1613L97.9437 13.9927L102.447 16.5776L100.814 12.7845Z" fill="black"/>
<path d="M106.162 16.1842L104.276 11.3796L104.839 11.1548L106.725 15.9595L106.162 16.1842Z" fill="black"/>
<path d="M110.299 14.3578C109.877 14.2735 109.511 14.0768 109.201 13.7677C108.892 13.4586 108.639 13.0372 108.47 12.5314C108.301 12.0257 108.216 11.548 108.273 11.1265C108.329 10.677 108.47 10.3117 108.751 10.0026C109.033 9.69356 109.398 9.44069 109.849 9.2721C110.187 9.15971 110.524 9.10352 110.834 9.10352C111.143 9.10352 111.453 9.15971 111.734 9.3002L111.678 9.80595C111.369 9.69356 111.087 9.63737 110.834 9.60927C110.581 9.58117 110.327 9.63737 110.046 9.74976C109.511 9.94644 109.173 10.2555 109.004 10.7051C108.836 11.1546 108.864 11.6885 109.089 12.3347C109.314 12.981 109.624 13.4024 110.046 13.6553C110.468 13.9082 110.946 13.9363 111.481 13.7396C111.763 13.6553 111.988 13.5148 112.185 13.3462C112.382 13.1777 112.551 12.9529 112.719 12.6719L113.085 13.0372C112.945 13.3181 112.748 13.5429 112.522 13.7677C112.297 13.9925 111.988 14.133 111.65 14.2454C111.143 14.3858 110.693 14.442 110.299 14.3578Z" fill="black"/>
<path d="M115.28 12.3066L115.365 11.8009C115.674 11.9414 115.956 11.9976 116.237 11.9976C116.519 11.9976 116.828 11.9695 117.166 11.8571C117.56 11.7447 117.842 11.5761 118.01 11.3513C118.179 11.1265 118.208 10.8737 118.123 10.5927C118.067 10.4241 117.982 10.3117 117.842 10.2555C117.701 10.1712 117.56 10.1431 117.363 10.1431C117.166 10.1431 116.941 10.1431 116.631 10.1712C116.209 10.1993 115.871 10.1993 115.618 10.1712C115.337 10.1431 115.111 10.0588 114.886 9.94645C114.689 9.80596 114.52 9.60928 114.436 9.30021C114.351 9.01923 114.351 8.73826 114.436 8.48538C114.52 8.2325 114.661 7.97962 114.914 7.78294C115.14 7.58626 115.449 7.41767 115.815 7.30528C116.153 7.19289 116.491 7.16479 116.828 7.16479C117.166 7.19289 117.448 7.24909 117.729 7.38958L117.645 7.89533C117.363 7.75484 117.082 7.69865 116.8 7.67055C116.519 7.64245 116.265 7.69865 115.984 7.78294C115.59 7.89533 115.337 8.06392 115.168 8.2887C114.999 8.51348 114.971 8.76635 115.055 9.07543C115.14 9.32831 115.28 9.46879 115.505 9.55309C115.731 9.60928 116.068 9.63738 116.462 9.60928C116.913 9.58118 117.279 9.58118 117.56 9.58118C117.842 9.58118 118.067 9.66548 118.292 9.77787C118.517 9.89026 118.658 10.115 118.742 10.396C118.827 10.677 118.827 10.9299 118.742 11.2108C118.658 11.4637 118.489 11.6885 118.264 11.8852C118.01 12.0819 117.729 12.2505 117.363 12.3628C116.547 12.5876 115.871 12.5595 115.28 12.3066Z" fill="black"/>
<path d="M122.514 10.5085C122.12 10.3961 121.754 10.1714 121.473 9.83419C121.191 9.49702 120.966 9.07556 120.826 8.5417C120.685 8.00785 120.657 7.53019 120.741 7.10873C120.826 6.68727 121.023 6.322 121.304 6.01292C121.585 5.70385 121.979 5.50717 122.458 5.36668C122.796 5.28239 123.133 5.25429 123.443 5.28239C123.752 5.31048 124.062 5.39478 124.315 5.56336L124.203 6.06912C123.921 5.92863 123.64 5.84434 123.387 5.81624C123.133 5.78814 122.852 5.81624 122.599 5.87244C122.064 6.01292 121.67 6.2939 121.473 6.74346C121.276 7.16492 121.248 7.72687 121.417 8.37312C121.585 9.01936 121.867 9.49702 122.261 9.778C122.655 10.059 123.133 10.1152 123.668 9.97468C123.949 9.89039 124.203 9.778 124.4 9.63751C124.597 9.49702 124.794 9.27224 124.991 9.01936L125.328 9.41273C125.16 9.66561 124.963 9.89039 124.709 10.0871C124.456 10.2838 124.146 10.3961 123.809 10.5085C123.358 10.6209 122.908 10.6209 122.514 10.5085Z" fill="black"/>
<path d="M128.143 9.35635L127.017 4.32689L127.608 4.1864L128.621 8.7101L131.154 8.14815L131.267 8.65391L128.143 9.35635Z" fill="black"/>
</svg>
