<svg width="329" height="329" viewBox="0 0 329 329" fill="none" xmlns="http://www.w3.org/2000/svg">
<path d="M136.783 7.27724C136.389 7.13675 136.079 6.88387 135.798 6.5186C135.545 6.15334 135.376 5.70377 135.291 5.16992C135.207 4.63607 135.207 4.15841 135.348 3.73695C135.46 3.31548 135.685 2.97831 136.023 2.69734C136.333 2.41636 136.755 2.24778 137.233 2.16348C137.571 2.10729 137.909 2.10729 138.219 2.16348C138.528 2.21968 138.81 2.33207 139.063 2.50065L138.922 2.97831C138.641 2.80973 138.387 2.69734 138.134 2.64114C137.881 2.58495 137.628 2.58495 137.318 2.64114C136.755 2.72544 136.361 2.97831 136.108 3.39978C135.854 3.82124 135.798 4.35509 135.91 5.00134C136.023 5.67568 136.276 6.15334 136.642 6.46241C137.008 6.77148 137.459 6.88387 138.022 6.79958C138.303 6.74338 138.556 6.65909 138.782 6.5186C139.007 6.37812 139.204 6.20953 139.429 5.95665L139.739 6.37812C139.57 6.63099 139.316 6.82768 139.063 6.99626C138.782 7.16485 138.472 7.24914 138.134 7.33343C137.599 7.44582 137.149 7.41773 136.783 7.27724Z" fill="black"/>
<path d="M142.468 6.65912L141.821 1.54536L145.058 1.1239L145.114 1.62966L142.468 1.96683L142.693 3.73697L145.198 3.4279L145.255 3.93366L142.75 4.24273L142.975 6.09717L145.62 5.76L145.677 6.26575L142.468 6.65912Z" fill="black"/>
<path d="M151.503 0.50578L152.066 0.449585L152.516 5.59144L152.066 5.61953L148.604 1.77017L148.97 5.90051L148.407 5.9567L147.957 0.814853L148.407 0.786756L151.869 4.63612L151.503 0.50578Z" fill="black"/>
<path d="M156.738 5.33847L156.513 0.702375L154.711 0.786667L154.683 0.280911L158.877 0.0842285L158.905 0.589984L157.104 0.674277L157.329 5.31037L156.738 5.33847Z" fill="black"/>
<path d="M165.631 5.11375H164.984L164.084 3.4841C163.971 3.28741 163.858 3.14693 163.69 3.09073C163.521 3.03453 163.352 2.97834 163.098 2.97834L162.142 3.00644L162.17 5.16995H161.579L161.494 0.0280975L163.605 0C164.168 0 164.59 0.11239 164.9 0.365268C165.209 0.618146 165.35 0.983414 165.35 1.46107C165.35 1.85444 165.237 2.19161 165.012 2.44449C164.787 2.69736 164.478 2.86595 164.055 2.92214C164.196 2.95024 164.309 3.03454 164.393 3.11883C164.506 3.20312 164.59 3.34361 164.675 3.4841L165.631 5.11375ZM163.605 2.47258C163.999 2.47258 164.309 2.38829 164.506 2.21971C164.703 2.05112 164.787 1.79824 164.787 1.46107C164.787 1.1239 164.675 0.899121 164.478 0.730536C164.28 0.561951 163.971 0.505756 163.577 0.505756L162.085 0.533853L162.113 2.50068L163.605 2.47258Z" fill="black"/>
<path d="M172.189 5.33845L171.654 3.98977L168.952 3.90547L168.333 5.19796L167.714 5.16986L170.163 0.112305L170.669 0.140402L172.752 5.36655L172.189 5.33845ZM169.206 3.39972L171.485 3.48401L170.444 0.814743L169.206 3.39972Z" fill="black"/>
<path d="M175.257 5.50709L175.651 0.365234L176.242 0.421429L175.904 5.05753L178.494 5.25421L178.465 5.75996L175.257 5.50709Z" fill="black"/>
<path d="M180.914 5.98485L181.477 0.871094L184.657 1.23636L184.601 1.74212L182.012 1.46114L181.815 3.23129L184.263 3.51226L184.207 4.01802L181.758 3.73704L181.505 6.09724L180.914 5.98485Z" fill="black"/>
<path d="M190.117 7.22102L189.752 5.81614L187.078 5.42278L186.318 6.65907L185.698 6.57478L188.71 1.82629L189.217 1.91059L190.708 7.33341L190.117 7.22102ZM187.359 4.94512L189.611 5.28229L188.879 2.50064L187.359 4.94512Z" fill="black"/>
<path d="M197.097 6.2658C197.21 6.51868 197.238 6.79965 197.182 7.10873C197.097 7.55829 196.872 7.86736 196.534 8.03595C196.197 8.20453 195.746 8.26073 195.212 8.14834L193.101 7.72687L194.086 2.66931L196.112 3.06268C196.647 3.17507 197.013 3.34365 197.266 3.65273C197.52 3.9337 197.576 4.29897 197.52 4.72043C197.463 5.00141 197.351 5.22619 197.182 5.39478C197.013 5.56336 196.788 5.67575 196.506 5.70385C196.788 5.81624 196.985 6.01292 197.097 6.2658ZM196.197 7.58639C196.422 7.47399 196.563 7.27731 196.619 6.96824C196.732 6.35009 196.422 5.95673 195.634 5.81624L194.17 5.53526L193.804 7.3616L195.268 7.64258C195.69 7.72687 196 7.69878 196.197 7.58639ZM194.255 5.02951L195.606 5.28239C195.972 5.36668 196.281 5.33858 196.506 5.22619C196.732 5.1138 196.872 4.91712 196.929 4.60804C197.041 4.04609 196.703 3.68082 195.943 3.51224L194.592 3.25936L194.255 5.02951Z" fill="black"/>
<path d="M203.598 10.0028L202.951 9.86231L202.473 8.06407C202.416 7.83929 202.332 7.6707 202.191 7.58641C202.079 7.47402 201.882 7.38973 201.657 7.33353L200.728 7.10875L200.221 9.21607L199.658 9.07558L200.869 4.07422L202.923 4.55188C203.458 4.69236 203.852 4.88905 204.077 5.19812C204.302 5.50719 204.358 5.90056 204.246 6.37822C204.161 6.77158 203.964 7.05256 203.683 7.24924C203.401 7.44592 203.064 7.50212 202.642 7.47402C202.754 7.53022 202.867 7.64261 202.923 7.755C203.007 7.86739 203.064 8.00787 203.092 8.17646L203.598 10.0028ZM202.276 6.94017C202.67 7.02446 202.979 7.02446 203.204 6.91207C203.43 6.79968 203.598 6.5749 203.655 6.23773C203.739 5.92866 203.683 5.64768 203.542 5.451C203.401 5.25432 203.12 5.11383 202.726 5.00144L201.291 4.66427L200.84 6.603L202.276 6.94017Z" fill="black"/>
<path d="M206.16 10.6771L207.511 5.70386L208.102 5.87244L206.751 10.8457L206.16 10.6771Z" fill="black"/>
<path d="M210.607 11.6886C210.325 11.3796 210.156 11.0143 210.072 10.5647C210.016 10.1152 210.044 9.6656 210.213 9.13175C210.382 8.5979 210.607 8.20453 210.916 7.86736C211.226 7.55829 211.564 7.33351 211.986 7.24922C212.38 7.16492 212.83 7.16492 213.308 7.33351C213.646 7.4459 213.956 7.58639 214.209 7.78307C214.462 7.97975 214.659 8.20453 214.8 8.48551L214.434 8.85078C214.265 8.5698 214.068 8.37312 213.871 8.20453C213.674 8.03595 213.421 7.92356 213.168 7.83926C212.633 7.67068 212.155 7.72687 211.761 7.97975C211.367 8.23263 211.057 8.68219 210.86 9.32843C210.663 9.97468 210.663 10.5085 210.832 10.9581C211.029 11.4077 211.395 11.7167 211.929 11.8853C212.211 11.9696 212.464 11.9977 212.717 11.9977C212.971 11.9977 213.252 11.9134 213.562 11.7729L213.646 12.2787C213.365 12.4192 213.083 12.5035 212.774 12.5035C212.464 12.5035 212.126 12.4754 211.789 12.363C211.254 12.2225 210.888 11.9977 210.607 11.6886Z" fill="black"/>
<path d="M219.585 14.9478L219.501 13.5149L216.968 12.6157L215.983 13.6834L215.392 13.4868L219.247 9.38452L219.726 9.55311L220.148 15.1726L219.585 14.9478ZM217.305 12.2224L219.444 12.981L219.247 10.1151L217.305 12.2224Z" fill="black"/>
<path d="M223.047 16.2966L224.764 11.9977L223.103 11.3234L223.3 10.8457L227.212 12.3911L227.015 12.8687L225.355 12.1944L223.638 16.4933L223.047 16.2966Z" fill="black"/>
<path d="M227.521 18.1508L229.576 13.4304L230.139 13.6833L228.084 18.4037L227.521 18.1508Z" fill="black"/>
<path d="M231.743 19.7526C231.518 19.4154 231.406 19.0221 231.406 18.5725C231.406 18.1229 231.518 17.6734 231.743 17.1957C231.968 16.7181 232.25 16.3247 232.616 16.0437C232.953 15.7627 233.319 15.5942 233.741 15.5661C234.164 15.538 234.586 15.6223 235.008 15.8189C235.43 16.0156 235.768 16.2966 235.993 16.6338C236.218 16.9709 236.331 17.3643 236.331 17.8139C236.331 18.2634 236.218 18.713 235.993 19.1906C235.768 19.6683 235.486 20.0617 235.121 20.3426C234.783 20.6236 234.389 20.7922 233.995 20.8203C233.573 20.8484 233.15 20.7922 232.728 20.5674C232.306 20.3707 231.968 20.0898 231.743 19.7526ZM234.333 20.146C234.755 19.9493 235.121 19.5278 235.43 18.9097C235.712 18.2915 235.824 17.7577 235.683 17.3081C235.571 16.8585 235.261 16.4933 234.755 16.2685C234.248 16.0437 233.798 16.0156 233.376 16.2123C232.953 16.409 232.587 16.8305 232.278 17.4205C231.996 18.0386 231.912 18.5725 232.025 19.0221C232.137 19.4997 232.447 19.8369 232.925 20.0617C233.432 20.3426 233.91 20.3707 234.333 20.146Z" fill="black"/>
<path d="M238.188 23.2085L240.356 19.1062L238.78 18.2633L239.005 17.8137L242.72 19.7806L242.495 20.2301L240.89 19.3872L238.723 23.4894L238.188 23.2085Z" fill="black"/>
<path d="M243.086 25.5968C242.889 25.2315 242.804 24.8382 242.832 24.3886C242.861 23.939 243.001 23.4895 243.283 23.0399C243.564 22.5622 243.874 22.2251 244.24 21.9722C244.606 21.7193 245 21.6069 245.422 21.6069C245.844 21.6069 246.266 21.7193 246.688 21.9722C246.998 22.1408 247.251 22.3656 247.448 22.5903C247.645 22.8432 247.786 23.0961 247.871 23.4052L247.448 23.6862C247.336 23.3771 247.195 23.1242 247.054 22.9275C246.914 22.7308 246.688 22.5623 246.435 22.4218C245.957 22.1408 245.478 22.0846 245.028 22.2532C244.578 22.4218 244.183 22.787 243.846 23.3771C243.508 23.9671 243.367 24.501 243.452 24.9786C243.536 25.4563 243.818 25.8216 244.324 26.1025C244.578 26.243 244.831 26.3273 245.084 26.3835C245.337 26.4397 245.619 26.4116 245.957 26.3554L245.928 26.8612C245.619 26.9455 245.337 26.9455 245 26.8893C244.69 26.8331 244.381 26.7207 244.071 26.5521C243.621 26.2711 243.311 25.9621 243.086 25.5968Z" fill="black"/>
<path d="M247.898 28.7438L250.657 24.3887L253.415 26.1307L253.162 26.5522L250.91 25.1192L249.925 26.6365L252.064 27.9852L251.811 28.4066L249.672 27.0579L248.687 28.6314L250.938 30.0644L250.685 30.4858L247.898 28.7438Z" fill="black"/>
<path d="M258.79 29.7274L259.241 30.0364L256.314 34.2792L255.948 34.0263L255.751 28.8563L253.387 32.2562L252.937 31.9471L255.863 27.7043L256.229 27.9572L256.426 33.1272L258.79 29.7274Z" fill="black"/>
<path d="M259.719 36.7796L262.506 33.0707L261.07 32.003L261.38 31.5815L264.729 34.1103L264.419 34.5318L262.984 33.4641L260.198 37.1729L259.719 36.7796Z" fill="black"/>
<path d="M266.699 42.2869L266.192 41.8655L266.558 40.0391C266.615 39.8144 266.587 39.6177 266.53 39.4772C266.474 39.3367 266.333 39.1681 266.136 39.0276L265.376 38.4095L263.997 40.0953L263.547 39.7301L266.812 35.7402L268.444 37.0889C268.866 37.4542 269.12 37.8194 269.204 38.1847C269.288 38.55 269.148 38.9433 268.866 39.3086C268.613 39.6177 268.332 39.7863 267.994 39.8425C267.656 39.8987 267.318 39.8144 266.952 39.5896C267.037 39.702 267.065 39.8144 267.093 39.9549C267.121 40.0953 267.093 40.2358 267.065 40.4044L266.699 42.2869ZM266.868 38.9714C267.178 39.2243 267.459 39.3367 267.712 39.3367C267.966 39.3367 268.219 39.1962 268.416 38.9433C268.613 38.6905 268.697 38.4376 268.669 38.1847C268.613 37.9318 268.444 37.679 268.135 37.4261L266.981 36.4989L265.714 38.0442L266.868 38.9714Z" fill="black"/>
<path d="M271.625 46.6139L272.075 45.2371L270.077 43.4389L268.782 44.057L268.332 43.6356L273.454 41.3035L273.848 41.6406L272.103 46.9792L271.625 46.6139ZM270.583 43.2422L272.272 44.7595L273.172 42.034L270.583 43.2422Z" fill="black"/>
<path d="M273.904 48.7213L277.478 45.0125L277.901 45.4339L274.664 48.7775L276.522 50.5758L276.156 50.941L273.904 48.7213Z" fill="black"/>
<path d="M277.929 52.6829L281.644 49.1145L283.867 51.4185L283.501 51.7557L281.7 49.9012L280.434 51.1375L282.15 52.9077L281.785 53.2448L280.068 51.4747L278.351 53.1324L277.929 52.6829Z" fill="black"/>
<path d="M284.261 59.4545L284.852 58.1339L283.051 56.139L281.672 56.5886L281.25 56.139L286.597 54.397L286.935 54.7903L284.599 59.9041L284.261 59.4545ZM283.558 55.9704L285.078 57.6563L286.288 55.0432L283.558 55.9704Z" fill="black"/>
<path d="M290.256 63.1913C290.2 63.4442 290.031 63.697 289.778 63.8937C289.44 64.1747 289.074 64.2871 288.68 64.2028C288.286 64.1185 287.948 63.8656 287.582 63.4442L286.203 61.7864L290.2 58.5271L291.523 60.1287C291.86 60.5501 292.029 60.9435 292.029 61.3087C292.029 61.674 291.86 62.0112 291.551 62.2922C291.326 62.4607 291.1 62.5731 290.847 62.5731C290.594 62.5731 290.369 62.5169 290.115 62.4046C290.284 62.6574 290.312 62.9103 290.256 63.1913ZM288.708 63.6408C288.933 63.697 289.187 63.6127 289.44 63.4161C289.918 63.0227 289.918 62.5169 289.412 61.8988L288.455 60.7468L287.019 61.9269L287.976 63.0789C288.23 63.388 288.455 63.5846 288.708 63.6408ZM288.849 60.4377L289.721 61.5054C289.975 61.8145 290.2 61.9831 290.453 62.0393C290.706 62.0955 290.932 62.0112 291.157 61.8426C291.607 61.4773 291.579 60.9716 291.1 60.3815L290.228 59.3138L288.849 60.4377Z" fill="black"/>
<path d="M292.874 70.1876L292.48 69.6538L293.268 67.968C293.352 67.7713 293.408 67.5746 293.38 67.406C293.352 67.2374 293.268 67.0688 293.127 66.8721L292.536 66.1135L290.791 67.4341L290.425 66.9564L294.534 63.8657L295.801 65.5516C296.138 66.0011 296.307 66.4226 296.279 66.7879C296.251 67.1812 296.054 67.5184 295.66 67.7994C295.35 68.0522 295.013 68.1365 294.675 68.1084C294.337 68.0803 294.028 67.9118 293.718 67.6027C293.774 67.7432 293.774 67.8556 293.774 67.996C293.774 68.1365 293.718 68.277 293.633 68.4456L292.874 70.1876ZM293.802 66.9845C294.056 67.2936 294.281 67.4903 294.534 67.5465C294.787 67.6027 295.041 67.5184 295.322 67.3217C295.575 67.125 295.716 66.9002 295.744 66.6474C295.744 66.3945 295.632 66.1135 295.407 65.7764L294.506 64.5963L292.93 65.7764L293.802 66.9845Z" fill="black"/>
<path d="M294.422 72.3511L298.643 69.3728L298.981 69.8505L294.759 72.8288L294.422 72.3511Z" fill="black"/>
<path d="M297.208 75.9197C297.18 75.4983 297.292 75.1049 297.517 74.7115C297.743 74.3182 298.08 73.981 298.531 73.7C298.981 73.419 299.431 73.2224 299.854 73.1662C300.276 73.11 300.698 73.1662 301.064 73.3628C301.43 73.5595 301.767 73.8405 302.021 74.262C302.218 74.571 302.358 74.852 302.415 75.1611C302.499 75.4702 302.499 75.7792 302.443 76.0883L301.936 76.1445C301.964 75.8354 301.965 75.5264 301.908 75.2735C301.852 75.0206 301.739 74.7677 301.599 74.5429C301.289 74.0653 300.895 73.8124 300.416 73.7562C299.938 73.7 299.431 73.8686 298.868 74.2339C298.306 74.5991 297.94 75.0206 297.799 75.4702C297.658 75.9197 297.743 76.3974 298.052 76.875C298.221 77.1279 298.39 77.2965 298.615 77.4651C298.812 77.6056 299.094 77.7461 299.403 77.8303L299.15 78.2799C298.84 78.2237 298.559 78.0832 298.306 77.8865C298.052 77.6899 297.827 77.4651 297.63 77.156C297.349 76.7626 297.208 76.3412 297.208 75.9197Z" fill="black"/>
<path d="M302.049 84.1521L302.893 82.972L301.514 80.668L300.079 80.8647L299.769 80.3309L305.37 79.6284L305.623 80.078L302.358 84.6579L302.049 84.1521ZM302.021 80.6118L303.175 82.5506L304.863 80.2185L302.021 80.6118Z" fill="black"/>
<path d="M303.878 87.4116L307.959 85.1637L307.087 83.5903L307.537 83.3374L309.563 87.0182L309.113 87.2711L308.241 85.6976L304.16 87.9454L303.878 87.4116Z" fill="black"/>
<path d="M306.158 91.6822L310.745 89.3501L311.027 89.8839L306.439 92.216L306.158 91.6822Z" fill="black"/>
<path d="M308.381 95.5879C308.438 95.1665 308.578 94.8012 308.86 94.464C309.141 94.1268 309.507 93.8459 310.014 93.6211C310.492 93.3963 310.971 93.2839 311.421 93.2839C311.871 93.2839 312.266 93.3963 312.603 93.6211C312.941 93.8459 313.223 94.183 313.42 94.6326C313.617 95.0822 313.701 95.5036 313.673 95.897C313.645 96.2903 313.476 96.6837 313.194 97.0209C312.913 97.358 312.519 97.639 312.04 97.8638C311.562 98.0886 311.083 98.201 310.661 98.201C310.239 98.201 309.817 98.0886 309.479 97.8638C309.141 97.639 308.86 97.3018 308.663 96.8804C308.409 96.4027 308.353 95.9813 308.381 95.5879ZM310.126 97.5547C310.577 97.6671 311.14 97.5828 311.759 97.3018C312.378 97.0209 312.8 96.6556 312.997 96.2342C313.194 95.8127 313.194 95.335 312.941 94.8574C312.716 94.3516 312.35 94.0426 311.9 93.9302C311.449 93.8178 310.886 93.9021 310.295 94.183C309.676 94.464 309.282 94.8293 309.057 95.2507C308.86 95.6722 308.86 96.1499 309.085 96.6275C309.31 97.1333 309.676 97.4423 310.126 97.5547Z" fill="black"/>
<path d="M311.14 102.359L315.418 100.561L314.714 98.9032L315.192 98.7065L316.825 102.584L316.346 102.781L315.643 101.123L311.365 102.921L311.14 102.359Z" fill="black"/>
<path d="M313.419 107.304C313.504 106.883 313.672 106.518 313.982 106.209C314.292 105.9 314.685 105.647 315.192 105.45C315.699 105.253 316.177 105.197 316.599 105.225C317.05 105.253 317.415 105.422 317.753 105.675C318.091 105.928 318.316 106.293 318.485 106.743C318.598 107.08 318.682 107.389 318.682 107.726C318.682 108.035 318.626 108.344 318.485 108.625L317.978 108.569C318.091 108.26 318.147 107.979 318.147 107.726C318.147 107.473 318.091 107.22 318.006 106.939C317.809 106.405 317.472 106.068 317.021 105.9C316.571 105.731 316.036 105.787 315.389 106.012C314.742 106.237 314.32 106.574 314.095 106.995C313.869 107.417 313.841 107.895 314.038 108.428C314.151 108.709 314.263 108.934 314.432 109.131C314.601 109.327 314.826 109.496 315.108 109.665L314.742 110.03C314.46 109.889 314.207 109.721 314.01 109.468C313.813 109.215 313.644 108.934 313.503 108.597C313.391 108.147 313.335 107.726 313.419 107.304Z" fill="black"/>
<path d="M315.136 112.784L320.033 111.154L321.046 114.245L320.568 114.413L319.724 111.884L318.035 112.446L318.823 114.835L318.344 115.003L317.556 112.615L315.783 113.205L316.628 115.734L316.149 115.902L315.136 112.784Z" fill="black"/>
<path d="M322.876 120.454L323.017 120.988L318.063 122.393L317.951 121.943L321.074 117.813L317.078 118.937L316.937 118.403L321.891 116.998L322.003 117.448L318.879 121.578L322.876 120.454Z" fill="black"/>
<path d="M319.133 126.495L323.664 125.399L323.242 123.657L323.748 123.545L324.733 127.619L324.227 127.731L323.804 125.989L319.273 127.085L319.133 126.495Z" fill="black"/>
<path d="M320.99 135.177L320.849 134.531L322.313 133.351C322.482 133.21 322.594 133.07 322.651 132.901C322.707 132.733 322.707 132.536 322.651 132.311L322.454 131.356L320.315 131.777L320.202 131.187L325.268 130.176L325.69 132.255C325.803 132.817 325.746 133.238 325.578 133.576C325.381 133.913 325.071 134.138 324.593 134.222C324.198 134.306 323.861 134.25 323.579 134.081C323.298 133.913 323.073 133.632 322.932 133.21C322.932 133.351 322.876 133.463 322.819 133.576C322.735 133.688 322.651 133.8 322.51 133.913L320.99 135.177ZM323.242 132.705C323.326 133.098 323.467 133.379 323.664 133.547C323.861 133.716 324.142 133.744 324.452 133.688C324.79 133.632 324.987 133.491 325.127 133.267C325.24 133.042 325.268 132.733 325.184 132.339L324.902 130.878L322.96 131.272L323.242 132.705Z" fill="black"/>
<path d="M322.031 141.64L323.242 140.881L322.819 138.212L321.412 137.847L321.328 137.229L326.76 138.69L326.844 139.195L322.088 142.23L322.031 141.64ZM323.382 138.352L323.72 140.6L326.169 139.083L323.382 138.352Z" fill="black"/>
<path d="M322.426 144.702L327.548 144.112L327.604 144.702L322.988 145.236L323.27 147.793L322.763 147.849L322.426 144.702Z" fill="black"/>
<path d="M323.017 150.322L328.167 149.928L328.42 153.103L327.914 153.132L327.717 150.547L325.944 150.687L326.141 153.132L325.634 153.16L325.437 150.715L323.073 150.884L323.017 150.322Z" fill="black"/>
<path d="M323.552 159.566L324.846 158.948L324.734 156.25L323.383 155.745L323.354 155.126L328.589 157.178L328.617 157.683L323.552 160.156V159.566ZM325.24 156.447L325.325 158.723L327.914 157.487L325.24 156.447Z" fill="black"/>
<path d="M325.775 166.281C325.55 166.45 325.296 166.506 324.959 166.506C324.508 166.506 324.171 166.338 323.917 166.057C323.664 165.776 323.58 165.326 323.58 164.792L323.608 162.657L328.758 162.741L328.73 164.82C328.73 165.354 328.589 165.747 328.364 166.057C328.139 166.366 327.801 166.478 327.351 166.478C327.069 166.478 326.844 166.394 326.647 166.253C326.45 166.113 326.31 165.916 326.197 165.635C326.141 165.888 326 166.113 325.775 166.281ZM324.311 165.635C324.452 165.832 324.677 165.916 325.015 165.944C325.662 165.944 325.972 165.579 325.972 164.764L326 163.275L324.114 163.247L324.086 164.736C324.086 165.129 324.171 165.438 324.311 165.635ZM326.478 163.275L326.45 164.652C326.45 165.045 326.507 165.326 326.675 165.523C326.816 165.719 327.041 165.832 327.351 165.832C327.942 165.832 328.223 165.467 328.251 164.68L328.28 163.303L326.478 163.275Z" fill="black"/>
<path d="M323.354 173.306L323.383 172.66L325.071 171.845C325.268 171.732 325.409 171.62 325.493 171.479C325.578 171.339 325.634 171.142 325.634 170.889L325.662 169.934L323.495 169.85L323.523 169.26L328.674 169.485L328.589 171.592C328.561 172.154 328.42 172.575 328.167 172.856C327.914 173.137 327.52 173.278 327.041 173.25C326.647 173.222 326.338 173.109 326.085 172.856C325.859 172.631 325.719 172.294 325.662 171.873C325.606 172.013 325.55 172.126 325.437 172.21C325.353 172.294 325.212 172.379 325.043 172.463L323.354 173.306ZM326.113 171.451C326.085 171.845 326.169 172.154 326.31 172.35C326.478 172.547 326.704 172.66 327.041 172.688C327.379 172.716 327.632 172.603 327.801 172.435C327.97 172.266 328.055 171.957 328.083 171.536L328.139 170.075L326.169 169.99L326.113 171.451Z" fill="black"/>
<path d="M323.157 175.975L328.308 176.368L328.252 176.958L323.101 176.565L323.157 175.975Z" fill="black"/>
<path d="M323.017 180.499C323.27 180.161 323.608 179.908 324.002 179.768C324.424 179.627 324.902 179.571 325.437 179.627C325.972 179.684 326.422 179.824 326.817 180.077C327.211 180.33 327.464 180.611 327.633 181.004C327.802 181.398 327.858 181.819 327.802 182.297C327.774 182.662 327.661 182.971 327.52 183.252C327.379 183.533 327.182 183.786 326.957 183.983L326.535 183.702C326.76 183.477 326.957 183.252 327.07 183.027C327.182 182.802 327.267 182.55 327.295 182.269C327.351 181.707 327.21 181.257 326.873 180.92C326.535 180.583 326.028 180.358 325.381 180.302C324.706 180.218 324.171 180.33 323.777 180.583C323.383 180.864 323.157 181.257 323.073 181.819C323.045 182.1 323.073 182.381 323.129 182.606C323.186 182.859 323.326 183.112 323.495 183.393L323.017 183.561C322.82 183.308 322.707 183.055 322.623 182.746C322.538 182.437 322.538 182.1 322.566 181.763C322.623 181.257 322.792 180.836 323.017 180.499Z" fill="black"/>
<path d="M321.525 189.939L322.932 189.574L323.326 186.905L322.088 186.146L322.172 185.528L326.929 188.535L326.844 189.04L321.412 190.501L321.525 189.939ZM323.776 187.186L323.439 189.434L326.225 188.703L323.776 187.186Z" fill="black"/>
<path d="M320.878 193.592L325.437 194.463L325.775 192.693L326.281 192.777L325.493 196.908L324.987 196.823L325.324 195.053L320.765 194.182L320.878 193.592Z" fill="black"/>
<path d="M319.892 198.341L324.93 199.464L324.789 200.055L319.752 198.931L319.892 198.341Z" fill="black"/>
<path d="M319.133 202.78C319.442 202.499 319.78 202.302 320.23 202.218C320.681 202.134 321.131 202.162 321.666 202.302C322.2 202.443 322.623 202.64 322.96 202.921C323.298 203.201 323.523 203.539 323.636 203.932C323.748 204.325 323.748 204.747 323.636 205.224C323.523 205.702 323.298 206.067 323.017 206.348C322.735 206.629 322.369 206.826 321.919 206.91C321.497 206.995 321.018 206.967 320.484 206.826C319.949 206.686 319.527 206.489 319.189 206.208C318.851 205.927 318.626 205.59 318.514 205.196C318.401 204.803 318.401 204.382 318.514 203.904C318.626 203.426 318.851 203.061 319.133 202.78ZM319.217 205.393C319.499 205.786 319.977 206.067 320.624 206.236C321.272 206.405 321.835 206.405 322.257 206.18C322.679 205.983 322.96 205.618 323.101 205.084C323.242 204.55 323.157 204.101 322.876 203.707C322.595 203.314 322.116 203.033 321.469 202.864C320.821 202.696 320.258 202.724 319.836 202.921C319.414 203.117 319.105 203.482 318.992 204.016C318.879 204.55 318.936 205 319.217 205.393Z" fill="black"/>
<path d="M316.937 209.748L321.384 211.097L321.891 209.383L322.369 209.523L321.159 213.541L320.681 213.401L321.187 211.687L316.74 210.338L316.937 209.748Z" fill="black"/>
<path d="M315.53 215.002C315.84 214.721 316.234 214.581 316.656 214.525C317.078 214.469 317.557 214.525 318.091 214.721C318.598 214.89 319.02 215.143 319.33 215.452C319.639 215.761 319.837 216.126 319.921 216.52C320.005 216.941 319.977 217.363 319.808 217.812C319.696 218.149 319.527 218.43 319.33 218.683C319.133 218.936 318.88 219.133 318.626 219.245L318.26 218.88C318.542 218.711 318.767 218.543 318.936 218.346C319.105 218.149 319.217 217.925 319.33 217.644C319.527 217.11 319.471 216.632 319.245 216.211C318.992 215.789 318.542 215.48 317.923 215.255C317.275 215.031 316.74 215.002 316.29 215.171C315.84 215.34 315.53 215.705 315.333 216.239C315.249 216.52 315.192 216.773 315.22 217.025C315.249 217.278 315.305 217.559 315.418 217.868L314.911 217.925C314.77 217.644 314.714 217.363 314.714 217.025C314.714 216.716 314.77 216.379 314.883 216.042C314.995 215.649 315.22 215.283 315.53 215.002Z" fill="black"/>
<path d="M313.363 220.313L318.176 222.167L316.994 225.202L316.543 225.033L317.5 222.561L315.84 221.915L314.911 224.275L314.461 224.106L315.39 221.746L313.645 221.072L312.688 223.544L312.237 223.376L313.363 220.313Z" fill="black"/>
<path d="M314.46 231.158L314.235 231.664L309.507 229.613L309.704 229.191L314.742 228.011L310.942 226.354L311.168 225.848L315.896 227.899L315.699 228.32L310.661 229.501L314.46 231.158Z" fill="black"/>
<path d="M307.706 233.434L311.871 235.457L312.659 233.856L313.11 234.081L311.28 237.846L310.83 237.621L311.618 236.019L307.452 233.996L307.706 233.434Z" fill="black"/>
<path d="M303.597 241.33L303.906 240.74H305.792C306.017 240.74 306.186 240.684 306.327 240.599C306.468 240.515 306.58 240.346 306.693 240.122L307.143 239.279L305.229 238.239L305.511 237.705L310.042 240.15L309.029 242.004C308.776 242.51 308.438 242.819 308.1 242.96C307.734 243.1 307.34 243.044 306.918 242.819C306.552 242.622 306.327 242.37 306.214 242.06C306.102 241.751 306.13 241.386 306.271 240.993C306.186 241.077 306.074 241.161 305.933 241.218C305.792 241.274 305.651 241.274 305.483 241.274L303.597 241.33ZM306.918 240.824C306.721 241.189 306.665 241.47 306.721 241.723C306.777 241.976 306.946 242.173 307.256 242.341C307.537 242.51 307.819 242.538 308.044 242.426C308.269 242.341 308.494 242.117 308.691 241.751L309.395 240.459L307.65 239.532L306.918 240.824Z" fill="black"/>
<path d="M300.304 246.978L301.739 247.174L303.118 244.87L302.274 243.69L302.584 243.156L305.849 247.736L305.595 248.186L299.994 247.483L300.304 246.978ZM303.428 245.292L302.274 247.23L305.117 247.596L303.428 245.292Z" fill="black"/>
<path d="M298.644 249.59L302.978 252.4L302.64 252.906L298.756 250.377L297.349 252.541L296.927 252.26L298.644 249.59Z" fill="black"/>
<path d="M295.519 254.283L299.741 257.233L297.911 259.846L297.489 259.565L298.981 257.458L297.517 256.446L296.11 258.441L295.688 258.16L297.095 256.165L295.153 254.817L295.519 254.283Z" fill="black"/>
<path d="M290.031 261.757L291.438 262.094L293.071 259.958L292.367 258.694L292.733 258.216L295.463 263.133L295.153 263.555L289.665 262.234L290.031 261.757ZM293.324 260.436L291.945 262.234L294.731 262.937L293.324 260.436Z" fill="black"/>
<path d="M287.498 268.36C287.216 268.36 286.963 268.247 286.71 268.022C286.372 267.741 286.175 267.404 286.203 267.011C286.203 266.618 286.372 266.224 286.738 265.803L288.117 264.145L292.085 267.432L290.762 269.034C290.425 269.455 290.059 269.68 289.693 269.764C289.327 269.849 288.989 269.736 288.652 269.455C288.427 269.287 288.314 269.062 288.23 268.837C288.173 268.612 288.173 268.36 288.258 268.079C288.033 268.275 287.779 268.36 287.498 268.36ZM286.766 266.927C286.766 267.18 286.879 267.404 287.132 267.601C287.611 267.994 288.117 267.91 288.624 267.292L289.58 266.14L288.145 264.932L287.188 266.084C286.907 266.393 286.766 266.674 286.766 266.927ZM289.946 266.449L289.046 267.517C288.792 267.826 288.68 268.079 288.68 268.332C288.68 268.584 288.792 268.809 289.018 269.006C289.468 269.371 289.946 269.259 290.453 268.669L291.353 267.601L289.946 266.449Z" fill="black"/>
<path d="M281.109 272.237L281.559 271.759L283.389 272.209C283.614 272.265 283.783 272.265 283.952 272.209C284.092 272.153 284.261 272.04 284.43 271.844L285.077 271.141L283.445 269.68L283.839 269.231L287.667 272.687L286.231 274.26C285.865 274.682 285.471 274.906 285.106 274.962C284.711 275.019 284.346 274.878 284.008 274.569C283.698 274.288 283.558 274.007 283.529 273.67C283.501 273.333 283.614 272.996 283.839 272.63C283.726 272.715 283.586 272.743 283.473 272.743C283.332 272.743 283.192 272.743 283.023 272.687L281.109 272.237ZM284.43 272.546C284.149 272.855 284.036 273.108 284.008 273.389C283.98 273.67 284.12 273.895 284.374 274.12C284.627 274.344 284.88 274.429 285.106 274.401C285.359 274.372 285.612 274.204 285.894 273.895L286.879 272.799L285.415 271.478L284.43 272.546Z" fill="black"/>
<path d="M279.252 274.148L282.967 277.716L282.545 278.138L278.83 274.569L279.252 274.148Z" fill="black"/>
<path d="M276.268 277.547C276.662 277.435 277.084 277.463 277.506 277.632C277.928 277.772 278.323 278.053 278.688 278.447C279.054 278.84 279.336 279.233 279.448 279.655C279.589 280.076 279.589 280.47 279.476 280.891C279.364 281.284 279.139 281.678 278.773 282.015C278.52 282.268 278.238 282.464 277.957 282.577C277.675 282.717 277.366 282.774 277.056 282.774L276.887 282.296C277.225 282.268 277.478 282.212 277.731 282.099C277.985 281.987 278.182 281.846 278.407 281.65C278.801 281.256 278.998 280.807 278.97 280.329C278.942 279.851 278.688 279.374 278.21 278.896C277.731 278.418 277.253 278.137 276.775 278.109C276.296 278.053 275.846 278.222 275.452 278.615C275.255 278.812 275.086 279.037 274.973 279.261C274.861 279.486 274.804 279.767 274.776 280.104L274.298 279.936C274.298 279.627 274.382 279.346 274.523 279.037C274.664 278.756 274.861 278.475 275.114 278.25C275.48 277.885 275.846 277.66 276.268 277.547Z" fill="black"/>
<path d="M269.091 283.87L270.386 284.488L272.384 282.69L271.934 281.313L272.384 280.891L274.129 286.23L273.735 286.567L268.613 284.235L269.091 283.87ZM272.581 283.195L270.893 284.713L273.51 285.921L272.581 283.195Z" fill="black"/>
<path d="M266.249 286.258L269.204 289.826L270.583 288.674L270.921 289.067L267.684 291.737L267.346 291.343L268.725 290.191L265.77 286.623L266.249 286.258Z" fill="black"/>
<path d="M262.477 289.321L265.658 293.395L265.179 293.76L261.999 289.686L262.477 289.321Z" fill="black"/>
<path d="M259.044 292.243C259.466 292.214 259.86 292.299 260.254 292.495C260.648 292.692 260.986 293.029 261.295 293.451C261.605 293.9 261.802 294.322 261.887 294.743C261.971 295.165 261.915 295.586 261.774 295.951C261.633 296.317 261.324 296.654 260.958 296.935C260.564 297.216 260.17 297.384 259.747 297.413C259.325 297.441 258.931 297.356 258.565 297.16C258.199 296.963 257.833 296.626 257.524 296.204C257.214 295.783 257.017 295.333 256.933 294.912C256.848 294.49 256.905 294.069 257.045 293.704C257.186 293.338 257.468 293.001 257.862 292.72C258.228 292.439 258.65 292.271 259.044 292.243ZM257.439 294.322C257.411 294.799 257.608 295.305 258.002 295.867C258.396 296.429 258.847 296.766 259.297 296.879C259.747 296.991 260.198 296.907 260.648 296.57C261.099 296.261 261.324 295.839 261.352 295.361C261.38 294.884 261.211 294.378 260.789 293.816C260.395 293.282 259.973 292.945 259.494 292.805C259.016 292.692 258.565 292.776 258.143 293.114C257.721 293.451 257.468 293.844 257.439 294.322Z" fill="black"/>
<path d="M252.936 296.232L255.525 300.082L257.017 299.098L257.299 299.52L253.809 301.852L253.527 301.43L255.019 300.419L252.429 296.57L252.936 296.232Z" fill="black"/>
<path d="M248.489 299.407C248.911 299.407 249.305 299.52 249.671 299.745C250.037 299.969 250.375 300.335 250.656 300.784C250.938 301.234 251.107 301.683 251.135 302.133C251.191 302.582 251.107 302.976 250.91 303.341C250.713 303.706 250.403 304.015 249.981 304.268C249.671 304.465 249.362 304.577 249.052 304.634C248.742 304.69 248.433 304.69 248.123 304.634L248.067 304.128C248.377 304.184 248.686 304.184 248.94 304.128C249.193 304.072 249.446 303.987 249.699 303.847C250.178 303.538 250.459 303.173 250.544 302.695C250.628 302.217 250.488 301.683 250.122 301.121C249.756 300.531 249.362 300.194 248.911 300.026C248.461 299.885 247.983 299.941 247.504 300.25C247.251 300.391 247.054 300.588 246.913 300.784C246.744 300.981 246.632 301.234 246.519 301.543L246.097 301.262C246.181 300.953 246.294 300.7 246.491 300.447C246.688 300.194 246.941 299.969 247.251 299.801C247.645 299.548 248.067 299.407 248.489 299.407Z" fill="black"/>
<path d="M243.423 302.105L245.957 306.601L243.114 308.202L242.861 307.781L245.197 306.488L244.324 304.915L242.129 306.151L241.875 305.73L244.071 304.493L243.142 302.864L240.806 304.156L240.553 303.735L243.423 302.105Z" fill="black"/>
<path d="M237.344 311.18L236.838 311.433L234.502 306.853L234.924 306.657L239.568 308.932L237.682 305.252L238.189 304.999L240.525 309.579L240.102 309.775L235.459 307.499L237.344 311.18Z" fill="black"/>
<path d="M230.702 308.651L232.644 312.866L234.276 312.135L234.502 312.613L230.674 314.355L230.449 313.878L232.081 313.119L230.139 308.904L230.702 308.651Z" fill="black"/>
<path d="M222.512 312.136L223.131 311.883L224.566 313.091C224.735 313.232 224.904 313.316 225.073 313.344C225.242 313.372 225.439 313.316 225.664 313.232L226.565 312.866L225.748 310.843L226.311 310.618L228.253 315.395L226.283 316.182C225.777 316.407 225.326 316.435 224.96 316.322C224.594 316.21 224.313 315.929 224.144 315.479C224.003 315.114 223.975 314.777 224.088 314.468C224.2 314.159 224.454 313.878 224.82 313.681C224.679 313.681 224.538 313.681 224.426 313.625C224.285 313.569 224.172 313.484 224.032 313.372L222.512 312.136ZM225.354 313.85C224.989 313.99 224.735 314.187 224.623 314.412C224.51 314.636 224.51 314.917 224.623 315.226C224.735 315.536 224.932 315.732 225.186 315.788C225.439 315.873 225.748 315.817 226.114 315.676L227.493 315.114L226.734 313.288L225.354 313.85Z" fill="black"/>
<path d="M216.348 314.412L217.333 315.451L219.866 314.552L219.951 313.119L220.542 312.923L220.148 318.542L219.669 318.711L215.785 314.637L216.348 314.412ZM219.838 315.086L217.699 315.845L219.669 317.952L219.838 315.086Z" fill="black"/>
<path d="M213.421 315.367L214.969 320.284L214.406 320.452L213.027 316.013L210.551 316.8L210.41 316.322L213.421 315.367Z" fill="black"/>
<path d="M208.017 317.025L209.396 321.998L206.329 322.841L206.188 322.363L208.693 321.689L208.214 319.975L205.85 320.621L205.709 320.143L208.074 319.497L207.455 317.221L208.017 317.025Z" fill="black"/>
<path d="M199.011 319.301L199.855 320.453L202.473 319.834L202.726 318.43L203.317 318.289L202.276 323.824L201.769 323.937L198.392 319.441L199.011 319.301ZM202.417 320.368L200.221 320.874L201.938 323.178L202.417 320.368Z" fill="black"/>
<path d="M192.875 322.757C192.678 322.588 192.538 322.335 192.481 322.026C192.397 321.577 192.481 321.211 192.735 320.93C192.988 320.649 193.382 320.453 193.917 320.34L196.028 319.947L196.985 325.005L194.958 325.398C194.424 325.51 194.001 325.454 193.692 325.286C193.354 325.117 193.157 324.808 193.072 324.386C193.016 324.105 193.044 323.853 193.157 323.656C193.269 323.431 193.438 323.262 193.664 323.094C193.326 323.038 193.072 322.953 192.875 322.757ZM193.213 321.183C193.044 321.352 192.988 321.605 193.072 321.914C193.185 322.532 193.635 322.785 194.423 322.616L195.887 322.335L195.549 320.509L194.086 320.79C193.635 320.874 193.354 321.015 193.213 321.183ZM195.972 322.841L194.592 323.094C194.226 323.178 193.945 323.291 193.776 323.487C193.607 323.684 193.551 323.909 193.607 324.218C193.72 324.78 194.142 325.005 194.93 324.864L196.309 324.611L195.972 322.841Z" fill="black"/>
<path d="M185.445 321.689L186.093 321.604L187.19 323.122C187.331 323.29 187.472 323.431 187.612 323.487C187.753 323.543 187.978 323.543 188.204 323.515L189.16 323.374L188.851 321.211L189.442 321.127L190.202 326.212L188.091 326.521C187.528 326.606 187.106 326.549 186.768 326.325C186.43 326.128 186.233 325.791 186.177 325.313C186.121 324.92 186.177 324.583 186.374 324.302C186.571 324.021 186.853 323.824 187.275 323.712C187.134 323.684 187.021 323.655 186.909 323.571C186.796 323.487 186.684 323.374 186.571 323.234L185.445 321.689ZM187.809 324.049C187.415 324.105 187.134 324.246 186.965 324.414C186.796 324.583 186.74 324.864 186.768 325.201C186.824 325.538 186.937 325.763 187.162 325.875C187.387 325.988 187.697 326.044 188.091 325.988L189.554 325.763L189.273 323.796L187.809 324.049Z" fill="black"/>
<path d="M182.8 321.998L183.391 327.112L182.8 327.168L182.209 322.054L182.8 321.998Z" fill="black"/>
<path d="M178.325 322.7C178.691 322.869 179 323.15 179.225 323.543C179.451 323.937 179.591 324.386 179.62 324.92C179.676 325.454 179.591 325.932 179.451 326.353C179.282 326.774 179.028 327.084 178.691 327.336C178.353 327.589 177.931 327.73 177.452 327.758C177.086 327.786 176.777 327.758 176.467 327.674C176.157 327.589 175.904 327.449 175.651 327.252L175.848 326.774C176.101 326.971 176.354 327.084 176.608 327.168C176.861 327.252 177.114 327.252 177.396 327.252C177.959 327.196 178.381 326.999 178.662 326.606C178.944 326.213 179.057 325.679 179 325.004C178.944 324.33 178.747 323.824 178.409 323.487C178.071 323.15 177.621 323.009 177.058 323.038C176.777 323.066 176.523 323.122 176.27 323.234C176.017 323.347 175.82 323.515 175.566 323.74L175.313 323.29C175.51 323.066 175.763 322.869 176.045 322.757C176.326 322.616 176.664 322.532 177.002 322.504C177.508 322.447 177.931 322.532 178.325 322.7Z" fill="black"/>
<path d="M168.784 323.009L169.403 324.302L172.105 324.189L172.611 322.841L173.23 322.812L171.176 328.039L170.669 328.067L168.193 323.009H168.784ZM171.88 324.695L169.6 324.779L170.838 327.364L171.88 324.695Z" fill="black"/>
<path d="M165.04 323.038L165.125 327.674L166.926 327.646V328.151L162.732 328.208V327.702L164.534 327.674L164.449 323.038H165.04Z" fill="black"/>
<path d="M160.2 322.981L160.059 328.123L159.468 328.095L159.609 322.953L160.2 322.981Z" fill="black"/>
<path d="M155.697 323.094C156.035 323.318 156.288 323.656 156.457 324.049C156.626 324.442 156.682 324.92 156.654 325.454C156.626 325.988 156.485 326.465 156.288 326.831C156.063 327.224 155.781 327.505 155.415 327.702C155.049 327.898 154.627 327.983 154.149 327.955C153.67 327.927 153.248 327.786 152.91 327.561C152.572 327.337 152.319 326.999 152.15 326.606C151.981 326.184 151.925 325.735 151.953 325.201C151.981 324.667 152.122 324.218 152.319 323.824C152.544 323.431 152.826 323.15 153.192 322.953C153.558 322.757 153.98 322.672 154.458 322.7C154.937 322.728 155.359 322.841 155.697 323.094ZM153.135 323.656C152.798 323.993 152.629 324.527 152.572 325.201C152.544 325.875 152.657 326.409 152.938 326.803C153.22 327.196 153.642 327.393 154.177 327.421C154.712 327.449 155.162 327.308 155.472 326.943C155.809 326.606 155.978 326.072 156.035 325.398C156.063 324.723 155.95 324.19 155.669 323.796C155.387 323.403 154.965 323.206 154.43 323.15C153.895 323.15 153.445 323.318 153.135 323.656Z" fill="black"/>
<path d="M148.407 322.251L147.929 326.859L149.702 327.027L149.645 327.533L145.48 327.112L145.536 326.606L147.337 326.774L147.816 322.167L148.407 322.251Z" fill="black"/>
<path d="M142.976 321.885C143.313 322.138 143.539 322.475 143.679 322.897C143.82 323.318 143.848 323.796 143.764 324.33C143.679 324.864 143.539 325.313 143.285 325.678C143.032 326.044 142.722 326.297 142.328 326.465C141.934 326.634 141.512 326.662 141.033 326.606C140.667 326.549 140.358 326.465 140.076 326.297C139.795 326.156 139.57 325.959 139.373 325.707L139.654 325.285C139.879 325.538 140.104 325.707 140.33 325.847C140.555 325.959 140.808 326.044 141.09 326.1C141.652 326.184 142.103 326.044 142.469 325.735C142.835 325.426 143.06 324.92 143.144 324.245C143.229 323.571 143.144 323.037 142.891 322.616C142.638 322.222 142.215 321.97 141.681 321.885C141.399 321.857 141.118 321.857 140.893 321.913C140.639 321.97 140.386 322.082 140.104 322.251L139.936 321.773C140.189 321.604 140.47 321.464 140.78 321.408C141.09 321.351 141.427 321.323 141.765 321.38C142.244 321.464 142.638 321.632 142.976 321.885Z" fill="black"/>
<path d="M137.346 320.762L136.417 325.819L133.209 325.229L133.293 324.751L135.911 325.229L136.22 323.459L133.744 323.009L133.828 322.532L136.305 322.981L136.642 321.155L134.025 320.677L134.109 320.2L137.346 320.762Z" fill="black"/>
<path d="M126.876 323.909L126.313 323.796L127.439 318.767L127.89 318.879L130.029 323.599L130.929 319.553L131.492 319.666L130.366 324.695L129.916 324.583L127.777 319.862L126.876 323.909Z" fill="black"/>
<path d="M123.358 317.727L122.148 322.195L123.893 322.644L123.752 323.15L119.699 322.054L119.84 321.548L121.585 322.026L122.795 317.559L123.358 317.727Z" fill="black"/>
<path d="M114.83 315.198L115.45 315.395L115.787 317.221C115.843 317.446 115.9 317.615 116.012 317.727C116.125 317.839 116.294 317.924 116.547 318.008L117.476 318.289L118.123 316.21L118.686 316.378L117.138 321.295L115.112 320.677C114.577 320.509 114.211 320.256 113.986 319.947C113.761 319.638 113.733 319.216 113.902 318.767C114.014 318.373 114.239 318.12 114.521 317.952C114.802 317.783 115.168 317.727 115.59 317.811C115.478 317.727 115.393 317.643 115.309 317.53C115.252 317.418 115.196 317.277 115.168 317.081L114.83 315.198ZM115.928 318.345C115.534 318.233 115.224 318.205 114.999 318.317C114.774 318.429 114.605 318.626 114.492 318.935C114.38 319.244 114.408 319.525 114.549 319.722C114.69 319.947 114.943 320.087 115.337 320.228L116.744 320.677L117.335 318.795L115.928 318.345Z" fill="black"/>
<path d="M108.61 313.035L108.695 314.468L111.228 315.367L112.213 314.327L112.804 314.524L108.92 318.598L108.441 318.43L108.047 312.81L108.61 313.035ZM110.89 315.788L108.751 315.03L108.92 317.896L110.89 315.788Z" fill="black"/>
<path d="M105.768 311.939L103.826 316.715L103.263 316.491L105.008 312.192L102.615 311.208L102.812 310.731L105.768 311.939Z" fill="black"/>
<path d="M100.533 309.747L98.4219 314.44L95.5229 313.147L95.72 312.697L98.0841 313.765L98.8159 312.136L96.5925 311.124L96.7894 310.674L99.0128 311.686L99.9979 309.522L100.533 309.747Z" fill="black"/>
<path d="M92.1458 305.785L92.0614 307.218L94.4818 308.398L95.5794 307.471L96.1423 307.752L91.8081 311.377L91.3296 311.152L91.5829 305.532L92.1458 305.785ZM94.0597 308.764L92.0332 307.752L91.8643 310.618L94.0597 308.764Z" fill="black"/>
<path d="M85.1659 304.549C85.1377 304.296 85.1941 304.015 85.3348 303.734C85.5599 303.341 85.8413 303.116 86.2353 303.032C86.6293 302.948 87.0515 303.06 87.5299 303.313L89.4155 304.352L86.9389 308.876L85.1377 307.893C84.6593 307.64 84.3778 307.331 84.2371 306.994C84.0964 306.656 84.1246 306.291 84.3216 305.926C84.4623 305.673 84.6311 305.504 84.8563 305.392C85.0814 305.28 85.3347 305.252 85.588 305.28C85.3629 305.055 85.2222 304.83 85.1659 304.549ZM87.5017 306.6L86.2916 305.926C85.9539 305.729 85.6724 305.673 85.4192 305.701C85.1659 305.729 84.9688 305.898 84.8281 306.151C84.5467 306.656 84.7437 307.106 85.4192 307.471L86.6292 308.146L87.5017 306.6ZM86.4605 303.566C86.2072 303.594 86.0102 303.762 85.8695 304.043C85.5599 304.605 85.7569 305.055 86.4605 305.448L87.7831 306.179L88.6838 304.549L87.361 303.819C86.9951 303.594 86.6856 303.509 86.4605 303.566Z" fill="black"/>
<path d="M80.1561 299.014L80.7191 299.352L80.6065 301.206C80.6065 301.431 80.6346 301.627 80.7191 301.768C80.8035 301.908 80.9443 302.049 81.1694 302.161L81.9856 302.667L83.1115 300.813L83.6182 301.122L80.9443 305.533L79.143 304.437C78.6645 304.156 78.3549 303.819 78.2423 303.454C78.1297 303.089 78.1861 302.695 78.4394 302.274C78.6364 301.937 78.9178 301.712 79.2274 301.627C79.537 301.543 79.9028 301.571 80.2969 301.74C80.2124 301.627 80.1281 301.515 80.0999 301.403C80.0718 301.262 80.0436 301.122 80.0718 300.953L80.1561 299.014ZM80.4658 302.33C80.128 302.133 79.8185 302.049 79.5652 302.077C79.3119 302.105 79.0866 302.274 78.9178 302.555C78.7489 302.836 78.6926 303.089 78.777 303.341C78.8615 303.566 79.0867 303.791 79.4245 304.016L80.691 304.774L81.7323 303.089L80.4658 302.33Z" fill="black"/>
<path d="M77.9045 297.581L75.09 301.908L74.5835 301.571L77.398 297.244L77.9045 297.581Z" fill="black"/>
<path d="M73.9928 295.277C74.1617 295.67 74.2181 296.064 74.1618 296.513C74.1055 296.963 73.9084 297.384 73.5988 297.834C73.2892 298.284 72.9513 298.593 72.5573 298.817C72.1632 299.042 71.7692 299.126 71.347 299.098C70.9248 299.07 70.5307 298.902 70.1085 298.621C69.827 298.424 69.5737 298.199 69.4048 297.918C69.2359 297.665 69.0951 297.384 69.0388 297.075L69.4892 296.822C69.5737 297.132 69.6863 297.413 69.827 297.609C69.9678 297.834 70.1648 298.003 70.39 298.171C70.8404 298.508 71.3189 298.593 71.7974 298.48C72.2759 298.368 72.6981 298.031 73.064 297.469C73.4581 296.907 73.6269 296.401 73.5706 295.923C73.5143 295.446 73.2611 295.052 72.8107 294.715C72.5855 294.547 72.3322 294.434 72.0789 294.378C71.8255 294.322 71.544 294.294 71.2062 294.322L71.2906 293.816C71.6003 293.76 71.9099 293.788 72.1914 293.872C72.4729 293.957 72.8107 294.097 73.0922 294.294C73.5426 294.575 73.824 294.884 73.9928 295.277Z" fill="black"/>
<path d="M66.4496 289.433L66.1119 290.838L68.2508 292.467L69.5173 291.765L69.9958 292.13L65.0706 294.856L64.6484 294.547L65.9711 289.068L66.4496 289.433ZM67.7723 292.72L65.9711 291.344L65.2675 294.125L67.7723 292.72Z" fill="black"/>
<path d="M63.5505 287.101L60.5954 290.697L61.9746 291.821L61.6368 292.215L58.4001 289.545L58.7379 289.152L60.117 290.304L63.0722 286.707L63.5505 287.101Z" fill="black"/>
<path d="M59.8357 283.982L56.4303 287.859L55.98 287.466L59.3854 283.588L59.8357 283.982Z" fill="black"/>
<path d="M56.318 281.172C56.4306 281.565 56.4305 281.987 56.2898 282.408C56.149 282.83 55.8957 283.223 55.5297 283.616C55.1638 284.01 54.7698 284.291 54.3476 284.459C53.9254 284.628 53.5312 284.656 53.1371 284.572C52.7431 284.488 52.349 284.291 52.0112 283.954C51.6453 283.616 51.4201 283.251 51.3075 282.858C51.1949 282.465 51.195 282.043 51.3357 281.65C51.4764 281.228 51.7298 280.835 52.0958 280.441C52.4617 280.048 52.8558 279.767 53.2499 279.627C53.6721 279.458 54.0661 279.43 54.4602 279.514C54.8542 279.599 55.2483 279.795 55.5861 280.132C55.9239 280.47 56.2054 280.779 56.318 281.172ZM53.9536 279.992C53.475 280.048 52.9965 280.329 52.5461 280.835C52.0676 281.341 51.8424 281.818 51.8143 282.296C51.7861 282.774 51.9832 283.195 52.3772 283.56C52.7713 283.926 53.2216 284.094 53.7001 284.038C54.1786 283.982 54.6571 283.701 55.1075 283.195C55.5579 282.689 55.8112 282.212 55.8394 281.734C55.8675 281.256 55.6987 280.835 55.2764 280.47C54.8824 280.076 54.4321 279.936 53.9536 279.992Z" fill="black"/>
<path d="M51.2231 275.918L47.9022 279.177L49.1687 280.441L48.8027 280.807L45.8757 277.828L46.2416 277.463L47.508 278.756L50.8292 275.496L51.2231 275.918Z" fill="black"/>
<path d="M47.2827 272.153C47.3672 272.574 47.3391 272.968 47.1702 273.389C47.0013 273.811 46.7199 274.176 46.3259 274.541C45.9319 274.906 45.5098 275.159 45.0876 275.272C44.6655 275.384 44.2432 275.384 43.8492 275.272C43.4552 275.159 43.0894 274.906 42.7517 274.541C42.4984 274.288 42.3296 274.007 42.217 273.698C42.1044 273.417 42.0481 273.108 42.0481 272.799L42.5548 272.659C42.5548 272.996 42.6109 273.277 42.7235 273.502C42.8079 273.726 42.9486 273.979 43.1457 274.176C43.5397 274.597 43.9618 274.794 44.4403 274.766C44.9187 274.738 45.3972 274.513 45.9038 274.064C46.4103 273.614 46.6918 273.136 46.7481 272.659C46.8043 272.181 46.6636 271.731 46.2696 271.31C46.0726 271.085 45.8756 270.945 45.6223 270.832C45.3972 270.72 45.1158 270.636 44.8062 270.608L45.0031 270.13C45.3127 270.158 45.5942 270.242 45.8756 270.383C46.157 270.523 46.4103 270.72 46.6635 271.001C46.9731 271.366 47.1983 271.76 47.2827 272.153Z" fill="black"/>
<path d="M43.6525 267.713L39.7122 271.029L37.6013 268.528L37.9953 268.219L39.7122 270.27L41.0913 269.118L39.4589 267.179L39.8529 266.87L41.4853 268.809L42.9207 267.601L41.2038 265.55L41.5978 265.241L43.6525 267.713Z" fill="black"/>
<path d="M33.5767 263.471L33.239 263.021L37.3199 259.874L37.6014 260.24L36.2223 265.241L39.4869 262.712L39.8247 263.162L35.7438 266.309L35.4624 265.943L36.8414 260.942L33.5767 263.471Z" fill="black"/>
<path d="M34.8152 256.475L31.0436 259.172L32.085 260.633L31.6628 260.942L29.2141 257.514L29.6363 257.205L30.6777 258.666L34.4492 255.969L34.8152 256.475Z" fill="black"/>
<path d="M29.8331 249.113L30.1989 249.675L29.2984 251.304C29.1858 251.501 29.1295 251.67 29.1577 251.838C29.1858 252.007 29.2421 252.175 29.3828 252.4L29.9174 253.215L31.7467 252.035L32.0845 252.541L27.7787 255.35L26.6249 253.58C26.3153 253.103 26.1746 252.681 26.2309 252.316C26.2872 251.923 26.5123 251.613 26.9063 251.333C27.244 251.108 27.5817 251.023 27.8913 251.08C28.229 251.136 28.5385 251.332 28.8199 251.642C28.7918 251.501 28.7636 251.389 28.7917 251.248C28.8199 251.108 28.8762 250.967 28.9606 250.827L29.8331 249.113ZM28.6792 252.232C28.4541 251.894 28.2289 251.698 27.9756 251.613C27.7224 251.529 27.4691 251.585 27.1877 251.782C26.9063 251.951 26.7655 252.175 26.7374 252.428C26.7093 252.681 26.7937 252.962 27.0188 253.299L27.8349 254.536L29.4953 253.44L28.6792 252.232Z" fill="black"/>
<path d="M26.4278 243.494L25.5835 244.646L26.9625 246.95L28.3979 246.753L28.7075 247.287L23.1068 247.961L22.8535 247.512L26.1182 242.932L26.4278 243.494ZM26.4278 247.062L25.2738 245.123L23.5852 247.455L26.4278 247.062Z" fill="black"/>
<path d="M24.908 240.824L20.3769 243.269L20.0955 242.735L24.1762 240.515L22.9379 238.239L23.3883 237.986L24.908 240.824Z" fill="black"/>
<path d="M22.2627 235.823L17.647 238.098L16.2397 235.233L16.69 235.008L17.8439 237.34L19.4482 236.553L18.3506 234.361L18.8008 234.137L19.8986 236.328L22.0094 235.289L22.2627 235.823Z" fill="black"/>
<path d="M18.3223 227.45L17.3373 228.517L18.4349 230.962L19.8703 230.934L20.1235 231.496L14.4946 231.552L14.2695 231.074L18.0409 226.888L18.3223 227.45ZM17.9001 230.962L16.9713 228.883L15.0294 230.99L17.9001 230.962Z" fill="black"/>
<path d="M13.7345 222.083C13.8752 221.858 14.1005 221.69 14.3819 221.549C14.8041 221.381 15.17 221.381 15.5078 221.577C15.8455 221.774 16.0988 222.111 16.324 222.617L17.1121 224.612L12.3271 226.522L11.5673 224.612C11.3702 224.106 11.3139 223.685 11.4265 223.347C11.5391 222.982 11.7923 222.729 12.1864 222.561C12.4397 222.448 12.6931 222.448 12.9464 222.504C13.1716 222.561 13.3967 222.701 13.5937 222.898C13.5374 222.589 13.5937 222.308 13.7345 222.083ZM14.2412 225.146L13.7345 223.853C13.5937 223.488 13.4249 223.263 13.1997 223.123C12.9745 223.01 12.7212 222.982 12.4679 223.095C11.9331 223.319 11.7924 223.769 12.0738 224.499L12.5806 225.792L14.2412 225.146ZM15.3389 222.111C15.1419 221.999 14.8885 221.971 14.5789 222.111C13.9878 222.336 13.8472 222.842 14.1286 223.572L14.6916 224.977L16.4366 224.275L15.8736 222.87C15.7329 222.504 15.5641 222.252 15.3389 222.111Z" fill="black"/>
<path d="M13.3684 214.609L13.5935 215.227L12.3271 216.604C12.1864 216.773 12.0738 216.941 12.0738 217.082C12.0738 217.222 12.0739 217.447 12.1584 217.672L12.4678 218.571L14.5223 217.84L14.7192 218.402L9.8506 220.116L9.14703 218.121C8.95003 217.587 8.95008 217.138 9.06266 216.801C9.20337 216.435 9.48471 216.183 9.96314 216.014C10.329 215.874 10.6949 215.874 11.0045 216.014C11.314 216.154 11.5673 216.407 11.7642 216.773C11.7642 216.632 11.7925 216.492 11.8488 216.379C11.905 216.267 11.9894 216.126 12.102 215.986L13.3684 214.609ZM11.511 217.363C11.3703 216.997 11.2014 216.745 10.9763 216.604C10.7512 216.464 10.4979 216.464 10.1602 216.576C9.85062 216.688 9.6536 216.857 9.56917 217.11C9.48474 217.335 9.51294 217.644 9.62551 218.037L10.1039 219.442L11.9613 218.796L11.511 217.363Z" fill="black"/>
<path d="M12.5526 212.08L7.62739 213.626L7.4585 213.064L12.3837 211.518L12.5526 212.08Z" fill="black"/>
<path d="M11.0046 207.838C10.892 208.231 10.6668 208.596 10.3572 208.877C10.0194 209.158 9.59727 209.383 9.09067 209.523C8.58407 209.664 8.10572 209.692 7.65541 209.636C7.23324 209.551 6.86726 209.383 6.55767 209.074C6.24808 208.793 6.05112 208.399 5.9104 207.922C5.82597 207.585 5.76971 207.248 5.79785 206.938C5.826 206.629 5.9104 206.32 6.05112 206.067L6.55767 206.152C6.41695 206.461 6.33254 206.714 6.3044 206.967C6.27625 207.219 6.30448 207.5 6.38891 207.753C6.52963 208.287 6.83911 208.68 7.26128 208.877C7.71159 209.074 8.24642 209.074 8.89374 208.905C9.54106 208.737 10.0195 208.428 10.2728 208.034C10.5542 207.641 10.6105 207.163 10.4417 206.629C10.3572 206.348 10.2446 206.124 10.1039 205.899C9.96317 205.702 9.73807 205.506 9.45663 205.309L9.85062 204.972C10.1039 205.112 10.3291 205.337 10.5261 205.59C10.7231 205.843 10.8638 206.152 10.9482 206.489C11.1171 206.995 11.1171 207.416 11.0046 207.838Z" fill="black"/>
<path d="M8.92161 198.509L7.76768 199.352L8.38677 201.965L9.79397 202.218L9.93469 202.808L4.39038 201.768L4.27783 201.263L8.78089 197.891L8.92161 198.509ZM7.82388 201.881L7.31734 199.689L5.00947 201.403L7.82388 201.881Z" fill="black"/>
<path d="M8.16199 194.884L3.60242 195.755L3.94021 197.526L3.43365 197.61L2.64551 193.48L3.1522 193.395L3.48986 195.165L8.04943 194.294L8.16199 194.884Z" fill="black"/>
<path d="M7.28955 190.108L2.19522 190.923L2.11084 190.333L7.20517 189.518L7.28955 190.108Z" fill="black"/>
<path d="M6.36066 185.697C6.19179 186.062 5.93852 186.371 5.5445 186.624C5.17862 186.849 4.72822 187.017 4.19347 187.073C3.65873 187.13 3.18024 187.102 2.75807 186.961C2.3359 186.821 1.99828 186.596 1.74498 186.259C1.49168 185.921 1.32275 185.528 1.26647 185.05C1.21018 184.573 1.26649 184.151 1.43536 183.758C1.60423 183.393 1.8575 183.084 2.25153 182.831C2.64555 182.578 3.06766 182.437 3.60241 182.381C4.13716 182.325 4.61564 182.353 5.03781 182.494C5.45998 182.634 5.79774 182.859 6.05104 183.196C6.30434 183.533 6.47327 183.927 6.52956 184.404C6.58584 184.91 6.52953 185.331 6.36066 185.697ZM5.31926 183.308C4.92523 183.055 4.3624 182.971 3.68693 183.055C3.01146 183.14 2.50477 183.365 2.19518 183.702C1.85745 184.039 1.7449 184.488 1.80118 185.05C1.85747 185.584 2.11078 185.978 2.5048 186.259C2.89882 186.512 3.43362 186.596 4.10909 186.512C4.78456 186.427 5.29111 186.202 5.6007 185.865C5.91029 185.528 6.05099 185.079 5.9947 184.517C5.93841 183.955 5.71328 183.561 5.31926 183.308Z" fill="black"/>
<path d="M5.82593 178.419L1.20998 178.813L1.37888 180.583L0.87232 180.639L0.506348 176.452L1.01305 176.396L1.18195 178.194L5.79776 177.801L5.82593 178.419Z" fill="black"/>
<path d="M5.14975 172.997C4.95277 173.362 4.67148 173.671 4.27752 173.868C3.88356 174.092 3.4332 174.205 2.89854 174.233C2.36388 174.261 1.8855 174.177 1.49154 174.008C1.09758 173.84 0.759922 173.587 0.534801 173.221C0.30968 172.856 0.169007 172.463 0.140867 171.957C0.112727 171.592 0.16898 171.283 0.2534 170.974C0.337821 170.665 0.506689 170.412 0.703669 170.187L1.18211 170.384C0.985125 170.636 0.844425 170.889 0.760005 171.142C0.675584 171.395 0.647334 171.648 0.647334 171.929C0.675474 172.491 0.87251 172.912 1.26647 173.221C1.66043 173.502 2.16698 173.643 2.84234 173.615C3.51771 173.587 4.02423 173.39 4.39005 173.081C4.75587 172.744 4.89649 172.294 4.86835 171.732C4.84021 171.451 4.78404 171.198 4.69962 170.946C4.58706 170.721 4.4463 170.468 4.22118 170.243L4.67145 169.99C4.89657 170.187 5.06539 170.44 5.20609 170.749C5.31865 171.03 5.40301 171.367 5.43115 171.732C5.43115 172.21 5.34673 172.631 5.14975 172.997Z" fill="black"/>
<path d="M5.20679 167.265L0.0563446 167.349L0 164.09H0.506551L0.562896 166.759L2.36414 166.731L2.33596 164.202H2.84265L2.87082 166.731L4.75644 166.703L4.70024 164.033H5.20679V167.265Z" fill="black"/>
<path d="M0.140627 157.599L0.168799 157.037L5.31921 157.178V157.627L1.06935 160.606L5.20666 160.718L5.17849 161.28L0.0280762 161.14V160.69L4.27794 157.712L0.140627 157.599Z" fill="black"/>
<path d="M5.57266 152.991L0.928769 152.654L0.788045 154.452L0.281494 154.424L0.591114 150.238L1.09767 150.266L0.956941 152.064L5.60083 152.401L5.57266 152.991Z" fill="black"/>
<path d="M6.41675 144.14L6.33237 144.787L4.58737 145.489C4.39036 145.573 4.22161 145.686 4.13717 145.826C4.05274 145.967 3.99642 146.163 3.96828 146.388L3.85573 147.343L6.02276 147.596L5.96655 148.186L0.844238 147.624L1.06934 145.517C1.12563 144.955 1.29457 144.562 1.57602 144.281C1.85746 144 2.22333 143.916 2.70179 143.972C3.09581 144.028 3.40534 144.168 3.63049 144.421C3.85565 144.674 3.96831 145.011 3.99645 145.433C4.05274 145.32 4.13712 145.208 4.22155 145.124C4.33413 145.039 4.44668 144.955 4.61554 144.899L6.41675 144.14ZM3.51794 145.826C3.57423 145.433 3.51794 145.124 3.37722 144.899C3.2365 144.674 2.9832 144.562 2.67362 144.534C2.33588 144.506 2.08253 144.562 1.91367 144.73C1.7448 144.899 1.63231 145.208 1.57602 145.601L1.40712 147.062L3.37722 147.287L3.51794 145.826Z" fill="black"/>
<path d="M7.37409 137.65L5.96683 138.015L5.54465 140.684L6.75484 141.443L6.67046 142.061L1.91382 139.027L1.99834 138.521L7.4303 137.06L7.37409 137.65ZM5.0943 140.403L5.43196 138.156L2.64562 138.858L5.0943 140.403Z" fill="black"/>
<path d="M7.90874 134.643L2.84277 133.66L2.95532 133.07L7.51475 133.969L8.02129 131.44L8.52783 131.553L7.90874 134.643Z" fill="black"/>
<path d="M9.03433 129.108L4.02466 127.928L4.75642 124.837L5.23492 124.95L4.64388 127.478L6.38884 127.872L6.95172 125.483L7.43008 125.596L6.86721 127.984L9.17505 128.518L9.03433 129.108Z" fill="black"/>
<path d="M11.3423 120.117L9.90705 120.314L9.20342 122.899L10.3292 123.798L10.1603 124.388L5.79785 120.847L5.93858 120.342L11.5112 119.527L11.3423 120.117ZM8.78125 122.589L9.37218 120.398L6.52965 120.791L8.78125 122.589Z" fill="black"/>
<path d="M11.2298 113.065C11.4831 112.98 11.7645 112.98 12.0741 113.065C12.4962 113.205 12.7777 113.458 12.9184 113.795C13.0591 114.16 13.0311 114.582 12.8622 115.116L12.2148 117.167L7.28955 115.593L7.93695 113.627C8.10582 113.121 8.33097 112.756 8.64056 112.559C8.95015 112.362 9.31597 112.306 9.70999 112.446C9.96329 112.531 10.1885 112.671 10.3292 112.868C10.4699 113.065 10.5543 113.289 10.5825 113.57C10.7514 113.317 10.9765 113.149 11.2298 113.065ZM9.68182 115.734L10.104 114.413C10.2166 114.048 10.2448 113.739 10.1603 113.514C10.0759 113.289 9.87888 113.121 9.59744 113.036C9.03455 112.868 8.64048 113.149 8.41532 113.879L7.99316 115.2L9.68182 115.734ZM12.44 114.132C12.3556 113.908 12.1586 113.739 11.849 113.655C11.258 113.458 10.8358 113.739 10.5825 114.498L10.1322 115.931L11.9052 116.492L12.3555 115.059C12.5244 114.666 12.5245 114.357 12.44 114.132Z" fill="black"/>
<path d="M15.7046 107.08L15.4795 107.698L13.6219 107.951C13.3967 107.979 13.2279 108.063 13.1153 108.147C13.0027 108.232 12.8901 108.428 12.8057 108.653L12.4679 109.552L14.5226 110.311L14.3255 110.873L9.48462 109.103L10.2163 107.108C10.4133 106.574 10.6667 106.237 11.0044 106.04C11.3422 105.843 11.7361 105.843 12.1864 106.012C12.5523 106.153 12.8339 106.377 12.9746 106.658C13.1153 106.967 13.1716 107.305 13.0871 107.726C13.1716 107.614 13.2842 107.529 13.3968 107.473C13.5093 107.417 13.6782 107.361 13.8471 107.333L15.7046 107.08ZM12.5242 108.035C12.665 107.67 12.6931 107.361 12.6086 107.108C12.5242 106.855 12.3273 106.686 12.0177 106.574C11.7081 106.462 11.4547 106.462 11.2295 106.602C11.0044 106.743 10.8355 106.995 10.6948 107.361L10.1882 108.737L12.0457 109.412L12.5242 108.035Z" fill="black"/>
<path d="M16.7179 104.607L11.9331 102.668L12.1584 102.106L16.9431 104.045L16.7179 104.607Z" fill="black"/>
<path d="M18.2094 100.336C17.8717 100.589 17.4776 100.702 17.0273 100.73C16.5771 100.758 16.1268 100.645 15.6202 100.421C15.1136 100.196 14.7477 99.915 14.4663 99.5778C14.1848 99.2406 14.016 98.8754 13.9598 98.4539C13.9035 98.0324 13.9878 97.611 14.1848 97.1614C14.3256 96.8242 14.5225 96.5714 14.7195 96.3466C14.9447 96.1218 15.198 95.9532 15.4795 95.8408L15.8172 96.2342C15.5358 96.3747 15.2825 96.5433 15.1137 96.7118C14.9448 96.8804 14.7759 97.1052 14.6633 97.3862C14.4382 97.8919 14.41 98.3696 14.6352 98.8192C14.8322 99.2406 15.2543 99.6059 15.8734 99.8869C16.4926 100.168 17.0274 100.224 17.5058 100.112C17.9561 99.9712 18.3219 99.6621 18.5471 99.1282C18.6596 98.8754 18.716 98.5944 18.7441 98.3415C18.7441 98.0886 18.716 97.8077 18.6316 97.4986L19.1381 97.4705C19.2507 97.7515 19.2788 98.0605 19.2788 98.3696C19.2507 98.6787 19.1663 99.0158 19.0255 99.3249C18.8285 99.7464 18.5753 100.084 18.2094 100.336Z" fill="black"/>
<path d="M22.5438 91.8226L21.1084 91.7384L19.8983 94.1547L20.827 95.2505L20.5456 95.8125L16.9431 91.4855L17.1682 91.0078L22.7971 91.2607L22.5438 91.8226ZM19.5605 93.7614L20.5737 91.7384L17.7029 91.5698L19.5605 93.7614Z" fill="black"/>
<path d="M24.2889 88.5352L20.2079 86.3155L19.3635 87.889L18.9133 87.6361L20.9115 83.9553L21.3618 84.2082L20.4893 85.7817L24.5703 88.0014L24.2889 88.5352Z" fill="black"/>
<path d="M26.6529 84.3207L22.2061 81.7357L22.5157 81.23L26.9624 83.815L26.6529 84.3207Z" fill="black"/>
<path d="M28.7359 80.3309C28.37 80.5276 27.9759 80.5838 27.5255 80.5276C27.1034 80.4714 26.6531 80.3028 26.2028 80.0219C25.7525 79.7409 25.3865 79.4037 25.1614 79.0384C24.9362 78.6732 24.8237 78.2798 24.8237 77.8583C24.8237 77.4369 24.9644 77.0435 25.2177 76.6221C25.471 76.2006 25.7806 75.9196 26.1465 75.723C26.5123 75.5263 26.9065 75.4701 27.3568 75.5263C27.8071 75.5825 28.2292 75.751 28.6795 76.032C29.1298 76.313 29.4676 76.6502 29.7209 77.0154C29.9742 77.3807 30.0586 77.7741 30.0586 78.1955C30.0586 78.617 29.9179 79.0103 29.6646 79.4318C29.4113 79.8533 29.1299 80.1342 28.7359 80.3309ZM29.4677 77.8022C29.3269 77.3526 28.9609 76.9311 28.3699 76.5659C27.7788 76.2006 27.2723 76.0601 26.7939 76.1163C26.3154 76.1725 25.9495 76.4535 25.6399 76.903C25.3585 77.3526 25.2739 77.8303 25.4147 78.2798C25.5554 78.7294 25.9214 79.1508 26.4843 79.488C27.0472 79.8252 27.5819 79.9938 28.0604 79.9376C28.5389 79.8814 28.9328 79.6285 29.2142 79.1508C29.552 78.7294 29.6084 78.2517 29.4677 77.8022Z" fill="black"/>
<path d="M32.9574 74.3743L29.1297 71.7332L28.1165 73.1942L27.6943 72.9133L30.0866 69.4573L30.5088 69.7382L29.4956 71.2274L33.3232 73.8686L32.9574 74.3743Z" fill="black"/>
<path d="M35.9128 69.7663C35.5187 69.9348 35.1247 69.9629 34.6743 69.8786C34.2521 69.7944 33.8017 69.5977 33.3795 69.2605C32.9573 68.9514 32.6196 68.5862 32.4225 68.1928C32.2255 67.7994 32.141 67.4061 32.1973 66.9846C32.2536 66.5631 32.4225 66.1698 32.704 65.7764C32.9292 65.4954 33.1543 65.2706 33.4357 65.1021C33.7172 64.9335 33.9987 64.8211 34.2801 64.7649L34.5054 65.2145C34.1958 65.2987 33.9142 65.383 33.7172 65.5235C33.492 65.664 33.2951 65.8326 33.1262 66.0855C32.7885 66.535 32.6758 67.0127 32.7884 67.4623C32.901 67.9399 33.2106 68.3614 33.7736 68.7547C34.3083 69.1481 34.8431 69.3448 35.3216 69.3167C35.8001 69.2886 36.2223 69.0357 36.5601 68.5862C36.729 68.3614 36.8416 68.1085 36.9261 67.8837C37.0105 67.6589 37.0105 67.3499 37.0105 67.0408L37.5171 67.1251C37.5452 67.4342 37.5453 67.7432 37.4327 68.0242C37.3482 68.3333 37.1793 68.6143 36.9823 68.8952C36.6445 69.3448 36.3068 69.6258 35.9128 69.7663Z" fill="black"/>
<path d="M39.5997 65.383L35.575 62.1518L37.6296 59.623L38.0236 59.9321L36.3349 62.0113L37.7421 63.1352L39.3183 61.1684L39.7123 61.4775L38.1361 63.4443L39.5997 64.6244L41.2884 62.5452L41.6824 62.8543L39.5997 65.383Z" fill="black"/>
<path d="M41.8792 54.7059L42.2452 54.2844L46.129 57.6842L45.8194 58.0214L40.6409 57.628L43.7649 60.3535L43.3991 60.775L39.5151 57.3752L39.8248 57.038L45.0033 57.4314L41.8792 54.7059Z" fill="black"/>
<path d="M48.9998 54.5936L45.6507 51.3905L44.4122 52.683L44.0464 52.3177L46.9452 49.2832L47.3112 49.6485L46.0728 50.941L49.422 54.1441L48.9998 54.5936Z" fill="black"/>
<path d="M55.3042 48.3278L54.8257 48.7773L53.0526 48.1873C52.8275 48.1311 52.6586 48.103 52.4897 48.1592C52.3209 48.2154 52.1802 48.3278 51.9832 48.4964L51.2796 49.1707L52.7993 50.7442L52.3772 51.1656L48.8027 47.4568L50.3225 45.9957C50.7165 45.6023 51.1106 45.4056 51.5047 45.3775C51.8987 45.3494 52.2645 45.518 52.5741 45.8552C52.8556 46.1362 52.9963 46.4452 52.9963 46.7824C52.9963 47.1196 52.8838 47.4568 52.6304 47.7939C52.743 47.7377 52.8837 47.7096 53.0244 47.6815C53.1652 47.6534 53.3059 47.7096 53.4748 47.7658L55.3042 48.3278ZM52.0112 47.7658C52.2927 47.4849 52.4616 47.232 52.4897 46.9791C52.5179 46.7262 52.4053 46.4733 52.1801 46.2205C51.9549 45.9957 51.7016 45.8833 51.4483 45.8833C51.195 45.9114 50.9136 46.0519 50.6321 46.3329L49.5627 47.3725L50.9418 48.8054L52.0112 47.7658Z" fill="black"/>
<path d="M60.1733 43.9447L58.8788 43.3266L56.8523 45.1248L57.3027 46.5016L56.8523 46.923L55.1355 41.5564L55.5295 41.2192L60.6519 43.5794L60.1733 43.9447ZM56.6834 44.5909L58.3721 43.0737L55.7829 41.8655L56.6834 44.5909Z" fill="black"/>
<path d="M62.5093 41.9496L59.2446 37.9598L59.6949 37.5664L62.65 41.1629L64.6482 39.5332L64.9858 39.9266L62.5093 41.9496Z" fill="black"/>
<path d="M66.928 38.4094L63.804 34.3071L66.337 32.3684L66.6465 32.7618L64.592 34.3352L65.6614 35.7401L67.6036 34.2509L67.9131 34.6443L65.9711 36.1335L67.4065 38.016L66.928 38.4094Z" fill="black"/>
<path d="M74.4144 32.9305L73.1761 32.1718L70.9808 33.7172L71.2903 35.1221L70.7838 35.4873L69.658 29.9802L70.0801 29.6711L74.8929 32.5652L74.4144 32.9305ZM70.8681 33.2114L72.7257 31.9189L70.2772 30.4017L70.8681 33.2114Z" fill="black"/>
<path d="M78.8335 27.4232C79.0868 27.5075 79.3119 27.7041 79.4808 27.957C79.7341 28.3504 79.7905 28.7157 79.6779 29.0809C79.5653 29.4462 79.2557 29.7834 78.8054 30.0643L77.0041 31.2163L74.2178 26.8893L75.9627 25.7654C76.413 25.4844 76.807 25.344 77.201 25.4002C77.5669 25.4282 77.8766 25.6249 78.1017 25.9902C78.2425 26.215 78.3269 26.4679 78.2988 26.7207C78.2988 26.9736 78.1861 27.1984 78.0454 27.4232C78.2987 27.3389 78.5802 27.3389 78.8335 27.4232ZM75.9345 28.4909L77.1167 27.7322C77.4544 27.5356 77.6515 27.3108 77.7359 27.0579C77.8203 26.8331 77.7921 26.5802 77.6232 26.3274C77.3136 25.8216 76.8071 25.7935 76.1598 26.215L74.9776 26.9736L75.9345 28.4909ZM79.115 28.9966C79.1994 28.7719 79.1431 28.519 78.9743 28.2661C78.6365 27.7322 78.1299 27.6761 77.4545 28.0975L76.1879 28.9123L77.201 30.4858L78.4676 29.671C78.8053 29.4743 79.0305 29.2495 79.115 28.9966Z" fill="black"/>
<path d="M86.0945 25.6529L85.5316 25.9901L83.9274 25.0067C83.7304 24.8943 83.5614 24.8381 83.3925 24.8381C83.2236 24.8381 83.0548 24.9224 82.8296 25.0348L81.9853 25.5124L83.083 27.395L82.5763 27.704L79.9871 23.2646L81.8165 22.1969C82.295 21.9159 82.7452 21.8036 83.1111 21.8598C83.5051 21.9159 83.8148 22.1688 84.0399 22.5903C84.237 22.9275 84.2932 23.2646 84.2369 23.6018C84.1524 23.939 83.9555 24.2199 83.6459 24.5009C83.7867 24.4728 83.8992 24.4728 84.0399 24.5009C84.1807 24.529 84.3214 24.5852 84.4621 24.6976L86.0945 25.6529ZM83.0267 24.3323C83.3644 24.1357 83.5895 23.9109 83.674 23.658C83.7584 23.4051 83.7303 23.1522 83.5614 22.8713C83.3925 22.5903 83.1956 22.4217 82.9423 22.3936C82.689 22.3655 82.3793 22.4217 82.0416 22.6465L80.7751 23.377L81.7883 25.091L83.0267 24.3323Z" fill="black"/>
<path d="M88.4588 24.3606L86.0103 19.8369L86.545 19.5559L88.9937 24.0796L88.4588 24.3606Z" fill="black"/>
<path d="M92.3428 22.0284C91.9206 22.0003 91.5547 21.8599 91.1889 21.5789C90.8511 21.2979 90.5415 20.9326 90.2882 20.455C90.0349 19.9773 89.9224 19.4997 89.9224 19.0782C89.9224 18.6286 90.035 18.2353 90.2602 17.8981C90.4853 17.5609 90.823 17.2519 91.2452 17.0552C91.5548 16.8866 91.8925 16.8023 92.2021 16.7742C92.5117 16.7461 92.8212 16.7742 93.1026 16.8585V17.3643C92.793 17.28 92.5116 17.2519 92.2583 17.28C92.005 17.3081 91.7518 17.3924 91.4985 17.5047C90.9919 17.7576 90.6822 18.1229 90.5696 18.5725C90.4571 19.022 90.5415 19.584 90.8511 20.174C91.1607 20.7922 91.5265 21.1855 91.9768 21.3541C92.4272 21.5508 92.9056 21.5227 93.4122 21.2698C93.6655 21.1293 93.8908 20.9888 94.0596 20.7922C94.2285 20.5955 94.3691 20.3707 94.5098 20.0616L94.932 20.3707C94.8194 20.6517 94.6788 20.9326 94.4536 21.1574C94.2285 21.3822 93.9752 21.5789 93.6375 21.7475C93.1872 21.9722 92.7368 22.0565 92.3428 22.0284Z" fill="black"/>
<path d="M101.096 18.2072L100.026 17.2238L97.5776 18.3196L97.6056 19.7525L97.0427 20.0054L97.0146 14.3859L97.493 14.1611L101.687 17.9262L101.096 18.2072ZM97.5494 17.7857L99.6321 16.8585L97.5212 14.9198L97.5494 17.7857Z" fill="black"/>
<path d="M104.529 16.7743L102.784 12.4754L101.124 13.1498L100.927 12.6721L104.811 11.0986L105.008 11.5763L103.347 12.2506L105.092 16.5496L104.529 16.7743Z" fill="black"/>
<path d="M109.033 15.0322L107.26 10.1994L107.822 10.0027L109.595 14.8355L109.033 15.0322Z" fill="black"/>
<path d="M113.198 13.2621C112.804 13.1778 112.438 12.953 112.128 12.6439C111.819 12.3348 111.594 11.9134 111.425 11.4076C111.256 10.9019 111.2 10.4242 111.256 9.97465C111.312 9.52509 111.481 9.15982 111.734 8.85075C112.016 8.54167 112.382 8.31689 112.832 8.14831C113.282 8.00782 113.733 7.97972 114.127 8.06402C114.521 8.14831 114.887 8.34499 115.196 8.68216C115.506 8.99124 115.731 9.4127 115.9 9.91845C116.069 10.4242 116.125 10.9019 116.069 11.3233C116.012 11.7729 115.844 12.1382 115.59 12.4472C115.309 12.7563 114.971 12.9811 114.493 13.1497C114.014 13.3183 113.592 13.3745 113.198 13.2621ZM115.365 11.7729C115.534 11.3233 115.506 10.7895 115.309 10.1432C115.112 9.49699 114.774 9.04743 114.38 8.79455C113.986 8.54167 113.508 8.51358 113.001 8.68216C112.494 8.85075 112.128 9.15982 111.96 9.60938C111.791 10.0589 111.791 10.5928 112.016 11.239C112.241 11.8853 112.551 12.3348 112.945 12.5877C113.339 12.8406 113.817 12.8968 114.324 12.7282C114.83 12.5315 115.196 12.2225 115.365 11.7729Z" fill="black"/>
<path d="M120.262 11.3514L118.996 6.88393L117.279 7.38969L117.138 6.88393L121.163 5.73193L121.304 6.23769L119.587 6.74345L120.853 11.211L120.262 11.3514Z" fill="black"/>
<path d="M125.469 9.66549C125.075 9.5531 124.737 9.32832 124.456 8.96305C124.174 8.62588 123.977 8.20442 123.837 7.67057C123.696 7.13671 123.696 6.65905 123.78 6.23759C123.865 5.81613 124.062 5.45086 124.371 5.16988C124.681 4.88891 125.047 4.66413 125.525 4.55174C125.863 4.46745 126.201 4.43935 126.51 4.46745C126.82 4.49554 127.13 4.60793 127.383 4.74842L127.27 5.25418C126.989 5.11369 126.707 5.0294 126.454 5.0013C126.201 4.9732 125.919 4.9732 125.666 5.05749C125.103 5.19798 124.737 5.47896 124.512 5.90042C124.287 6.32188 124.259 6.88383 124.428 7.53008C124.597 8.17632 124.85 8.65398 125.244 8.93496C125.638 9.21593 126.088 9.30022 126.651 9.15974C126.933 9.10354 127.186 8.99115 127.383 8.85066C127.58 8.71018 127.805 8.51349 127.974 8.23252L128.312 8.62588C128.143 8.87876 127.946 9.10354 127.664 9.27213C127.411 9.44071 127.101 9.5812 126.764 9.66549C126.285 9.80598 125.863 9.80598 125.469 9.66549Z" fill="black"/>
</svg>
