<svg width="329" height="329" viewBox="0 0 329 329" fill="none" xmlns="http://www.w3.org/2000/svg">
<path d="M1.94186 189.068L1.85742 188.591L6.95128 187.748L7.03565 188.282L3.09567 188.928L6.50097 190.052L6.55724 190.473L3.71487 192.637L7.62668 191.991L7.71112 192.524L2.61726 193.367L2.53282 192.89L5.90995 190.361L1.94186 189.068Z" fill="black"/>
<path d="M6.07952 180.892L4.84099 181.623L5.15059 184.292L6.52993 184.713L6.61432 185.331L1.23792 183.674L1.18164 183.168L6.05134 180.33L6.07952 180.892ZM4.61579 184.151L4.36241 181.904L1.85719 183.337L4.61579 184.151Z" fill="black"/>
<path d="M0.36648 174.654L0.338379 174.092L5.48841 173.727L5.51658 174.177L1.60479 177.576L5.74173 177.267L5.76984 177.829L0.619804 178.195L0.591634 177.745L4.50342 174.345L0.36648 174.654Z" fill="black"/>
<path d="M4.84087 170.299C4.50314 170.664 3.99654 170.833 3.29293 170.861L0.168893 170.945L0.140721 170.355L3.32104 170.271C3.82763 170.243 4.19351 170.131 4.44681 169.878C4.70011 169.625 4.81267 169.26 4.78453 168.782C4.78453 168.304 4.6438 167.939 4.36236 167.714C4.10906 167.489 3.71508 167.377 3.20849 167.377L0.0281718 167.461L0 166.871L3.12404 166.787C3.7995 166.759 4.33424 166.927 4.67198 167.265C5.03785 167.602 5.23486 168.108 5.23486 168.782C5.34744 169.428 5.20674 169.934 4.84087 170.299Z" fill="black"/>
<path d="M5.20669 163.781L0.0566406 163.696L0.112912 160.521H0.619494L0.591324 163.106L2.36433 163.134L2.39243 160.69H2.89901L2.87091 163.134L5.23486 163.162L5.20669 163.781Z" fill="black"/>
<path d="M5.48819 154.508L4.13741 155.014L3.9967 157.711L5.2912 158.33L5.2631 158.948L0.225586 156.447L0.253756 155.941L5.51636 153.918L5.48819 154.508ZM3.51822 157.458L3.63084 155.183L0.929144 156.194L3.51822 157.458Z" fill="black"/>
<path d="M5.51627 150.659C5.26298 150.996 4.95339 151.249 4.53124 151.418C4.10908 151.586 3.63061 151.614 3.09589 151.586C2.56116 151.53 2.11088 151.39 1.71687 151.165C1.351 150.94 1.06957 150.631 0.872563 150.266C0.703701 149.9 0.619283 149.451 0.675571 148.973C0.703714 148.608 0.788118 148.299 0.928836 148.018C1.06955 147.737 1.23842 147.484 1.49171 147.287L1.94204 147.54C1.71689 147.765 1.54801 147.99 1.43544 148.215C1.32286 148.439 1.23844 148.692 1.23844 149.001C1.18216 149.563 1.32287 150.013 1.6606 150.35C1.99832 150.687 2.50488 150.884 3.18033 150.94C3.85578 150.996 4.39049 150.884 4.78451 150.631C5.17852 150.378 5.40371 149.929 5.45999 149.367C5.48814 149.086 5.46001 148.805 5.40372 148.58C5.31929 148.327 5.20667 148.074 5.00967 147.821L5.4881 147.625C5.6851 147.849 5.82582 148.13 5.91025 148.439C5.99468 148.748 6.02284 149.086 5.9947 149.423C5.88212 149.929 5.74142 150.322 5.51627 150.659Z" fill="black"/>
<path d="M6.50173 143.831L1.88566 143.241L1.66047 145.011L1.15381 144.955L1.68857 140.797L2.19523 140.853L1.97004 142.623L6.58618 143.213L6.50173 143.831Z" fill="black"/>
<path d="M6.78271 138.493C6.38868 138.774 5.82579 138.858 5.17846 138.746L2.08252 138.212L2.19507 137.622L5.34729 138.156C5.8539 138.24 6.24798 138.184 6.52943 137.987C6.81088 137.79 7.00789 137.453 7.09233 136.976C7.17676 136.498 7.12042 136.133 6.89526 135.852C6.69824 135.571 6.33242 135.374 5.82581 135.29L2.67352 134.756L2.78614 134.166L5.88208 134.7C6.55756 134.812 7.03598 135.065 7.31743 135.486C7.59888 135.88 7.68336 136.414 7.57078 137.088C7.4582 137.762 7.17674 138.212 6.78271 138.493Z" fill="black"/>
<path d="M9.25946 128.209L9.11873 128.855L7.31741 129.361C7.09225 129.417 6.95154 129.53 6.83896 129.642C6.72638 129.755 6.67007 129.951 6.61378 130.204L6.41678 131.159L8.55583 131.609L8.44321 132.199L3.40527 131.103L3.85562 129.024C3.9682 128.49 4.19331 128.097 4.5029 127.844C4.8125 127.619 5.20656 127.535 5.65688 127.647C6.05091 127.732 6.33239 127.9 6.5294 128.181C6.72642 128.462 6.81083 128.799 6.78268 129.221C6.83897 129.108 6.95152 128.996 7.03596 128.912C7.14854 128.827 7.28926 128.771 7.45814 128.715L9.25946 128.209ZM6.21978 129.586C6.30421 129.193 6.27608 128.884 6.1635 128.659C6.05092 128.434 5.82572 128.293 5.48798 128.209C5.15024 128.153 4.89699 128.181 4.69997 128.35C4.50296 128.518 4.36223 128.771 4.2778 129.164L3.96817 130.597L5.91016 131.019L6.21978 129.586Z" fill="black"/>
<path d="M9.90697 125.624L4.92529 124.331L5.74153 121.185L6.21998 121.297L5.54453 123.882L7.2895 124.331L7.90867 121.887L8.38711 121.999L7.76794 124.444L9.56918 124.922L10.2447 122.337L10.7231 122.449L9.90697 125.624Z" fill="black"/>
<path d="M12.6088 115.987L12.4118 116.605L10.5824 116.97C10.3573 117.026 10.1884 117.082 10.0758 117.223C9.96323 117.335 9.8788 117.504 9.79437 117.757L9.51292 118.684L11.5957 119.302L11.4268 119.864L6.50146 118.375L7.12063 116.352C7.2895 115.818 7.51468 115.453 7.85242 115.228C8.16201 115.031 8.55602 114.975 9.03448 115.116C9.4285 115.228 9.68178 115.425 9.85064 115.734C10.0195 116.015 10.0758 116.38 10.0195 116.801C10.104 116.689 10.1884 116.605 10.301 116.521C10.4136 116.464 10.5543 116.408 10.7513 116.38L12.6088 115.987ZM9.48482 117.139C9.5974 116.745 9.59736 116.436 9.51292 116.211C9.40034 115.987 9.20332 115.818 8.86558 115.706C8.55599 115.621 8.2746 115.621 8.07759 115.762C7.88058 115.902 7.71165 116.155 7.59908 116.549L7.17691 117.953L9.06265 118.515L9.48482 117.139Z" fill="black"/>
<path d="M12.7776 113.57L12.4117 113.205C12.6931 113.036 12.9183 112.84 13.1153 112.615C13.2841 112.39 13.4248 112.109 13.5374 111.8C13.6781 111.407 13.7063 111.07 13.6219 110.817C13.5374 110.564 13.3685 110.367 13.0871 110.283C12.9182 110.227 12.7776 110.227 12.6369 110.311C12.4962 110.367 12.3835 110.48 12.2428 110.62C12.1021 110.761 11.9895 110.957 11.8207 111.238C11.5955 111.575 11.3986 111.856 11.2297 112.081C11.0609 112.306 10.8358 112.446 10.6106 112.531C10.3855 112.615 10.104 112.615 9.82261 112.503C9.54118 112.418 9.31603 112.25 9.17532 112.025C9.0346 111.8 8.92203 111.547 8.89389 111.238C8.86575 110.929 8.92203 110.592 9.0346 110.255C9.14717 109.918 9.31602 109.637 9.51301 109.356C9.71001 109.103 9.96329 108.906 10.2166 108.766L10.5824 109.131C10.301 109.299 10.0759 109.468 9.90705 109.693C9.73819 109.89 9.59744 110.142 9.51301 110.423C9.3723 110.789 9.37231 111.126 9.45674 111.407C9.54117 111.688 9.73817 111.856 10.0196 111.969C10.2729 112.053 10.4699 112.025 10.6669 111.884C10.8639 111.744 11.0609 111.491 11.286 111.126C11.5393 110.732 11.7363 110.451 11.9051 110.227C12.074 110.002 12.271 109.861 12.4962 109.749C12.7213 109.637 12.9746 109.637 13.256 109.749C13.5374 109.833 13.7626 110.002 13.9033 110.227C14.0721 110.451 14.1565 110.704 14.1565 111.013C14.1847 111.323 14.1284 111.66 13.9877 112.025C13.7626 112.699 13.3686 113.261 12.7776 113.57Z" fill="black"/>
<path d="M12.3556 101.657L12.5244 101.208L17.3091 103.118L17.1121 103.624L13.3969 102.135L15.733 104.86L15.5641 105.254L12.0178 105.647L15.7048 107.108L15.5078 107.614L10.7231 105.703L10.9201 105.254L15.1138 104.832L12.3556 101.657Z" fill="black"/>
<path d="M20.1518 96.7959L18.7163 96.7678L17.5904 99.2123L18.5474 100.28L18.2941 100.842L14.5225 96.6554L14.7476 96.1777L20.377 96.2339L20.1518 96.7959ZM17.2246 98.8189L18.1533 96.7678L15.2824 96.7116L17.2246 98.8189Z" fill="black"/>
<path d="M18.4911 88.5072L18.7444 88.0015L23.3323 90.3335L23.1353 90.755L18.0407 91.6541L21.7279 93.5366L21.4746 94.0424L16.8867 91.7103L17.0838 91.2889L22.1782 90.3897L18.4911 88.5072Z" fill="black"/>
<path d="M24.5701 87.0742C24.0917 87.2147 23.5569 87.1023 22.9659 86.7651L20.2358 85.2197L20.5173 84.714L23.3036 86.2874C23.7539 86.5403 24.1198 86.6246 24.4857 86.5122C24.8234 86.4279 25.1049 86.1751 25.3582 85.7536C25.5833 85.3321 25.6678 84.9669 25.5552 84.6297C25.4426 84.2925 25.1893 84.0115 24.739 83.7587L21.9526 82.1852L22.2341 81.6514L24.9642 83.1967C25.5552 83.5339 25.9211 83.9273 26.0618 84.4049C26.2025 84.8826 26.0899 85.4164 25.7804 85.9784C25.4426 86.5965 25.0486 86.9618 24.5701 87.0742Z" fill="black"/>
<path d="M28.2573 81.6794L23.8667 78.954L25.5554 76.2566L25.9775 76.5095L24.5985 78.7011L26.1183 79.6283L27.4129 77.5491L27.8351 77.802L26.5404 79.8812L28.5668 81.1175L28.2573 81.6794Z" fill="black"/>
<path d="M33.295 73.8966L31.8878 73.6438L30.3961 75.8635L31.1841 77.0717L30.8464 77.5774L27.835 72.8289L28.1164 72.4075L33.6609 73.3909L33.295 73.8966ZM30.0865 75.4139L31.353 73.5314L28.5386 72.9975L30.0865 75.4139Z" fill="black"/>
<path d="M35.3215 70.6373C34.9275 70.8059 34.5335 70.834 34.0832 70.7778C33.6329 70.7216 33.2108 70.4968 32.7886 70.1878C32.3383 69.8787 32.0288 69.5134 31.8318 69.1201C31.6348 68.7267 31.5504 68.3333 31.5785 67.9119C31.6348 67.4904 31.7755 67.097 32.085 66.7037C32.282 66.4227 32.5353 66.1979 32.7886 66.0012C33.0419 65.8046 33.3233 65.7203 33.6329 65.6641L33.8581 66.1136C33.5485 66.1979 33.267 66.3103 33.07 66.4227C32.8449 66.5632 32.6479 66.7318 32.4791 66.9846C32.1414 67.4342 32.0288 67.9119 32.1414 68.3614C32.2539 68.8391 32.5917 69.2605 33.1264 69.6539C33.6611 70.0473 34.1958 70.244 34.6742 70.2159C35.1527 70.1878 35.5748 69.9349 35.8843 69.4853C36.0532 69.2605 36.1658 69.0077 36.2502 68.7548C36.3065 68.5019 36.3346 68.2209 36.3065 67.9119L36.8131 67.9962C36.8693 68.3052 36.8412 68.6143 36.7568 68.8953C36.6724 69.1762 36.5316 69.4853 36.3065 69.7944C36.025 70.1878 35.6873 70.4687 35.3215 70.6373Z" fill="black"/>
<path d="M39.712 65.2986L36.0814 62.4045L34.9556 63.8094L34.5615 63.5003L37.179 60.2129L37.573 60.522L36.4472 61.9268L40.0779 64.8209L39.712 65.2986Z" fill="black"/>
<path d="M42.7239 60.8875C42.2455 60.9156 41.7389 60.7189 41.2041 60.2693L38.8398 58.2182L39.2339 57.7686L41.6544 59.8478C42.0203 60.185 42.4144 60.3255 42.7521 60.2974C43.118 60.2693 43.4275 60.1007 43.7653 59.7355C44.0749 59.3702 44.2156 59.033 44.1875 58.6677C44.1593 58.3025 43.9623 57.9653 43.5683 57.6562L41.1478 55.577L41.5418 55.1274L43.906 57.1786C44.4126 57.6281 44.6941 58.0777 44.7223 58.5835C44.7504 59.0892 44.5534 59.5669 44.1312 60.0726C43.6809 60.5784 43.2024 60.8594 42.7239 60.8875Z" fill="black"/>
<path d="M50.1819 53.3852L49.7317 53.8628L47.9304 53.3571C47.7052 53.3009 47.5363 53.3009 47.3675 53.3571C47.2267 53.4133 47.0579 53.5257 46.889 53.6942L46.2136 54.3967L47.7896 55.8858L47.3956 56.3073L43.6523 52.767L45.1159 51.2217C45.5099 50.8283 45.8758 50.5754 46.2698 50.5473C46.6639 50.4911 47.0297 50.6597 47.3675 50.9688C47.6489 51.2498 47.8178 51.5588 47.8459 51.8679C47.8741 52.2051 47.7615 52.5422 47.5082 52.8794C47.6208 52.8232 47.7615 52.767 47.9023 52.767C48.043 52.767 48.1837 52.767 48.3525 52.8232L50.1819 53.3852ZM46.8608 52.9918C47.1423 52.7108 47.283 52.4299 47.283 52.177C47.3112 51.9241 47.1704 51.6712 46.9453 51.4464C46.692 51.2217 46.4669 51.1093 46.2136 51.1655C45.9603 51.1936 45.7069 51.3622 45.4255 51.6431L44.4122 52.7108L45.8477 54.0595L46.8608 52.9918Z" fill="black"/>
<path d="M52.068 51.4748L48.4653 47.794L50.8014 45.5181L51.1393 45.8833L49.2253 47.7378L50.4919 49.0303L52.2932 47.2601L52.631 47.6254L50.8296 49.3955L52.1525 50.7442L54.0665 48.8898L54.4042 49.2551L52.068 51.4748Z" fill="black"/>
<path d="M59.3854 44.6469L58.9069 45.0965L57.1338 44.4502C56.9086 44.3659 56.7398 44.3659 56.5709 44.394C56.402 44.4221 56.2332 44.5345 56.0644 44.7031L55.3607 45.3494L56.8243 46.979L56.3739 47.3724L52.9121 43.5511L54.4882 42.1181C54.9104 41.7529 55.3044 41.5562 55.6985 41.5281C56.0925 41.5281 56.4302 41.6967 56.768 42.0338C57.0494 42.3429 57.162 42.652 57.162 42.9892C57.162 43.3263 57.0213 43.6635 56.7398 43.9726C56.8524 43.9164 56.9931 43.8883 57.1338 43.8883C57.2745 43.8883 57.4153 43.9164 57.5841 43.9726L59.3854 44.6469ZM56.0925 44.0007C56.4021 43.7197 56.5428 43.4668 56.5991 43.2139C56.6272 42.9611 56.5428 42.7082 56.3176 42.4553C56.0925 42.2024 55.8673 42.09 55.614 42.09C55.3607 42.09 55.0793 42.2305 54.7979 42.5115L53.7002 43.4949L55.023 44.956L56.0925 44.0007Z" fill="black"/>
<path d="M60.7929 42.6522L60.6804 42.1464C61.0181 42.1464 61.2995 42.0902 61.581 42.0059C61.8343 41.8935 62.1157 41.7531 62.369 41.5283C62.6786 41.2754 62.8756 40.9944 62.9601 40.7415C63.0164 40.4606 62.9601 40.2358 62.7912 40.011C62.6786 39.8705 62.5379 39.8143 62.3972 39.7862C62.2565 39.7862 62.0876 39.7862 61.9187 39.8705C61.7498 39.9267 61.5247 40.0391 61.2432 40.1796C60.8774 40.3763 60.5678 40.4887 60.2864 40.573C60.0331 40.6573 59.7797 40.6854 59.5264 40.6292C59.2731 40.573 59.0762 40.4325 58.8791 40.2077C58.6821 39.9829 58.5977 39.73 58.5695 39.4491C58.5414 39.1681 58.5977 38.9152 58.7384 38.6342C58.8791 38.3533 59.1042 38.1004 59.3857 37.8475C59.6671 37.6227 59.9486 37.4541 60.2582 37.3417C60.5678 37.2293 60.8774 37.1732 61.1588 37.2013L61.2714 37.707C60.9618 37.707 60.6522 37.7351 60.3989 37.8194C60.1456 37.9037 59.8923 38.0442 59.6671 38.2409C59.3575 38.4937 59.1605 38.7747 59.1042 39.0276C59.048 39.3086 59.1043 39.5614 59.3013 39.7862C59.4702 39.9829 59.6672 40.0672 59.8923 40.0391C60.1175 40.011 60.427 39.8986 60.7929 39.73C61.2151 39.5334 61.5247 39.3929 61.778 39.2805C62.0313 39.1962 62.2846 39.1681 62.5379 39.1962C62.7912 39.2243 62.9882 39.3648 63.1852 39.5895C63.3822 39.8143 63.4667 40.0672 63.4948 40.3201C63.5229 40.573 63.4667 40.8539 63.2978 41.1349C63.1571 41.4159 62.9319 41.6688 62.6223 41.9216C62.0876 42.4274 61.4402 42.6522 60.7929 42.6522Z" fill="black"/>
<path d="M66.5622 32.228L66.9563 31.9189L70.0803 36.0212L69.63 36.3584L67.2096 33.1833L67.8006 36.7236L67.4629 36.9765L64.2262 35.4873L66.6467 38.6343L66.1964 38.9714L63.0723 34.8692L63.4663 34.5601L67.294 36.3584L66.5622 32.228Z" fill="black"/>
<path d="M75.7376 32.0592L74.5274 31.3005L72.304 32.8178L72.5854 34.2227L72.0788 34.5598L71.0093 29.0246L71.4314 28.7437L76.2161 31.6939L75.7376 32.0592ZM72.1913 32.2839L74.0489 30.9915L71.6284 29.4742L72.1913 32.2839Z" fill="black"/>
<path d="M78.608 24.1077L79.0864 23.7986L81.8165 28.1537L81.4225 28.4066L76.5816 26.5521L78.7769 30.0643L78.2984 30.3734L75.5684 26.0183L75.9624 25.7654L80.8033 27.6198L78.608 24.1077Z" fill="black"/>
<path d="M84.5751 26.0183C84.0966 25.8778 83.7026 25.5126 83.3649 24.9225L81.8169 22.197L82.3235 21.9161L83.8996 24.6977C84.1529 25.1473 84.4344 25.4002 84.7721 25.5126C85.1099 25.6249 85.4758 25.5407 85.8979 25.3159C86.3201 25.0911 86.5734 24.782 86.6579 24.4448C86.7423 24.1077 86.6578 23.7143 86.4045 23.2929L84.8284 20.5112L85.3631 20.2302L86.9111 22.9557C87.2489 23.5457 87.3333 24.0796 87.2208 24.5572C87.08 25.0349 86.7423 25.4283 86.1512 25.7654C85.5602 26.0464 85.0535 26.1588 84.5751 26.0183Z" fill="black"/>
<path d="M90.5133 23.2927L88.1494 18.7128L90.9917 17.2517L91.2169 17.7013L88.9092 18.8814L89.7253 20.4548L91.8923 19.3309L92.1174 19.7805L89.9505 20.9044L91.0199 23.0117L90.5133 23.2927Z" fill="black"/>
<path d="M98.8441 19.2186L97.7746 18.2633L95.326 19.4153L95.3823 20.8482L94.8194 21.1011L94.6787 15.4816L95.1572 15.2568L99.407 18.9657L98.8441 19.2186ZM95.2979 18.8533L97.3524 17.898L95.2134 15.9874L95.2979 18.8533Z" fill="black"/>
<path d="M102.25 17.4486C101.828 17.3924 101.462 17.2238 101.124 16.9147C100.786 16.6338 100.533 16.2404 100.308 15.7346C100.111 15.2289 99.9981 14.7793 100.026 14.3298C100.054 13.8802 100.195 13.5149 100.448 13.1778C100.702 12.8406 101.039 12.5877 101.49 12.391C101.828 12.2506 102.137 12.1663 102.447 12.1663C102.756 12.1663 103.066 12.1944 103.347 12.3067L103.319 12.8125C103.01 12.7282 102.728 12.672 102.475 12.672C102.222 12.672 101.968 12.7282 101.687 12.8406C101.152 13.0654 100.842 13.4025 100.674 13.8521C100.533 14.3017 100.589 14.8636 100.842 15.4818C101.096 16.0999 101.462 16.5214 101.884 16.7462C102.306 16.9709 102.784 16.9709 103.319 16.7462C103.573 16.6338 103.798 16.4933 103.995 16.3247C104.192 16.1561 104.361 15.9032 104.501 15.6223L104.895 15.9594C104.783 16.2404 104.586 16.4933 104.361 16.7181C104.135 16.9428 103.854 17.1114 103.516 17.2519C103.094 17.4486 102.672 17.5048 102.25 17.4486Z" fill="black"/>
<path d="M108.779 15.1447L107.175 10.7896L105.486 11.4077L105.317 10.9301L109.258 9.46899L109.427 9.94665L107.738 10.5648L109.342 14.9199L108.779 15.1447Z" fill="black"/>
<path d="M113.649 12.9249C113.198 12.7001 112.889 12.2506 112.664 11.6043L111.707 8.62596L112.27 8.45738L113.255 11.4919C113.424 11.9696 113.649 12.2786 113.958 12.4472C114.268 12.6158 114.662 12.6158 115.112 12.4753C115.563 12.3348 115.872 12.1101 116.013 11.7729C116.154 11.4638 116.154 11.0705 116.013 10.5928L115.028 7.55826L115.591 7.36157L116.548 10.3399C116.745 10.9862 116.745 11.52 116.52 11.9696C116.295 12.4191 115.872 12.7282 115.225 12.953C114.606 13.1497 114.071 13.1497 113.649 12.9249Z" fill="black"/>
<path d="M123.921 10.3401L123.274 10.5087L121.979 9.15999C121.81 8.99141 121.669 8.90711 121.501 8.85092C121.332 8.82282 121.135 8.82282 120.91 8.90711L119.981 9.15999L120.572 11.2673L120.009 11.4359L118.63 6.46263L120.684 5.90068C121.219 5.76019 121.669 5.76019 122.035 5.92877C122.373 6.09736 122.626 6.40643 122.767 6.85599C122.88 7.24936 122.851 7.58653 122.711 7.86751C122.57 8.17658 122.289 8.40136 121.895 8.56994C122.035 8.56994 122.148 8.59804 122.289 8.65424C122.401 8.71043 122.542 8.82282 122.654 8.93521L123.921 10.3401ZM121.275 8.28897C121.669 8.17658 121.923 8.03609 122.063 7.81131C122.204 7.58653 122.232 7.33365 122.148 6.99648C122.063 6.68741 121.895 6.46263 121.669 6.35024C121.444 6.23785 121.135 6.23785 120.741 6.35024L119.305 6.7436L119.84 8.65424L121.275 8.28897Z" fill="black"/>
<path d="M126.51 9.69369L125.328 4.69233L128.509 3.96179L128.621 4.43945L126.032 5.0576L126.454 6.79964L128.903 6.23769L129.015 6.71535L126.567 7.2773L126.989 9.10364L129.578 8.4855L129.691 8.96315L126.51 9.69369Z" fill="black"/>
<path d="M136.305 7.61443L135.658 7.72682L134.475 6.26575C134.335 6.09716 134.194 5.98477 134.025 5.92858C133.856 5.87238 133.659 5.87238 133.434 5.92858L132.477 6.09716L132.899 8.23258L132.308 8.34497L131.323 3.28741L133.406 2.89404C133.969 2.78165 134.391 2.83785 134.729 3.00643C135.067 3.20312 135.292 3.51219 135.376 3.98985C135.461 4.38321 135.404 4.72038 135.235 5.00136C135.066 5.28233 134.757 5.50712 134.363 5.6476C134.504 5.6476 134.616 5.7038 134.729 5.78809C134.841 5.87238 134.954 5.95668 135.067 6.09716L136.305 7.61443ZM133.856 5.36663C134.25 5.28233 134.532 5.14185 134.701 4.94516C134.869 4.74848 134.926 4.46751 134.841 4.15843C134.785 3.82126 134.644 3.59648 134.419 3.48409C134.194 3.3717 133.884 3.3436 133.49 3.4279L132.027 3.70887L132.393 5.6476L133.856 5.36663Z" fill="black"/>
<path d="M138.557 6.6309L138.726 6.15324C139.007 6.32182 139.289 6.43421 139.57 6.49041C139.851 6.5466 140.161 6.5466 140.499 6.49041C140.921 6.43421 141.202 6.29373 141.399 6.09704C141.596 5.90036 141.681 5.67558 141.624 5.36651C141.596 5.19792 141.512 5.05743 141.399 4.97314C141.287 4.88885 141.118 4.83265 140.949 4.77646C140.78 4.72026 140.527 4.72026 140.217 4.69217C139.795 4.66407 139.457 4.60787 139.204 4.55168C138.923 4.49548 138.698 4.38309 138.529 4.21451C138.332 4.04592 138.219 3.82114 138.191 3.51207C138.135 3.23109 138.191 2.95012 138.304 2.69724C138.416 2.44436 138.613 2.24768 138.866 2.07909C139.12 1.91051 139.457 1.79812 139.823 1.74192C140.189 1.68573 140.527 1.68573 140.836 1.77002C141.146 1.82622 141.455 1.9667 141.681 2.13529L141.512 2.61295C141.23 2.44436 140.977 2.33197 140.696 2.27578C140.442 2.21958 140.161 2.21958 139.88 2.24768C139.486 2.30387 139.176 2.44436 138.979 2.64104C138.782 2.83773 138.698 3.09061 138.754 3.39968C138.782 3.65256 138.923 3.82114 139.148 3.93353C139.373 4.04592 139.683 4.10212 140.105 4.13021C140.555 4.15831 140.921 4.21451 141.174 4.2707C141.427 4.3269 141.681 4.41119 141.849 4.57978C142.046 4.72026 142.159 4.94504 142.215 5.25412C142.272 5.53509 142.215 5.81607 142.103 6.04085C141.99 6.26563 141.793 6.49041 141.512 6.6309C141.258 6.79948 140.921 6.91187 140.527 6.96807C139.767 7.10855 139.092 6.99616 138.557 6.6309Z" fill="black"/>
<path d="M148.914 0.730512L149.392 0.674316L149.927 5.78807L149.392 5.84426L148.97 1.88251L147.647 5.19802L147.225 5.25422L145.227 2.30397L145.649 6.23763L145.086 6.29383L144.551 1.18007L145.058 1.12388L147.394 4.63607L148.914 0.730512Z" fill="black"/>
<path d="M156.851 5.31037L156.203 4.01788L153.501 4.18646L153.023 5.53515L152.403 5.56324L154.374 0.280905L154.88 0.252808L157.442 5.25417L156.851 5.31037ZM153.698 3.68071L155.95 3.54022L154.655 0.983344L153.698 3.68071Z" fill="black"/>
<path d="M163.409 0H163.972L164.056 5.14185H163.606L160.425 1.06771L160.481 5.19805H159.918L159.834 0.0561951H160.284L163.465 4.15844L163.409 0Z" fill="black"/>
<path d="M167.517 4.72049C167.179 4.35522 167.011 3.84946 167.039 3.14703L167.123 0.0281982L167.714 0.0562958L167.63 3.23132C167.602 3.73707 167.714 4.10234 167.967 4.38332C168.193 4.6362 168.559 4.77668 169.037 4.80478C169.515 4.80478 169.881 4.69239 170.135 4.46761C170.388 4.21473 170.529 3.84946 170.529 3.34371L170.613 0.168686L171.204 0.196784L171.12 3.31561C171.092 3.98995 170.923 4.49571 170.557 4.83288C170.191 5.17005 169.684 5.33864 169.009 5.31054C168.361 5.25434 167.855 5.08576 167.517 4.72049Z" fill="black"/>
<path d="M174.018 5.42286L174.356 0.281006L177.536 0.505786L177.508 1.01154L174.919 0.842957L174.806 2.6131L177.255 2.78169L177.227 3.28744L174.778 3.11886L174.609 5.47905L174.018 5.42286Z" fill="black"/>
<path d="M183.278 6.23771L182.856 4.86093L180.182 4.57995L179.479 5.84434L178.859 5.78815L181.646 0.89917L182.152 0.955365L183.869 6.322L183.278 6.23771ZM180.436 4.13039L182.687 4.35517L181.843 1.60161L180.436 4.13039Z" fill="black"/>
<path d="M187.106 6.49046C186.768 6.23758 186.543 5.90041 186.431 5.47895C186.29 5.05749 186.262 4.57983 186.346 4.04598C186.431 3.51212 186.6 3.06256 186.825 2.69729C187.078 2.33203 187.388 2.07915 187.782 1.91056C188.176 1.74198 188.598 1.71388 189.076 1.77008C189.442 1.82627 189.752 1.91056 190.033 2.07915C190.315 2.21964 190.54 2.41632 190.737 2.6692L190.456 3.09066C190.23 2.83778 190.033 2.6692 189.808 2.52871C189.583 2.38822 189.33 2.30393 189.048 2.27583C188.485 2.19154 188.035 2.30393 187.669 2.6411C187.303 2.95017 187.078 3.45593 186.994 4.10217C186.881 4.77651 186.966 5.31037 187.219 5.73183C187.472 6.15329 187.866 6.37807 188.429 6.46237C188.711 6.51856 188.992 6.49046 189.217 6.43427C189.442 6.37807 189.724 6.26568 190.005 6.0971L190.174 6.57476C189.921 6.74334 189.639 6.88383 189.33 6.94002C189.02 6.99622 188.682 7.02432 188.345 6.96812C187.838 6.91193 187.444 6.74334 187.106 6.49046Z" fill="black"/>
<path d="M193.889 7.86726L194.761 3.31546L192.988 2.97829L193.073 2.47253L197.21 3.25927L197.126 3.76502L195.353 3.42785L194.48 7.97965L193.889 7.86726Z" fill="black"/>
<path d="M199.18 8.4855C198.927 8.06404 198.87 7.53018 199.011 6.85584L199.715 3.79321L200.306 3.9337L199.574 7.02443C199.461 7.50209 199.489 7.89545 199.686 8.20452C199.855 8.5136 200.193 8.71028 200.671 8.82267C201.15 8.93506 201.516 8.87887 201.825 8.71028C202.107 8.5136 202.332 8.17643 202.445 7.69877L203.176 4.60804L203.767 4.74853L203.064 7.81116C202.923 8.4574 202.613 8.93506 202.191 9.18794C201.769 9.44082 201.234 9.49701 200.587 9.35652C199.912 9.18794 199.461 8.90696 199.18 8.4855Z" fill="black"/>
<path d="M209.341 11.5481L208.693 11.3795L208.299 9.55315C208.243 9.32837 208.159 9.15978 208.046 9.04739C207.934 8.935 207.737 8.85071 207.511 8.76642L206.583 8.51354L205.992 10.6209L205.429 10.4523L206.808 5.479L208.862 6.04095C209.397 6.18144 209.791 6.43432 209.988 6.74339C210.213 7.05247 210.241 7.44583 210.129 7.92349C210.016 8.31686 209.819 8.59783 209.538 8.76642C209.256 8.935 208.891 8.9912 208.468 8.9631C208.581 9.04739 208.665 9.13168 208.75 9.24407C208.834 9.35646 208.862 9.49695 208.919 9.66554L209.341 11.5481ZM208.131 8.45734C208.525 8.56973 208.834 8.56973 209.059 8.45734C209.285 8.34495 209.453 8.14827 209.538 7.8111C209.622 7.50203 209.594 7.22105 209.453 7.02437C209.313 6.82769 209.031 6.6591 208.665 6.54671L207.23 6.15334L206.695 8.06398L208.131 8.45734Z" fill="black"/>
<path d="M211.873 12.3348L213.449 7.4458L216.545 8.45731L216.404 8.93497L213.871 8.12014L213.308 9.83409L215.701 10.6208L215.56 11.0985L213.168 10.3118L212.605 12.0819L215.138 12.8967L214.997 13.3744L211.873 12.3348Z" fill="black"/>
<path d="M221.359 15.5941L220.74 15.3693L220.486 13.5149C220.458 13.2901 220.374 13.1215 220.261 13.0091C220.149 12.8967 219.98 12.7843 219.755 12.7L218.854 12.3629L218.094 14.414L217.531 14.2173L219.304 9.38452L221.303 10.1151C221.837 10.3117 222.175 10.5646 222.372 10.9018C222.569 11.239 222.569 11.6323 222.4 12.0819C222.26 12.4472 222.034 12.7281 221.753 12.8686C221.443 13.0091 221.106 13.0653 220.683 12.981C220.796 13.0653 220.88 13.1777 220.937 13.2901C220.993 13.4025 221.049 13.5711 221.077 13.7396L221.359 15.5941ZM220.402 12.4191C220.768 12.5595 221.077 12.5876 221.331 12.5033C221.584 12.4191 221.753 12.2224 221.865 11.8852C221.978 11.5761 221.978 11.3233 221.837 11.0985C221.697 10.8737 221.443 10.7051 221.077 10.5646L219.698 10.0589L219.023 11.9133L220.402 12.4191Z" fill="black"/>
<path d="M223.778 15.9313L224.172 15.5941C224.313 15.8751 224.51 16.128 224.707 16.3247C224.904 16.5213 225.186 16.6618 225.495 16.8023C225.889 16.9709 226.199 16.999 226.48 16.9428C226.762 16.8866 226.931 16.718 227.043 16.437C227.099 16.2685 227.099 16.128 227.043 15.9875C226.987 15.847 226.874 15.7065 226.762 15.5941C226.621 15.4817 226.424 15.3131 226.171 15.1446C225.833 14.9198 225.58 14.695 225.383 14.4983C225.186 14.3016 225.045 14.1049 224.989 13.8521C224.904 13.6273 224.932 13.3463 225.045 13.0653C225.157 12.7844 225.326 12.5877 225.551 12.4472C225.777 12.3067 226.058 12.2224 226.368 12.2224C226.677 12.2224 227.015 12.2786 227.353 12.4191C227.69 12.5596 227.972 12.7282 228.225 12.9529C228.479 13.1777 228.647 13.4306 228.76 13.7116L228.366 14.0488C228.225 13.7678 228.056 13.5149 227.859 13.3463C227.662 13.1777 227.437 13.0091 227.156 12.8968C226.79 12.7563 226.452 12.7001 226.199 12.7844C225.917 12.8406 225.72 13.0372 225.608 13.3182C225.495 13.543 225.523 13.7678 225.664 13.9645C225.805 14.1611 226.03 14.3859 226.368 14.6107C226.734 14.8917 227.015 15.1165 227.212 15.285C227.409 15.4536 227.55 15.6784 227.634 15.9032C227.719 16.128 227.719 16.3809 227.578 16.6618C227.465 16.9428 227.296 17.1395 227.071 17.28C226.846 17.4205 226.565 17.5048 226.255 17.5048C225.946 17.5048 225.608 17.4205 225.242 17.28C224.566 16.9428 224.06 16.5213 223.778 15.9313Z" fill="black"/>
<path d="M235.712 16.1842L236.162 16.3809L233.967 21.0451L233.46 20.8203L235.149 17.2239L232.278 19.3874L231.884 19.2188L231.687 15.6504L230.027 19.2469L229.52 19.0221L231.715 14.3579L232.166 14.5546L232.363 18.7692L235.712 16.1842Z" fill="black"/>
<path d="M240.131 24.2201L240.244 22.7871L237.851 21.5227L236.725 22.4218L236.19 22.1409L240.61 18.6287L241.06 18.8815L240.666 24.501L240.131 24.2201ZM238.273 21.2136L240.272 22.2813L240.497 19.4154L238.273 21.2136Z" fill="black"/>
<path d="M248.489 23.0683L248.968 23.3492L246.379 27.7887L245.984 27.5639L245.393 22.422L243.311 25.9904L242.832 25.7094L245.421 21.27L245.816 21.4948L246.407 26.6367L248.489 23.0683Z" fill="black"/>
<path d="M249.587 29.2215C249.475 28.7438 249.615 28.21 249.981 27.648L251.67 25.0068L252.176 25.3159L250.46 27.9852C250.178 28.4066 250.094 28.8 250.15 29.1372C250.206 29.4743 250.46 29.7834 250.854 30.0363C251.248 30.2892 251.614 30.3735 251.979 30.3173C252.317 30.233 252.627 29.9801 252.908 29.5586L254.625 26.8894L255.131 27.2265L253.443 29.8677C253.077 30.4297 252.655 30.7668 252.176 30.8792C251.698 30.9916 251.163 30.8511 250.6 30.4859C250.009 30.1206 249.672 29.6991 249.587 29.2215Z" fill="black"/>
<path d="M254.766 33.2115L257.721 28.9968L260.338 30.8232L260.056 31.2446L257.946 29.7555L256.933 31.2165L258.931 32.6214L258.649 33.0429L256.651 31.638L255.3 33.5767L254.766 33.2115Z" fill="black"/>
<path d="M262.252 38.6904L262.59 37.2855L260.451 35.6559L259.185 36.3583L258.706 35.993L263.632 33.2676L264.054 33.5767L262.731 39.0557L262.252 38.6904ZM260.93 35.3749L262.731 36.7517L263.434 33.97L260.93 35.3749Z" fill="black"/>
<path d="M265.405 40.882C265.264 40.4887 265.236 40.0672 265.348 39.6458C265.461 39.2243 265.686 38.8028 266.024 38.3814C266.362 37.9599 266.756 37.6789 267.15 37.4822C267.544 37.2856 267.966 37.2575 268.36 37.3137C268.754 37.3698 269.176 37.5665 269.542 37.8756C269.823 38.1004 270.02 38.3533 270.189 38.6342C270.358 38.9152 270.442 39.1962 270.47 39.5053L269.992 39.7019C269.936 39.3929 269.851 39.1119 269.711 38.8871C269.598 38.6623 269.401 38.4657 269.204 38.269C268.782 37.9037 268.303 37.7632 267.853 37.8475C267.375 37.9318 266.924 38.2409 266.502 38.7466C266.08 39.2805 265.855 39.7581 265.855 40.2358C265.855 40.7135 266.08 41.1349 266.502 41.5002C266.727 41.6969 266.953 41.8093 267.206 41.8936C267.459 41.9779 267.741 42.0059 268.05 42.0059L267.938 42.5117C267.628 42.5398 267.318 42.4836 267.037 42.3993C266.727 42.2869 266.446 42.1183 266.164 41.8936C265.799 41.6126 265.545 41.2754 265.405 40.882Z" fill="black"/>
<path d="M270.471 45.5461L273.567 42.0901L272.244 40.8819L272.582 40.4885L275.706 43.2983L275.368 43.6916L274.017 42.4834L270.921 45.9394L270.471 45.5461Z" fill="black"/>
<path d="M274.721 48.8336C274.721 48.3279 274.946 47.8502 275.424 47.3726L277.62 45.1248L278.042 45.5462L275.818 47.8221C275.481 48.1874 275.284 48.5246 275.284 48.8898C275.284 49.2551 275.452 49.5923 275.79 49.9294C276.128 50.2666 276.494 50.4352 276.832 50.4071C277.169 50.4071 277.535 50.2104 277.873 49.8451L280.096 47.5692L280.518 47.9907L278.323 50.2385C277.845 50.7162 277.366 50.969 276.86 50.969C276.353 50.969 275.875 50.7443 275.396 50.2947C274.974 49.7889 274.721 49.3113 274.721 48.8336Z" fill="black"/>
<path d="M281.813 56.701L281.362 56.2233L281.954 54.4532C282.038 54.2284 282.038 54.0598 282.01 53.8912C281.954 53.7226 281.869 53.5541 281.7 53.3855L281.025 52.683L279.448 54.1722L279.054 53.7507L282.798 50.2104L284.262 51.7558C284.656 52.1773 284.853 52.5706 284.881 52.9359C284.909 53.3293 284.74 53.6664 284.374 54.0036C284.093 54.2846 283.783 54.4251 283.445 54.4251C283.108 54.4251 282.77 54.3127 282.432 54.0317C282.488 54.1441 282.516 54.2846 282.516 54.4251C282.516 54.5656 282.488 54.7061 282.432 54.8746L281.813 56.701ZM282.376 53.4136C282.657 53.6945 282.911 53.8631 283.164 53.8912C283.417 53.9193 283.671 53.835 283.924 53.5822C284.177 53.3574 284.29 53.1045 284.262 52.8516C284.234 52.5987 284.093 52.3178 283.811 52.0368L282.798 50.9691L281.362 52.3178L282.376 53.4136Z" fill="black"/>
<path d="M283.585 58.6676L287.47 55.2959L289.609 57.7404L289.243 58.0776L287.498 56.0545L286.147 57.2346L287.807 59.1453L287.442 59.4824L285.781 57.5718L284.374 58.8081L286.119 60.8311L285.753 61.1683L283.585 58.6676Z" fill="black"/>
<path d="M290.003 66.3664L289.581 65.8606L290.313 64.1467C290.397 63.95 290.425 63.7533 290.397 63.5848C290.369 63.4162 290.285 63.2476 290.116 63.0509L289.525 62.2923L287.836 63.669L287.47 63.2195L291.495 59.9883L292.818 61.646C293.155 62.0956 293.352 62.489 293.324 62.8823C293.324 63.2757 293.127 63.6129 292.733 63.9219C292.424 64.1748 292.086 64.2872 291.776 64.2591C291.439 64.231 291.129 64.0905 290.819 63.7814C290.876 63.9219 290.904 64.0343 290.876 64.1748C290.876 64.3153 290.819 64.4558 290.763 64.6244L290.003 66.3664ZM290.848 63.1352C291.101 63.4443 291.354 63.6409 291.607 63.669C291.861 63.7252 292.114 63.6409 292.367 63.4162C292.621 63.2195 292.761 62.9666 292.761 62.7137C292.761 62.4609 292.649 62.1799 292.395 61.8708L291.467 60.7188L289.919 61.9551L290.848 63.1352Z" fill="black"/>
<path d="M291.916 67.8837L292.423 67.7994C292.394 68.1365 292.423 68.4175 292.507 68.6985C292.591 68.9795 292.732 69.2323 292.957 69.5133C293.211 69.8505 293.464 70.0472 293.717 70.1315C293.971 70.2158 294.224 70.1596 294.477 69.991C294.618 69.8786 294.702 69.7662 294.731 69.6257C294.759 69.4852 294.731 69.3166 294.674 69.1199C294.618 68.9233 294.534 68.6985 294.421 68.4456C294.252 68.0803 294.14 67.7432 294.083 67.4903C294.027 67.2374 293.999 66.9564 294.055 66.7317C294.111 66.5069 294.28 66.2821 294.505 66.0854C294.731 65.9168 294.984 65.8325 295.265 65.8044C295.547 65.8044 295.8 65.8606 296.082 66.0292C296.363 66.1978 296.588 66.4226 296.813 66.7036C297.039 66.9845 297.179 67.2936 297.264 67.6027C297.348 67.9118 297.376 68.2208 297.348 68.5299L296.842 68.6142C296.87 68.3051 296.842 67.9961 296.757 67.7432C296.673 67.4903 296.56 67.2374 296.391 67.0126C296.166 66.7036 295.913 66.4788 295.631 66.3945C295.35 66.3102 295.097 66.3664 294.871 66.535C294.674 66.6755 294.562 66.8722 294.59 67.125C294.59 67.3498 294.702 67.687 294.871 68.0522C295.04 68.4737 295.181 68.8109 295.265 69.0638C295.35 69.3166 295.35 69.5695 295.322 69.8224C295.265 70.0753 295.125 70.2719 294.899 70.4686C294.674 70.6372 294.421 70.7215 294.14 70.7496C293.858 70.7496 293.605 70.6934 293.323 70.5248C293.042 70.3562 292.817 70.1315 292.591 69.8224C292.057 69.1761 291.86 68.5299 291.916 67.8837Z" fill="black"/>
<path d="M301.993 74.2618L302.274 74.6552L297.996 77.5211L297.687 77.0716L301.008 74.8518L297.433 75.2452L297.208 74.8799L298.869 71.733L295.576 73.9527L295.266 73.5032L299.544 70.6372L299.826 71.0587L297.799 74.7675L301.993 74.2618Z" fill="black"/>
<path d="M301.627 83.3936L302.471 82.2135L301.064 79.9095L299.628 80.1062L299.319 79.5723L304.92 78.8418L305.201 79.2914L301.965 83.8994L301.627 83.3936ZM301.599 79.8533L302.781 81.792L304.441 79.4599L301.599 79.8533Z" fill="black"/>
<path d="M309.423 86.7089L309.704 87.2147L305.173 89.6873L304.948 89.2939L307.087 84.5735L303.456 86.5684L303.175 86.0627L307.706 83.5901L307.931 83.9835L305.792 88.7038L309.423 86.7089Z" fill="black"/>
<path d="M307.171 92.5532C307.34 92.0755 307.734 91.7103 308.325 91.4012L311.14 90.0244L311.393 90.5583L308.522 91.9631C308.072 92.1879 307.79 92.4689 307.678 92.8061C307.565 93.1432 307.593 93.5085 307.819 93.9581C308.016 94.3795 308.297 94.6605 308.635 94.7729C308.973 94.8853 309.367 94.8291 309.817 94.6043L312.688 93.1994L312.941 93.7333L310.127 95.1101C309.507 95.4192 308.973 95.4754 308.494 95.3349C308.016 95.1663 307.65 94.801 307.34 94.211C307.059 93.5647 307.002 93.0309 307.171 92.5532Z" fill="black"/>
<path d="M309.536 98.6224L314.264 96.5432L315.558 99.4654L315.108 99.662L314.067 97.3018L312.434 98.0324L313.419 100.28L312.969 100.477L311.984 98.2291L309.817 99.1844L309.536 98.6224Z" fill="black"/>
<path d="M313.137 107.164L314.151 106.153L313.166 103.652L311.73 103.624L311.505 103.062L317.135 103.258L317.332 103.736L313.363 107.754L313.137 107.164ZM313.7 103.68L314.545 105.787L316.572 103.764L313.7 103.68Z" fill="black"/>
<path d="M314.685 110.676C314.77 110.255 314.967 109.917 315.277 109.58C315.586 109.271 316.008 109.018 316.515 108.85C317.021 108.681 317.5 108.597 317.95 108.653C318.401 108.709 318.766 108.878 319.076 109.131C319.386 109.412 319.639 109.777 319.808 110.227C319.92 110.564 319.977 110.901 319.977 111.21C319.977 111.519 319.892 111.828 319.78 112.109L319.273 112.053C319.386 111.744 319.442 111.463 319.47 111.21C319.47 110.957 319.442 110.704 319.329 110.423C319.132 109.889 318.823 109.524 318.372 109.356C317.922 109.187 317.387 109.215 316.74 109.44C316.093 109.665 315.671 109.974 315.417 110.395C315.164 110.817 315.136 111.294 315.333 111.828C315.417 112.109 315.558 112.334 315.727 112.531C315.896 112.727 316.121 112.896 316.402 113.064L316.036 113.43C315.755 113.289 315.53 113.092 315.333 112.868C315.136 112.615 314.967 112.334 314.854 111.997C314.657 111.519 314.601 111.098 314.685 110.676Z" fill="black"/>
<path d="M316.628 117.307L321.075 115.959L320.54 114.245L321.019 114.104L322.257 118.122L321.778 118.263L321.244 116.549L316.797 117.897L316.628 117.307Z" fill="black"/>
<path d="M318.57 122.281C318.823 121.859 319.273 121.55 319.949 121.381L322.989 120.595L323.13 121.157L320.033 121.972C319.555 122.112 319.217 122.309 319.02 122.618C318.823 122.927 318.795 123.292 318.936 123.77C319.048 124.219 319.273 124.556 319.583 124.725C319.893 124.894 320.287 124.922 320.765 124.781L323.861 123.966L324.002 124.556L320.962 125.343C320.315 125.512 319.752 125.484 319.33 125.231C318.908 124.978 318.598 124.528 318.429 123.882C318.26 123.264 318.316 122.702 318.57 122.281Z" fill="black"/>
<path d="M320.54 132.677L320.399 132.03L321.834 130.822C322.003 130.682 322.116 130.513 322.172 130.373C322.228 130.232 322.2 130.007 322.172 129.782L321.975 128.827L319.836 129.277L319.724 128.687L324.761 127.591L325.211 129.67C325.324 130.204 325.296 130.653 325.127 130.991C324.958 131.328 324.621 131.553 324.142 131.665C323.748 131.749 323.41 131.693 323.129 131.525C322.848 131.356 322.622 131.075 322.482 130.682C322.482 130.822 322.425 130.934 322.369 131.075C322.313 131.215 322.2 131.3 322.06 131.412L320.54 132.677ZM322.735 130.176C322.819 130.569 322.96 130.85 323.157 130.991C323.354 131.131 323.635 131.187 323.945 131.131C324.283 131.075 324.48 130.906 324.592 130.682C324.705 130.457 324.733 130.148 324.649 129.754L324.339 128.321L322.397 128.743L322.735 130.176Z" fill="black"/>
<path d="M321.019 135.29L326.113 134.419L326.676 137.622L326.197 137.706L325.747 135.065L323.974 135.374L324.396 137.847L323.918 137.931L323.495 135.458L321.638 135.767L322.088 138.409L321.61 138.493L321.019 135.29Z" fill="black"/>
<path d="M322.538 145.18L322.454 144.534L323.973 143.438C324.17 143.298 324.283 143.157 324.339 143.017C324.396 142.876 324.396 142.651 324.367 142.427L324.227 141.471L322.06 141.752L321.975 141.162L327.098 140.488L327.379 142.595C327.463 143.157 327.379 143.579 327.182 143.916C326.985 144.253 326.619 144.421 326.141 144.506C325.747 144.562 325.409 144.478 325.127 144.309C324.846 144.112 324.649 143.803 324.536 143.41C324.508 143.55 324.452 143.663 324.396 143.775C324.311 143.888 324.199 144 324.058 144.084L322.538 145.18ZM324.93 142.876C324.987 143.269 325.099 143.55 325.296 143.719C325.493 143.888 325.747 143.944 326.084 143.916C326.422 143.86 326.647 143.747 326.788 143.522C326.929 143.298 326.957 142.988 326.901 142.595L326.704 141.134L324.733 141.387L324.93 142.876Z" fill="black"/>
<path d="M323.382 147.484L323.861 147.681C323.664 147.962 323.551 148.215 323.467 148.495C323.411 148.776 323.383 149.086 323.411 149.423C323.439 149.844 323.551 150.153 323.748 150.35C323.917 150.547 324.171 150.659 324.452 150.631C324.621 150.603 324.762 150.547 324.846 150.434C324.93 150.322 325.015 150.181 325.071 149.985C325.127 149.816 325.156 149.563 325.212 149.254C325.268 148.861 325.324 148.524 325.409 148.243C325.493 147.99 325.606 147.765 325.803 147.596C326 147.428 326.225 147.315 326.535 147.287C326.816 147.259 327.097 147.315 327.323 147.456C327.576 147.596 327.745 147.793 327.914 148.074C328.083 148.355 328.167 148.664 328.195 149.029C328.223 149.395 328.195 149.732 328.111 150.041C328.026 150.35 327.886 150.631 327.689 150.856L327.21 150.659C327.407 150.406 327.52 150.125 327.604 149.872C327.689 149.619 327.689 149.338 327.66 149.057C327.632 148.664 327.52 148.355 327.323 148.158C327.126 147.962 326.901 147.849 326.591 147.877C326.338 147.905 326.141 148.018 326.028 148.243C325.915 148.467 325.831 148.776 325.775 149.17C325.718 149.619 325.634 149.985 325.578 150.238C325.521 150.49 325.409 150.715 325.24 150.912C325.071 151.109 324.846 151.193 324.536 151.221C324.255 151.249 323.974 151.193 323.748 151.052C323.523 150.912 323.326 150.715 323.185 150.434C323.045 150.153 322.96 149.816 322.904 149.451C322.82 148.664 322.988 148.018 323.382 147.484Z" fill="black"/>
<path d="M328.702 158.161L328.73 158.639L323.58 158.892L323.551 158.358L327.548 158.189L324.283 156.672L324.255 156.25L327.323 154.424L323.354 154.621L323.326 154.059L328.476 153.806L328.505 154.312L324.874 156.447L328.702 158.161Z" fill="black"/>
<path d="M323.664 165.804L324.987 165.214L324.93 162.516L323.607 161.954V161.336L328.814 163.528V164.034L323.692 166.394L323.664 165.804ZM325.437 162.713L325.465 164.989L328.083 163.809L325.437 162.713Z" fill="black"/>
<path d="M328.589 172.631L328.561 173.193L323.411 172.968L323.439 172.519L327.717 169.597L323.58 169.428L323.608 168.866L328.758 169.091L328.73 169.541L324.452 172.463L328.589 172.631Z" fill="black"/>
<path d="M323.636 176.481C324.001 176.172 324.536 176.031 325.24 176.087L328.364 176.368L328.308 176.958L325.127 176.677C324.621 176.621 324.227 176.734 323.973 176.958C323.692 177.183 323.551 177.52 323.495 177.998C323.467 178.476 323.551 178.841 323.776 179.122C324.001 179.375 324.367 179.543 324.874 179.571L328.055 179.852L327.998 180.442L324.874 180.161C324.198 180.105 323.692 179.88 323.382 179.515C323.073 179.15 322.932 178.616 322.988 177.942C323.045 177.267 323.242 176.79 323.636 176.481Z" fill="black"/>
<path d="M322.538 182.915L327.66 183.561L327.266 186.708L326.76 186.652L327.098 184.067L325.325 183.842L325.015 186.259L324.508 186.202L324.818 183.786L322.454 183.477L322.538 182.915Z" fill="black"/>
<path d="M321.187 192.075L322.594 191.738L323.045 189.097L321.834 188.31L321.947 187.692L326.675 190.754L326.591 191.26L321.131 192.665L321.187 192.075ZM323.467 189.378L323.101 191.625L325.887 190.951L323.467 189.378Z" fill="black"/>
<path d="M320.708 195.868C320.99 195.559 321.356 195.362 321.778 195.25C322.2 195.137 322.679 195.137 323.214 195.25C323.748 195.362 324.171 195.559 324.536 195.812C324.874 196.093 325.128 196.402 325.268 196.795C325.409 197.189 325.409 197.638 325.325 198.116C325.24 198.453 325.128 198.762 324.959 199.043C324.79 199.324 324.593 199.521 324.311 199.689L323.917 199.38C324.171 199.184 324.368 198.959 324.508 198.762C324.649 198.537 324.733 198.312 324.818 198.031C324.931 197.47 324.846 197.02 324.536 196.627C324.227 196.261 323.748 195.98 323.101 195.868C322.425 195.727 321.891 195.784 321.469 196.008C321.046 196.233 320.765 196.627 320.652 197.189C320.596 197.47 320.596 197.751 320.624 197.975C320.652 198.228 320.765 198.509 320.906 198.79L320.399 198.931C320.23 198.678 320.117 198.397 320.089 198.06C320.061 197.722 320.061 197.413 320.117 197.076C320.23 196.57 320.427 196.177 320.708 195.868Z" fill="black"/>
<path d="M318.936 202.555L323.439 203.679L323.861 201.937L324.367 202.049L323.354 206.124L322.848 206.011L323.298 204.269L318.795 203.145L318.936 202.555Z" fill="black"/>
<path d="M318.035 207.809C318.457 207.585 319.02 207.556 319.668 207.753L322.679 208.652L322.51 209.214L319.442 208.315C318.964 208.175 318.57 208.175 318.26 208.343C317.951 208.512 317.726 208.821 317.585 209.27C317.444 209.72 317.472 210.113 317.641 210.422C317.81 210.732 318.148 210.956 318.626 211.097L321.694 211.996L321.525 212.558L318.514 211.659C317.866 211.462 317.416 211.153 317.191 210.732C316.938 210.31 316.938 209.748 317.106 209.13C317.275 208.484 317.585 208.062 318.035 207.809Z" fill="black"/>
<path d="M314.349 217.756L314.574 217.138L316.431 216.857C316.656 216.829 316.825 216.745 316.938 216.632C317.051 216.52 317.163 216.351 317.248 216.126L317.557 215.227L315.503 214.525L315.7 213.963L320.569 215.621L319.893 217.616C319.724 218.149 319.443 218.515 319.133 218.711C318.796 218.908 318.402 218.936 317.951 218.768C317.585 218.627 317.304 218.43 317.135 218.121C316.966 217.84 316.938 217.475 317.022 217.054C316.938 217.166 316.853 217.25 316.713 217.307C316.6 217.363 316.431 217.419 316.262 217.447L314.349 217.756ZM317.529 216.745C317.388 217.11 317.388 217.419 317.473 217.672C317.557 217.925 317.782 218.093 318.092 218.206C318.402 218.318 318.683 218.29 318.88 218.178C319.105 218.037 319.274 217.784 319.387 217.419L319.865 216.014L317.979 215.368L317.529 216.745Z" fill="black"/>
<path d="M313.419 220.229L318.232 222.083L317.05 225.118L316.6 224.949L317.557 222.476L315.896 221.83L314.995 224.19L314.545 224.022L315.446 221.661L313.701 220.987L312.744 223.46L312.293 223.291L313.419 220.229Z" fill="black"/>
<path d="M309.592 229.473L309.845 228.883L311.703 228.742C311.928 228.714 312.097 228.658 312.237 228.574C312.378 228.461 312.491 228.321 312.575 228.068L312.969 227.197L310.971 226.326L311.196 225.792L315.924 227.843L315.08 229.782C314.855 230.288 314.573 230.625 314.236 230.821C313.898 230.99 313.504 230.99 313.054 230.793C312.688 230.625 312.434 230.4 312.294 230.091C312.153 229.782 312.153 229.417 312.266 229.023C312.181 229.136 312.069 229.22 311.956 229.276C311.843 229.332 311.675 229.36 311.506 229.388L309.592 229.473ZM312.857 228.742C312.688 229.107 312.66 229.417 312.716 229.669C312.772 229.922 312.969 230.119 313.279 230.231C313.588 230.372 313.842 230.372 314.067 230.259C314.292 230.147 314.489 229.894 314.658 229.529L315.249 228.18L313.419 227.394L312.857 228.742Z" fill="black"/>
<path d="M309.141 231.889L309.451 232.31C309.141 232.451 308.888 232.619 308.691 232.816C308.494 233.013 308.325 233.266 308.156 233.575C307.987 233.94 307.903 234.277 307.959 234.53C308.015 234.811 308.156 235.008 308.438 235.12C308.578 235.204 308.747 235.204 308.888 235.148C309.029 235.092 309.169 235.008 309.31 234.867C309.451 234.727 309.62 234.558 309.789 234.305C310.042 233.996 310.267 233.743 310.492 233.547C310.689 233.35 310.914 233.238 311.168 233.181C311.421 233.125 311.674 233.153 311.956 233.294C312.209 233.434 312.406 233.603 312.547 233.828C312.688 234.052 312.744 234.333 312.744 234.642C312.744 234.952 312.631 235.289 312.491 235.626C312.322 235.935 312.153 236.216 311.9 236.441C311.674 236.666 311.393 236.834 311.111 236.946L310.802 236.553C311.083 236.413 311.337 236.272 311.534 236.075C311.731 235.879 311.9 235.654 312.012 235.401C312.181 235.036 312.237 234.727 312.209 234.446C312.153 234.165 311.984 233.968 311.731 233.828C311.505 233.715 311.28 233.715 311.083 233.856C310.886 233.968 310.633 234.193 310.38 234.53C310.098 234.895 309.845 235.148 309.648 235.345C309.451 235.542 309.254 235.654 309.001 235.738C308.747 235.823 308.522 235.794 308.241 235.654C307.987 235.514 307.79 235.345 307.65 235.12C307.509 234.895 307.453 234.614 307.481 234.305C307.509 233.996 307.593 233.659 307.762 233.322C308.044 232.619 308.522 232.142 309.141 231.889Z" fill="black"/>
<path d="M308.184 243.746L307.959 244.168L303.428 241.723L303.681 241.246L307.199 243.156L305.201 240.178L305.398 239.813L308.972 239.841L305.482 237.958L305.736 237.48L310.267 239.925L310.042 240.375L305.82 240.318L308.184 243.746Z" fill="black"/>
<path d="M299.882 247.68L301.317 247.877L302.696 245.573L301.852 244.393L302.162 243.859L305.398 248.467L305.117 248.916L299.516 248.186L299.882 247.68ZM303.006 246.022L301.824 247.961L304.666 248.354L303.006 246.022Z" fill="black"/>
<path d="M300.557 256.109L300.248 256.587L295.941 253.749L296.195 253.356L301.374 253.075L297.912 250.771L298.221 250.293L302.528 253.131L302.274 253.524L297.095 253.805L300.557 256.109Z" fill="black"/>
<path d="M294.337 256.812C294.816 256.727 295.35 256.896 295.885 257.317L298.418 259.172L298.08 259.649L295.491 257.767C295.097 257.458 294.703 257.345 294.365 257.402C294.028 257.458 293.69 257.655 293.408 258.048C293.127 258.441 293.014 258.807 293.071 259.144C293.127 259.481 293.352 259.818 293.774 260.099L296.364 261.982L295.998 262.459L293.465 260.605C292.93 260.211 292.592 259.762 292.536 259.284C292.451 258.807 292.62 258.273 293.014 257.739C293.408 257.205 293.859 256.896 294.337 256.812Z" fill="black"/>
<path d="M290.06 261.757L294.113 264.96L292.142 267.461L291.749 267.152L293.353 265.129L291.974 264.033L290.454 265.943L290.06 265.634L291.58 263.724L289.722 262.263L290.06 261.757Z" fill="black"/>
<path d="M284.149 268.894L285.528 269.315L287.273 267.264L286.626 265.972L287.02 265.494L289.468 270.551L289.131 270.945L283.727 269.315L284.149 268.894ZM287.498 267.77L286.035 269.484L288.793 270.327L287.498 267.77Z" fill="black"/>
<path d="M281.757 271.9C282.151 271.788 282.573 271.788 282.995 271.928C283.417 272.069 283.839 272.293 284.233 272.687C284.627 273.052 284.909 273.445 285.078 273.867C285.247 274.288 285.275 274.682 285.19 275.103C285.106 275.525 284.881 275.89 284.543 276.255C284.29 276.508 284.036 276.705 283.755 276.873C283.474 277.042 283.164 277.098 282.882 277.098L282.714 276.62C283.023 276.592 283.305 276.508 283.558 276.396C283.783 276.283 284.008 276.115 284.205 275.918C284.599 275.496 284.768 275.047 284.684 274.569C284.627 274.092 284.346 273.614 283.868 273.164C283.361 272.715 282.882 272.462 282.404 272.434C281.926 272.406 281.503 272.602 281.109 273.024C280.912 273.221 280.772 273.445 280.659 273.698C280.575 273.923 280.518 274.204 280.49 274.541L280.012 274.401C280.012 274.092 280.068 273.782 280.181 273.501C280.293 273.221 280.49 272.94 280.715 272.687C280.997 272.265 281.363 272.04 281.757 271.9Z" fill="black"/>
<path d="M276.804 276.705L280.069 279.992L281.335 278.728L281.701 279.093L278.718 282.043L278.352 281.678L279.618 280.413L276.354 277.126L276.804 276.705Z" fill="black"/>
<path d="M273.285 280.751C273.792 280.779 274.242 281.032 274.72 281.537L276.831 283.841L276.381 284.235L274.214 281.875C273.876 281.509 273.538 281.313 273.173 281.285C272.807 281.256 272.469 281.425 272.103 281.734C271.737 282.043 271.568 282.38 271.568 282.746C271.568 283.083 271.737 283.448 272.075 283.841L274.242 286.202L273.792 286.595L271.681 284.291C271.231 283.785 271.005 283.308 271.034 282.802C271.062 282.296 271.315 281.846 271.794 281.369C272.3 280.919 272.779 280.723 273.285 280.751Z" fill="black"/>
<path d="M264.982 287.354L265.489 286.932L267.234 287.635C267.431 287.719 267.628 287.747 267.797 287.719C267.966 287.691 268.135 287.578 268.332 287.438L269.063 286.82L267.656 285.162L268.106 284.769L271.427 288.702L269.795 290.051C269.373 290.416 268.951 290.585 268.585 290.585C268.191 290.585 267.853 290.388 267.544 290.023C267.29 289.714 267.178 289.405 267.178 289.068C267.206 288.73 267.347 288.421 267.628 288.084C267.515 288.14 267.375 288.168 267.234 288.168C267.093 288.168 266.953 288.112 266.784 288.056L264.982 287.354ZM268.247 288.112C267.938 288.365 267.769 288.618 267.712 288.871C267.656 289.124 267.741 289.377 267.966 289.63C268.191 289.882 268.416 290.023 268.669 289.995C268.923 289.995 269.204 289.854 269.514 289.601L270.639 288.646L269.373 287.129L268.247 288.112Z" fill="black"/>
<path d="M262.899 289.011L266.051 293.086L263.462 295.081L263.152 294.687L265.263 293.057L264.166 291.653L262.167 293.198L261.858 292.805L263.856 291.259L262.702 289.77L260.591 291.4L260.282 291.006L262.899 289.011Z" fill="black"/>
<path d="M254.85 294.94L255.385 294.546L257.045 295.389C257.242 295.502 257.439 295.53 257.58 295.502C257.749 295.474 257.918 295.389 258.115 295.249L258.903 294.687L257.636 292.917L258.115 292.58L261.098 296.766L259.381 298.002C258.931 298.34 258.509 298.48 258.115 298.452C257.721 298.424 257.411 298.199 257.13 297.806C256.905 297.469 256.792 297.159 256.848 296.822C256.877 296.485 257.074 296.176 257.355 295.895C257.214 295.951 257.102 295.951 256.961 295.923C256.82 295.895 256.68 295.867 256.511 295.783L254.85 294.94ZM258.03 295.979C257.693 296.204 257.496 296.457 257.439 296.71C257.383 296.963 257.439 297.216 257.636 297.497C257.833 297.778 258.059 297.918 258.312 297.918C258.565 297.946 258.847 297.834 259.184 297.581L260.395 296.738L259.241 295.136L258.03 295.979Z" fill="black"/>
<path d="M253.218 296.766L253.274 297.272C252.936 297.244 252.655 297.244 252.373 297.3C252.092 297.356 251.81 297.497 251.529 297.693C251.191 297.918 250.966 298.171 250.853 298.424C250.741 298.677 250.797 298.93 250.938 299.183C251.022 299.323 251.163 299.407 251.304 299.436C251.444 299.464 251.613 299.464 251.81 299.407C251.979 299.351 252.233 299.295 252.514 299.183C252.908 299.042 253.218 298.958 253.499 298.902C253.78 298.845 254.034 298.845 254.259 298.93C254.484 299.014 254.709 299.155 254.878 299.436C255.047 299.688 255.103 299.941 255.103 300.222C255.103 300.503 255.019 300.756 254.85 301.009C254.681 301.262 254.428 301.515 254.118 301.711C253.809 301.908 253.499 302.049 253.189 302.105C252.88 302.189 252.57 302.189 252.261 302.133L252.204 301.627C252.514 301.683 252.824 301.655 253.077 301.599C253.33 301.543 253.583 301.43 253.837 301.262C254.174 301.037 254.4 300.812 254.484 300.531C254.569 300.278 254.54 299.997 254.371 299.745C254.231 299.52 254.034 299.407 253.809 299.407C253.555 299.407 253.246 299.464 252.852 299.632C252.43 299.773 252.064 299.885 251.81 299.941C251.557 299.997 251.304 299.997 251.05 299.941C250.797 299.885 250.6 299.716 250.431 299.464C250.262 299.211 250.206 298.958 250.206 298.705C250.206 298.424 250.319 298.171 250.488 297.918C250.656 297.665 250.91 297.441 251.247 297.216C251.923 296.851 252.57 296.682 253.218 296.766Z" fill="black"/>
<path d="M246.266 306.46L245.844 306.713L243.227 302.273L243.705 301.992L245.731 305.42L245.562 301.852L245.928 301.627L248.968 303.482L246.942 300.082L247.42 299.801L250.037 304.24L249.615 304.493L246.041 302.273L246.266 306.46Z" fill="black"/>
<path d="M237.147 305.561L238.273 306.46L240.665 305.196L240.552 303.763L241.087 303.482L241.509 309.101L241.059 309.354L236.64 305.87L237.147 305.561ZM240.693 305.729L238.695 306.797L240.946 308.595L240.693 305.729Z" fill="black"/>
<path d="M233.375 313.119L232.869 313.372L230.673 308.708L231.096 308.511L235.684 310.927L233.91 307.19L234.417 306.938L236.612 311.602L236.19 311.798L231.602 309.382L233.375 313.119Z" fill="black"/>
<path d="M227.663 310.534C228.113 310.731 228.479 311.124 228.732 311.77L229.943 314.664L229.408 314.889L228.17 311.967C227.973 311.517 227.719 311.208 227.381 311.068C227.044 310.927 226.678 310.956 226.228 311.124C225.777 311.321 225.496 311.574 225.383 311.883C225.242 312.22 225.299 312.613 225.496 313.063L226.734 315.985L226.171 316.21L224.961 313.316C224.708 312.698 224.651 312.136 224.848 311.686C225.045 311.237 225.44 310.871 226.059 310.618C226.678 310.366 227.213 310.337 227.663 310.534Z" fill="black"/>
<path d="M221.442 312.557L223.244 317.39L220.26 318.514L220.091 318.036L222.512 317.137L221.893 315.479L219.585 316.322L219.416 315.844L221.724 315.001L220.908 312.782L221.442 312.557Z" fill="black"/>
<path d="M212.689 315.62L213.646 316.687L216.207 315.845L216.32 314.412L216.911 314.215L216.376 319.806L215.87 319.975L212.098 315.788L212.689 315.62ZM216.151 316.378L213.984 317.081L215.898 319.216L216.151 316.378Z" fill="black"/>
<path d="M209.087 316.968C209.481 317.081 209.847 317.277 210.128 317.614C210.41 317.952 210.635 318.373 210.804 318.879C210.945 319.413 211.001 319.862 210.916 320.312C210.832 320.733 210.663 321.099 210.354 321.408C210.072 321.717 209.678 321.942 209.228 322.054C208.89 322.138 208.552 322.194 208.243 322.166C207.933 322.138 207.624 322.054 207.37 321.913L207.455 321.408C207.764 321.548 208.018 321.632 208.271 321.632C208.524 321.661 208.806 321.632 209.059 321.548C209.594 321.38 209.96 321.099 210.185 320.649C210.382 320.199 210.382 319.666 210.213 319.019C210.016 318.373 209.734 317.895 209.34 317.643C208.946 317.362 208.468 317.305 207.933 317.474C207.652 317.558 207.427 317.671 207.202 317.811C207.005 317.952 206.808 318.176 206.611 318.457L206.273 318.064C206.414 317.811 206.639 317.558 206.892 317.39C207.145 317.193 207.455 317.053 207.793 316.968C208.243 316.884 208.693 316.884 209.087 316.968Z" fill="black"/>
<path d="M202.361 318.514L203.458 323.01L205.203 322.588L205.316 323.094L201.235 324.077L201.122 323.571L202.867 323.15L201.769 318.654L202.361 318.514Z" fill="black"/>
<path d="M197.266 320.143C197.688 320.424 197.942 320.902 198.082 321.548L198.702 324.611L198.111 324.723L197.491 321.604C197.407 321.099 197.21 320.761 196.9 320.565C196.619 320.368 196.225 320.312 195.746 320.396C195.268 320.48 194.958 320.677 194.761 320.986C194.564 321.295 194.536 321.689 194.62 322.166L195.24 325.285L194.648 325.398L194.029 322.335C193.889 321.661 193.973 321.127 194.254 320.705C194.536 320.284 194.986 320.031 195.634 319.89C196.309 319.806 196.844 319.862 197.266 320.143Z" fill="black"/>
<path d="M186.74 321.52L187.388 321.408L188.513 322.897C188.654 323.066 188.795 323.206 188.935 323.234C189.076 323.29 189.301 323.29 189.526 323.262L190.483 323.122L190.145 320.958L190.736 320.874L191.524 325.96L189.414 326.297C188.851 326.381 188.429 326.325 188.091 326.128C187.753 325.932 187.556 325.594 187.472 325.117C187.416 324.723 187.472 324.386 187.669 324.105C187.866 323.824 188.147 323.628 188.569 323.487C188.429 323.459 188.316 323.431 188.204 323.347C188.091 323.262 187.978 323.15 187.866 323.009L186.74 321.52ZM189.132 323.852C188.738 323.909 188.457 324.049 188.288 324.246C188.119 324.442 188.063 324.695 188.119 325.032C188.176 325.37 188.316 325.594 188.513 325.707C188.71 325.819 189.048 325.875 189.442 325.819L190.905 325.594L190.596 323.628L189.132 323.852Z" fill="black"/>
<path d="M184.095 321.857L184.686 326.971L181.449 327.336L181.393 326.831L184.038 326.522L183.841 324.751L181.336 325.032L181.28 324.527L183.785 324.246L183.56 322.391L180.914 322.7L180.858 322.195L184.095 321.857Z" fill="black"/>
<path d="M174.104 322.784L174.751 322.728L175.736 324.302C175.848 324.498 175.989 324.611 176.13 324.695C176.271 324.751 176.468 324.779 176.721 324.751L177.678 324.667L177.509 322.503L178.1 322.447L178.466 327.589L176.355 327.758C175.792 327.786 175.37 327.701 175.06 327.477C174.751 327.252 174.582 326.887 174.526 326.409C174.498 326.016 174.582 325.678 174.807 325.426C175.004 325.173 175.314 324.976 175.736 324.892C175.595 324.864 175.483 324.807 175.37 324.723C175.257 324.639 175.173 324.526 175.06 324.358L174.104 322.784ZM176.299 325.285C175.905 325.313 175.595 325.426 175.426 325.594C175.229 325.763 175.173 326.044 175.173 326.353C175.201 326.69 175.314 326.915 175.511 327.055C175.708 327.196 176.017 327.252 176.439 327.224L177.903 327.111L177.762 325.145L176.299 325.285Z" fill="black"/>
<path d="M171.767 323.487L171.542 323.965C171.288 323.768 171.007 323.628 170.754 323.543C170.472 323.459 170.163 323.431 169.825 323.431C169.403 323.431 169.093 323.543 168.868 323.712C168.643 323.881 168.558 324.105 168.558 324.414C168.558 324.583 168.615 324.723 168.727 324.836C168.84 324.948 168.98 325.032 169.149 325.089C169.318 325.145 169.571 325.201 169.853 325.257C170.247 325.342 170.585 325.426 170.838 325.51C171.091 325.594 171.316 325.735 171.485 325.932C171.654 326.128 171.739 326.353 171.739 326.662C171.739 326.943 171.682 327.224 171.542 327.449C171.401 327.674 171.176 327.87 170.894 327.983C170.613 328.123 170.275 328.179 169.909 328.208C169.543 328.208 169.206 328.179 168.896 328.067C168.586 327.955 168.305 327.814 168.08 327.617L168.305 327.14C168.558 327.337 168.812 327.477 169.065 327.561C169.318 327.646 169.6 327.674 169.881 327.674C170.275 327.674 170.585 327.561 170.81 327.393C171.035 327.224 171.148 326.971 171.119 326.69C171.119 326.437 171.007 326.241 170.81 326.128C170.613 326.016 170.303 325.904 169.881 325.819C169.431 325.735 169.093 325.651 168.812 325.566C168.558 325.482 168.333 325.37 168.164 325.173C167.995 324.976 167.911 324.752 167.883 324.471C167.883 324.19 167.939 323.909 168.08 323.684C168.221 323.459 168.446 323.29 168.727 323.15C169.009 323.009 169.346 322.953 169.74 322.925C170.641 322.869 171.288 323.066 171.767 323.487Z" fill="black"/>
<path d="M160.791 328.151H160.312L160.397 323.01H160.96L160.875 326.999L162.592 323.852H163.014L164.647 327.027L164.703 323.066H165.266L165.181 328.208H164.675L162.789 324.442L160.791 328.151Z" fill="black"/>
<path d="M153.473 322.7L153.979 324.049L156.681 324.189L157.328 322.897L157.948 322.925L155.386 327.954L154.88 327.926L152.91 322.644L153.473 322.7ZM156.4 324.667L154.148 324.527L155.133 327.224L156.4 324.667Z" fill="black"/>
<path d="M146.325 327.224L145.762 327.168L146.269 322.054L146.719 322.11L149.393 326.55L149.815 322.419L150.378 322.476L149.871 327.589L149.421 327.533L146.747 323.094L146.325 327.224Z" fill="black"/>
<path d="M142.778 322.082C143.059 322.475 143.172 323.009 143.059 323.684L142.609 326.774L142.018 326.69L142.468 323.543C142.553 323.037 142.468 322.644 142.271 322.363C142.074 322.082 141.736 321.914 141.258 321.829C140.78 321.773 140.414 321.829 140.132 322.054C139.851 322.279 139.682 322.616 139.597 323.122L139.147 326.269L138.556 326.184L139.006 323.094C139.091 322.419 139.344 321.942 139.738 321.633C140.132 321.324 140.667 321.239 141.314 321.324C142.018 321.436 142.496 321.661 142.778 322.082Z" fill="black"/>
<path d="M136.417 320.593L135.46 325.651L132.336 325.061L132.421 324.555L134.982 325.033L135.32 323.291L132.899 322.841L132.984 322.335L135.404 322.785L135.826 320.453L136.417 320.593Z" fill="black"/>
<path d="M127.326 318.71L127.58 320.115L130.197 320.705L131.042 319.553L131.633 319.694L128.283 324.217L127.777 324.105L126.707 318.57L127.326 318.71ZM129.888 321.155L127.664 320.649L128.199 323.459L129.888 321.155Z" fill="black"/>
<path d="M123.527 318.036C123.808 318.345 124.005 318.711 124.09 319.132C124.174 319.554 124.146 320.031 124.005 320.565C123.865 321.099 123.64 321.52 123.358 321.858C123.077 322.195 122.711 322.419 122.317 322.532C121.923 322.644 121.472 322.644 120.994 322.504C120.656 322.419 120.347 322.279 120.093 322.082C119.84 321.886 119.615 321.689 119.474 321.408L119.812 321.015C120.009 321.296 120.206 321.492 120.403 321.633C120.6 321.773 120.853 321.886 121.135 321.97C121.669 322.11 122.148 322.054 122.542 321.773C122.936 321.492 123.217 321.043 123.386 320.396C123.555 319.75 123.555 319.188 123.358 318.767C123.161 318.345 122.767 318.036 122.232 317.896C121.951 317.811 121.698 317.783 121.444 317.811C121.191 317.84 120.91 317.924 120.628 318.064L120.544 317.559C120.825 317.418 121.107 317.334 121.416 317.306C121.726 317.278 122.063 317.306 122.401 317.39C122.851 317.53 123.246 317.727 123.527 318.036Z" fill="black"/>
<path d="M116.969 315.873L115.59 320.312L117.307 320.846L117.166 321.324L113.17 320.059L113.311 319.582L115.027 320.115L116.407 315.676L116.969 315.873Z" fill="black"/>
<path d="M111.763 314.664C111.96 315.114 111.96 315.648 111.735 316.294L110.665 319.244L110.102 319.048L111.172 316.041C111.341 315.564 111.341 315.17 111.2 314.861C111.059 314.552 110.75 314.299 110.299 314.131C109.849 313.962 109.455 313.962 109.145 314.131C108.836 314.299 108.582 314.608 108.414 315.086L107.344 318.092L106.781 317.896L107.851 314.945C108.076 314.299 108.414 313.878 108.864 313.681C109.314 313.456 109.849 313.484 110.468 313.709C111.144 313.878 111.566 314.215 111.763 314.664Z" fill="black"/>
<path d="M102.053 310.394L102.672 310.647L102.869 312.501C102.897 312.726 102.953 312.894 103.066 313.035C103.179 313.147 103.347 313.26 103.573 313.372L104.473 313.737L105.289 311.714L105.824 311.939L103.854 316.716L101.884 315.901C101.377 315.676 101.011 315.423 100.842 315.058C100.674 314.721 100.674 314.327 100.842 313.878C100.983 313.513 101.208 313.26 101.518 313.119C101.828 312.979 102.165 312.951 102.587 313.063C102.475 312.979 102.39 312.866 102.334 312.754C102.278 312.642 102.25 312.473 102.222 312.304L102.053 310.394ZM102.869 313.625C102.503 313.485 102.194 313.428 101.94 313.513C101.687 313.597 101.518 313.794 101.377 314.103C101.265 314.412 101.237 314.665 101.377 314.889C101.49 315.114 101.743 315.311 102.109 315.451L103.488 316.013L104.248 314.187L102.869 313.625Z" fill="black"/>
<path d="M99.6039 309.326L97.4649 314.018L94.5098 312.67L94.7068 312.22L97.1272 313.316L97.8871 311.686L95.5793 310.647L95.7763 310.197L98.0841 311.237L98.8722 309.523L96.4518 308.427L96.6488 307.977L99.6039 309.326Z" fill="black"/>
<path d="M90.5974 304.971L91.1884 305.28L91.2166 307.162C91.2166 307.387 91.2729 307.556 91.3574 307.696C91.4418 307.837 91.6107 307.949 91.8359 308.061L92.7085 308.511L93.6937 306.572L94.2285 306.853L91.8921 311.461L90.0062 310.506C89.4996 310.253 89.1899 309.944 89.021 309.607C88.8521 309.27 88.9085 308.848 89.1337 308.427C89.3026 308.061 89.5559 307.837 89.8655 307.724C90.1751 307.612 90.5411 307.612 90.9351 307.752C90.8225 307.668 90.7662 307.556 90.7099 307.415C90.6536 307.275 90.6255 307.134 90.6255 306.966L90.5974 304.971ZM91.1603 308.258C90.7944 308.09 90.5129 308.005 90.2596 308.061C90.0063 308.118 89.8092 308.286 89.6403 308.595C89.4995 308.904 89.4714 309.157 89.5559 309.382C89.6685 309.607 89.8937 309.832 90.2596 310L91.5826 310.675L92.4833 308.904L91.1603 308.258Z" fill="black"/>
<path d="M88.2336 304.381L87.8115 304.662C87.6989 304.353 87.5301 304.1 87.3612 303.875C87.1923 303.65 86.939 303.481 86.6294 303.313C86.2635 303.116 85.954 303.032 85.6725 303.06C85.3911 303.088 85.1941 303.229 85.0533 303.482C84.9689 303.622 84.9407 303.791 84.997 303.931C85.0251 304.072 85.1096 304.212 85.2503 304.353C85.3629 304.493 85.5599 304.662 85.7851 304.858C86.0947 305.139 86.3198 305.392 86.4887 305.589C86.6575 305.814 86.7701 306.038 86.8264 306.263C86.8827 306.516 86.8264 306.769 86.6576 307.022C86.5169 307.275 86.3198 307.471 86.0665 307.584C85.8132 307.696 85.5318 307.752 85.2222 307.724C84.9126 307.696 84.603 307.584 84.2653 307.415C83.9557 307.247 83.7024 307.022 83.4772 306.769C83.252 306.516 83.1113 306.263 83.0269 305.954L83.449 305.673C83.5616 305.982 83.7023 306.235 83.8712 306.432C84.0401 306.628 84.2652 306.825 84.5185 306.966C84.8563 307.162 85.1941 307.247 85.4755 307.19C85.757 307.162 85.9821 306.994 86.1228 306.741C86.2354 306.516 86.2635 306.291 86.151 306.095C86.0384 305.87 85.8414 305.645 85.5318 305.364C85.194 305.055 84.9408 304.802 84.7719 304.605C84.603 304.409 84.4904 304.184 84.406 303.931C84.3497 303.678 84.3778 303.453 84.5467 303.172C84.6874 302.92 84.8845 302.723 85.1096 302.61C85.3629 302.498 85.6162 302.442 85.9258 302.498C86.2354 302.526 86.545 302.639 86.8827 302.835C87.5582 303.257 88.0085 303.762 88.2336 304.381Z" fill="black"/>
<path d="M76.4129 302.723L75.9907 302.47L78.6927 298.087L79.1711 298.368L77.0602 301.767L80.1562 299.941L80.5221 300.166L80.2969 303.734L82.3796 300.363L82.8581 300.644L80.1562 305.027L79.734 304.774L80.0436 300.559L76.4129 302.723Z" fill="black"/>
<path d="M72.9512 294.238L72.6698 295.642L74.893 297.16L76.1032 296.401L76.6098 296.738L71.8255 299.717L71.4033 299.436L72.4446 293.9L72.9512 294.238ZM74.4427 297.469L72.5853 296.176L72.0225 298.986L74.4427 297.469Z" fill="black"/>
<path d="M64.5075 294.406L64.0571 294.069L67.153 289.967L67.5189 290.248V295.418L70.0237 292.102L70.4741 292.439L67.3782 296.542L67.0123 296.261V291.091L64.5075 294.406Z" fill="black"/>
<path d="M64.1419 288.168C64.1982 288.646 64.0011 289.18 63.5508 289.686L61.5526 292.102L61.1023 291.737L63.1286 289.264C63.4382 288.871 63.6071 288.506 63.5508 288.168C63.5227 287.803 63.3257 287.494 62.9598 287.185C62.5939 286.876 62.2281 286.763 61.8903 286.792C61.5526 286.82 61.2148 287.044 60.8771 287.438L58.8507 289.91L58.4004 289.517L60.3987 287.101C60.8208 286.567 61.2993 286.286 61.7777 286.23C62.2562 286.173 62.7628 286.37 63.2975 286.792C63.8323 287.241 64.1137 287.691 64.1419 288.168Z" fill="black"/>
<path d="M59.4417 283.617L56.008 287.466L53.6157 285.331L53.9535 284.965L55.8954 286.679L57.0775 285.359L55.2481 283.729L55.5858 283.364L57.4152 284.993L58.9913 283.223L59.4417 283.617Z" fill="black"/>
<path d="M52.6586 277.323L52.152 278.672L54.094 280.526L55.4168 279.964L55.8671 280.385L50.6603 282.521L50.2944 282.156L52.2364 276.873L52.6586 277.323ZM53.5874 280.751L51.955 279.177L50.9417 281.875L53.5874 280.751Z" fill="black"/>
<path d="M49.7882 274.766C49.8726 275.159 49.8445 275.581 49.7037 276.002C49.563 276.424 49.2816 276.817 48.8875 277.182C48.4935 277.548 48.0994 277.8 47.6772 277.941C47.255 278.081 46.8609 278.081 46.4387 277.969C46.0446 277.857 45.6788 277.632 45.341 277.267C45.0877 277.014 44.9188 276.733 44.7781 276.452C44.6655 276.171 44.5811 275.862 44.5811 275.553L45.0595 275.384C45.0877 275.721 45.144 276.002 45.2284 276.227C45.3129 276.452 45.4817 276.676 45.6787 276.901C46.0728 277.323 46.495 277.491 46.9735 277.463C47.452 277.435 47.9305 277.182 48.4371 276.733C48.9156 276.255 49.1971 275.805 49.2534 275.328C49.3097 274.85 49.1408 274.401 48.7468 274.007C48.5498 273.811 48.3246 273.642 48.0994 273.53C47.8742 273.417 47.5928 273.361 47.255 273.305L47.4238 272.827C47.7334 272.827 48.015 272.911 48.3246 273.052C48.6342 273.192 48.8875 273.389 49.1126 273.642C49.4785 273.979 49.6756 274.372 49.7882 274.766Z" fill="black"/>
<path d="M45.285 269.54L41.7951 272.603L42.9772 273.951L42.5831 274.288L39.7969 271.141L40.1909 270.804L41.3729 272.153L44.8629 269.09L45.285 269.54Z" fill="black"/>
<path d="M41.4573 265.803C41.401 266.28 41.1196 266.758 40.5849 267.18L38.1363 269.146L37.7705 268.697L40.2471 266.674C40.6411 266.365 40.8663 266.028 40.8944 265.662C40.9226 265.325 40.81 264.96 40.5004 264.595C40.1909 264.229 39.8813 264.033 39.5154 264.004C39.1777 263.976 38.7836 264.117 38.4177 264.426L35.9411 266.449L35.5752 265.971L38.0237 264.004C38.5585 263.583 39.065 263.386 39.5435 263.443C40.0501 263.499 40.5004 263.78 40.9226 264.285C41.3166 264.819 41.4855 265.325 41.4573 265.803Z" fill="black"/>
<path d="M35.3217 257.177L35.7157 257.711L34.9277 259.396C34.8432 259.593 34.787 259.79 34.8151 259.958C34.8433 260.127 34.9277 260.296 35.0684 260.492L35.6313 261.279L37.3763 259.987L37.7422 260.464L33.6049 263.527L32.3383 261.841C32.0006 261.391 31.8599 260.97 31.8599 260.577C31.888 260.183 32.085 259.846 32.479 259.565C32.7886 259.34 33.1264 259.228 33.4641 259.256C33.8019 259.284 34.1114 259.453 34.421 259.762C34.3647 259.621 34.3648 259.509 34.3648 259.368C34.3929 259.228 34.4211 259.087 34.5055 258.919L35.3217 257.177ZM34.3648 260.352C34.1396 260.043 33.8863 259.846 33.633 259.79C33.3797 259.734 33.1264 259.79 32.8449 260.015C32.5916 260.211 32.4509 260.436 32.4228 260.689C32.4228 260.942 32.5353 261.223 32.7605 261.56L33.633 262.74L35.2373 261.56L34.3648 260.352Z" fill="black"/>
<path d="M33.7736 254.985L29.5237 257.907L27.6943 255.21L28.1165 254.929L29.6363 257.121L31.128 256.109L29.6926 254.03L30.1147 253.749L31.5502 255.828L33.0981 254.76L31.5783 252.569L32.0005 252.288L33.7736 254.985Z" fill="black"/>
<path d="M28.2852 246.612L28.623 247.174L27.6943 248.804C27.5817 249.001 27.5254 249.169 27.5535 249.338C27.5535 249.506 27.638 249.675 27.7787 249.9L28.2852 250.714L30.1428 249.562L30.4524 250.068L26.0901 252.794L24.9643 250.995C24.6547 250.518 24.5421 250.096 24.5984 249.703C24.6547 249.31 24.8799 249.001 25.302 248.748C25.6397 248.523 25.9774 248.467 26.3152 248.523C26.6529 248.579 26.9344 248.776 27.2158 249.085C27.1877 248.944 27.1595 248.832 27.1877 248.691C27.2158 248.551 27.2721 248.411 27.3565 248.27L28.2852 246.612ZM27.0751 249.731C26.85 249.394 26.6248 249.197 26.3996 249.113C26.1463 249.029 25.893 249.085 25.6116 249.253C25.3301 249.422 25.1613 249.647 25.1331 249.9C25.105 250.153 25.1894 250.433 25.4146 250.799L26.2026 252.035L27.8913 250.995L27.0751 249.731Z" fill="black"/>
<path d="M26.5686 244.898L26.0621 244.926C26.1184 244.589 26.1184 244.308 26.0621 244.027C26.0058 243.746 25.8933 243.465 25.7244 243.156C25.5274 242.791 25.3023 242.566 25.049 242.454C24.7957 242.341 24.5425 242.341 24.2892 242.51C24.1485 242.594 24.0359 242.706 24.0078 242.847C23.9796 242.987 23.9515 243.156 24.0078 243.353C24.0359 243.549 24.0922 243.774 24.1767 244.055C24.2892 244.448 24.3737 244.786 24.4018 245.067C24.4299 245.348 24.4018 245.601 24.3174 245.825C24.2329 246.05 24.0641 246.247 23.7826 246.415C23.5294 246.556 23.2762 246.612 22.9948 246.612C22.7133 246.612 22.4601 246.5 22.2068 246.303C21.9535 246.106 21.7284 245.853 21.5595 245.544C21.3907 245.235 21.2781 244.926 21.2219 244.589C21.1656 244.252 21.1655 243.971 21.25 243.662L21.7565 243.634C21.7002 243.943 21.7003 244.252 21.7284 244.505C21.7847 244.758 21.8691 245.039 22.0098 245.291C22.2068 245.629 22.4319 245.881 22.6852 245.994C22.9384 246.106 23.1917 246.078 23.4731 245.938C23.6983 245.797 23.8108 245.629 23.839 245.376C23.8671 245.151 23.8108 244.814 23.6701 244.42C23.5294 243.971 23.445 243.634 23.4169 243.353C23.3606 243.1 23.3887 242.847 23.445 242.594C23.5294 242.369 23.6982 242.173 23.9515 242.004C24.2048 241.863 24.4581 241.807 24.7395 241.835C25.0209 241.863 25.2741 241.976 25.4993 242.144C25.7525 242.341 25.9777 242.594 26.1465 242.931C26.5686 243.577 26.7093 244.252 26.5686 244.898Z" fill="black"/>
<path d="M17.3091 237.396L17.084 236.975L21.6713 234.615L21.9246 235.092L18.3785 236.918L21.9809 236.947L22.1779 237.312L20.1516 240.234L23.6695 238.408L23.9227 238.913L19.3354 241.274L19.1103 240.824L21.5306 237.368L17.3091 237.396Z" fill="black"/>
<path d="M18.7443 228.349L17.7875 229.416L18.9132 231.861L20.3485 231.833L20.6018 232.395L14.9732 232.479L14.748 232.001L18.4911 227.815L18.7443 228.349ZM18.3504 231.861L17.4216 229.81L15.4797 231.945L18.3504 231.861Z" fill="black"/>
<path d="M11.3984 224.134L11.1733 223.6L15.9579 221.662L16.1268 222.083L13.453 226.522L17.3088 224.977L17.534 225.511L12.7494 227.45L12.5806 227.028L15.2543 222.589L11.3984 224.134Z" fill="black"/>
<path d="M14.3256 218.599C14.1005 219.049 13.6782 219.386 13.0309 219.611L10.0756 220.65L9.87861 220.088L12.8902 219.02C13.3686 218.852 13.6783 218.599 13.8472 218.29C14.016 217.981 14.016 217.588 13.8472 217.138C13.6783 216.688 13.4531 216.379 13.1153 216.239C12.8057 216.098 12.4117 216.098 11.9332 216.267L8.92168 217.335L8.72461 216.773L11.6799 215.733C12.3272 215.508 12.862 215.508 13.3124 215.705C13.7627 215.902 14.1005 216.323 14.3256 216.969C14.5226 217.644 14.5226 218.178 14.3256 218.599Z" fill="black"/>
<path d="M12.665 212.305L7.73975 213.822L6.81104 210.788L7.28948 210.647L8.04937 213.12L9.73804 212.586L9.00625 210.254L9.48476 210.113L10.2165 212.445L12.4962 211.743L12.665 212.305Z" fill="black"/>
<path d="M10.104 203.398L8.97825 204.297L9.68186 206.882L11.1172 207.079L11.2861 207.669L5.71348 206.798L5.57275 206.292L9.9633 202.78L10.104 203.398ZM9.11897 206.798L8.52791 204.606L6.27636 206.376L9.11897 206.798Z" fill="black"/>
<path d="M8.95013 199.745C8.8094 200.139 8.58423 200.476 8.24647 200.757C7.90872 201.038 7.45839 201.234 6.92361 201.347C6.38883 201.459 5.91031 201.459 5.48812 201.375C5.06592 201.263 4.70008 201.066 4.41861 200.757C4.13715 200.448 3.9401 200.054 3.82751 199.577C3.74307 199.24 3.74309 198.902 3.77123 198.593C3.82753 198.284 3.91192 198.003 4.0808 197.722L4.58745 197.835C4.44672 198.116 4.33413 198.397 4.30599 198.65C4.27784 198.902 4.27787 199.183 4.33416 199.436C4.44674 199.998 4.72818 200.363 5.15038 200.588C5.57257 200.813 6.10737 200.841 6.78288 200.701C7.45839 200.56 7.90876 200.279 8.21837 199.914C8.52798 199.549 8.58424 199.071 8.47166 198.509C8.41537 198.228 8.30275 197.975 8.16202 197.779C8.02129 197.554 7.82431 197.357 7.57099 197.16L7.96501 196.851C8.21833 197.02 8.44351 197.245 8.61239 197.498C8.78127 197.75 8.92201 198.06 8.97831 198.425C9.09089 198.902 9.09087 199.324 8.95013 199.745Z" fill="black"/>
</svg>
